<svg width="706" height="188" viewBox="0 0 706 188" fill="none" xmlns="http://www.w3.org/2000/svg">
<g clip-path="url(#clip0)">
<path d="M313.58 70.26C316.66 63.82 323.66 56.54 335.28 56.54C350.82 56.54 363.84 71.38 363.84 93.5C363.84 115.62 350.82 130.46 335.28 130.46C323.66 130.46 317.22 123.18 314.42 118.42H314.14V156.22H298.6V58.22H314.14L313.3 70.26H313.58ZM330.94 117.72C342.28 117.72 348.3 107.08 348.3 93.5C348.3 79.92 342.28 69.28 330.94 69.28C319.6 69.28 313.58 79.92 313.58 93.5C313.58 107.08 319.6 117.72 330.94 117.72Z" fill="black"/>
<path d="M387.78 70.26C390.86 63.82 397.86 56.54 409.48 56.54C425.02 56.54 438.04 71.38 438.04 93.5C438.04 115.62 425.02 130.46 409.48 130.46C397.86 130.46 391.42 123.18 388.62 118.42H388.34V156.22H372.8V58.22H388.34L387.5 70.26H387.78ZM405.14 117.72C416.48 117.72 422.5 107.08 422.5 93.5C422.5 79.92 416.48 69.28 405.14 69.28C393.8 69.28 387.78 79.92 387.78 93.5C387.78 107.08 393.8 117.72 405.14 117.72Z" fill="black"/>
<path d="M464.64 50.24V58.22H481.3V70.68H464.64V128.78H449.52V70.68H437.9V58.22H449.52V49.82C449.52 34.14 459.04 25.74 472.62 25.74C484.38 25.74 491.52 32.74 495.02 38.9L481.16 47.44C480.88 42.96 478.64 38.06 473.18 38.06C467.44 38.06 464.64 42.4 464.64 50.24Z" fill="black"/>
<path d="M496.42 85.38L482.56 77.54C486.9 65.5 498.8 56.54 514.2 56.54C529.46 56.54 541.78 64.38 541.78 82.02V112.4C541.78 120.1 542.2 124.3 543.46 128.78H531.42C529.18 125.14 528.48 122.9 527.92 119.54H527.5C524.42 124.3 517.7 130.46 506.64 130.46C493.9 130.46 484.38 122.9 484.38 109.74C484.38 94.34 498.94 90.42 510.7 87.9C520.92 85.8 526.66 84.54 526.66 79.08C526.66 73.06 521.2 69 514.06 69C503.98 69 498.24 76.14 496.42 85.38ZM527.22 92.24C525.12 95.32 520.64 97 514.2 98.54C506.92 100.22 499.5 102.04 499.5 109.04C499.5 114.36 503.28 118.14 510.56 118.14C519.24 118.14 527.22 112.12 527.22 101.76V92.24Z" fill="black"/>
<path d="M553.82 58.22H569.36L568.52 70.26H568.8C571.88 62.84 577.62 56.96 586.3 56.96C596.1 56.96 602.12 65.22 602.12 75.44C602.12 79.64 601.42 83 601.42 83L587 91.54C587.28 90.56 588.26 85.1 588.26 80.48C588.26 75.02 586.02 70.4 580.42 70.4C572.72 70.4 569.36 78.38 569.36 88.46V128.78H553.82V58.22Z" fill="black"/>
<path d="M607.86 58.22H623.26L622.28 70.26H622.7C625.78 64.1 631.8 56.54 642.86 56.54C652.24 56.54 658.68 61.16 661.62 70.12H662.04C665.4 63.54 671.84 56.54 683.46 56.54C697.18 56.54 705.72 65.92 705.72 82.58V128.78H690.32V85.66C690.32 75.02 686.12 69.98 678.28 69.98C669.74 69.98 664.42 76.98 664.42 87.76V128.78H649.16V84.12C649.16 74.6 644.4 69.98 637.12 69.98C628.58 69.98 623.26 76.7 623.26 87.06V128.78H607.86V58.22Z" fill="black"/>
<path d="M160.8 100.96C119.39 142.37 64.1 123.57 64.1 123.57C64.1 123.57 60.43 112.76 59.9 97.13C41.81 84.81 21 78.2 0 77.3C3.29 71.86 7.28 66.73 11.98 62.03C29.65 44.36 53.49 36.64 76.55 38.86C79.44 34.78 82.81 30.76 86.7 26.86C128.11 -14.55 183.4 4.25 183.4 4.25C183.4 4.25 202.2 59.55 160.8 100.96Z" fill="black"/>
<path d="M125.64 175.68C120.94 180.38 115.81 184.37 110.37 187.66C109.74 173 106.33 158.43 100.14 144.82C115.99 141.64 132.93 135.21 149.05 123.34C147.99 142.39 140.19 161.13 125.64 175.68Z" fill="black"/>
<path d="M66.06 166.18C47.34 184.9 16.79 170.86 16.79 170.86C16.79 170.86 2.75 140.32 21.47 121.59C29.71 113.35 40.23 111.46 49.44 111.92C46.66 112.9 43.97 114.48 41.58 116.87C29.32 129.13 38.52 149.13 38.52 149.13C38.52 149.13 58.52 158.32 70.78 146.07C73.17 143.68 74.75 140.99 75.73 138.21C76.19 147.42 74.29 157.95 66.06 166.18Z" fill="black"/>
<path d="M267.78 32.23H256.78L207.78 129.23H224.78L236.95 105.23H267.78V129.23H284.78V32.23H267.78ZM245.07 89.23L267.78 44.45V89.23H245.07Z" fill="black"/>
</g>
<defs>
<clipPath id="clip0">
<rect width="705.72" height="187.66" fill="white"/>
</clipPath>
</defs>
</svg>
