<?xml version="1.0" standalone="no"?>
<!DOCTYPE svg PUBLIC "-//W3C//DTD SVG 20010904//EN"
 "http://www.w3.org/TR/2001/REC-SVG-20010904/DTD/svg10.dtd">
<svg version="1.0" xmlns="http://www.w3.org/2000/svg"
 width="13960.000000pt" height="6726.000000pt" viewBox="0 0 13960.000000 6726.000000"
 preserveAspectRatio="xMidYMid meet">

<g transform="translate(0.000000,6726.000000) scale(0.100000,-0.100000)"
fill="#000000" stroke="none">
<path d="M22170 33960 l0 -11520 1615 0 1615 0 0 771 0 770 33 -28 c361 -307
612 -495 927 -695 882 -558 1880 -918 2918 -1053 507 -65 1173 -73 1717 -19
2084 205 3956 1249 5209 2904 890 1175 1434 2586 1585 4110 34 342 43 529 43
905 1 702 -65 1311 -213 1963 -472 2099 -1758 3907 -3519 4949 -1003 593
-2024 918 -3240 1030 -279 25 -1094 26 -1355 0 -902 -89 -1687 -310 -2470
-697 -576 -284 -1088 -630 -1560 -1052 -77 -69 -141 -125 -142 -124 -2 2 -33
8295 -33 8894 l0 412 -1565 0 -1565 0 0 -11520z m8095 1140 c1408 -104 2620
-810 3405 -1982 500 -748 784 -1600 860 -2583 23 -303 12 -793 -26 -1120 -216
-1859 -1316 -3374 -2899 -3994 -514 -201 -997 -296 -1570 -308 -390 -8 -653
14 -1015 87 -797 160 -1495 516 -2113 1077 -402 365 -763 852 -1022 1378 -303
616 -467 1223 -537 1980 -19 209 -16 786 5 1005 82 829 302 1545 673 2192 770
1342 2096 2174 3619 2271 124 8 493 6 620 -3z"/>
<path d="M109590 41595 l0 -3885 -1070 0 -1070 0 0 -1400 0 -1400 1070 0 1070
0 0 -6235 0 -6235 1600 0 1601 0 -6 1548 c-9 2383 -25 8624 -25 9837 l0 1085
2335 0 2335 0 0 1400 0 1400 -2334 0 -2334 0 -6 143 c-3 78 -10 1461 -16 3072
-5 1612 -13 3296 -17 3743 l-6 812 -1564 0 -1563 0 0 -3885z"/>
<path d="M47145 38060 c-1425 -97 -2712 -525 -3865 -1285 -1833 -1208 -3078
-3170 -3389 -5340 -127 -883 -107 -1735 59 -2575 321 -1619 1179 -3308 2376
-4675 181 -207 557 -590 754 -769 718 -651 1465 -1122 2207 -1391 577 -210
1207 -288 1668 -209 486 83 953 330 1283 678 108 114 187 218 311 404 679
1022 1382 1824 2159 2464 645 532 1450 1019 2327 1407 780 346 1219 619 1565
977 450 465 663 1005 747 1894 22 236 25 1109 5 1345 -94 1094 -348 2012 -807
2920 -293 579 -597 1036 -1024 1535 -145 170 -483 514 -665 677 -922 825
-2029 1411 -3236 1713 -445 111 -835 175 -1355 221 -157 13 -953 20 -1120 9z
m920 -3565 c698 -76 1355 -294 1935 -643 678 -408 1266 -1008 1661 -1695 255
-443 449 -977 543 -1488 82 -446 99 -1028 41 -1369 -81 -471 -304 -817 -750
-1165 -103 -81 -282 -201 -587 -394 -1171 -742 -1837 -1429 -2331 -2406 -106
-208 -164 -293 -286 -416 -252 -251 -544 -369 -918 -369 -1058 0 -2275 719
-3215 1900 -821 1032 -1288 2233 -1288 3310 0 1316 491 2542 1368 3417 767
765 1814 1238 2927 1323 77 6 160 12 185 14 99 9 583 -4 715 -19z"/>
<path d="M98420 37974 c-19 -2 -102 -8 -185 -14 -311 -23 -854 -105 -1234
-186 -2061 -440 -3621 -1535 -4663 -3274 -922 -1538 -1337 -3447 -1152 -5295
104 -1041 292 -1846 611 -2614 920 -2217 2900 -3855 5269 -4360 608 -130 1215
-179 2085 -168 773 9 1364 77 2049 233 1406 321 2750 1009 3785 1936 224 201
562 551 743 769 12 15 -100 127 -1010 1015 -563 548 -1048 1021 -1078 1051
l-56 53 -309 -308 c-649 -645 -982 -898 -1550 -1177 -701 -345 -1449 -526
-2380 -576 -291 -15 -909 -7 -1100 16 -814 94 -1550 365 -2144 789 -819 583
-1358 1432 -1645 2589 -49 195 -126 571 -126 612 0 13 710 15 5898 17 l5897 3
12 130 c45 505 44 1139 -3 1675 -130 1483 -608 2920 -1339 4025 -555 838
-1257 1508 -2130 2032 -825 496 -1806 836 -2792 968 -372 50 -484 57 -963 60
-250 2 -471 1 -490 -1z m790 -2798 c957 -114 1790 -511 2452 -1170 539 -536
908 -1186 1092 -1921 39 -153 86 -411 78 -420 -7 -7 -8427 -7 -8434 0 -3 4 9
78 28 165 249 1193 870 2143 1771 2713 605 382 1266 586 2108 651 131 10 776
-3 905 -18z"/>
<path d="M57683 33313 c3 -3285 6 -4432 15 -4533 46 -515 88 -831 162 -1200
227 -1135 645 -2100 1267 -2925 415 -551 885 -994 1463 -1380 267 -178 420
-266 722 -415 853 -422 1792 -658 2913 -731 232 -15 888 -15 1120 0 1121 73
2060 309 2913 731 302 149 455 237 722 415 578 386 1048 829 1463 1380 866
1149 1344 2585 1437 4315 6 117 10 1754 10 4463 l0 4277 -1610 0 -1610 0 0
-4087 c0 -2550 -4 -4173 -10 -4313 -68 -1528 -529 -2670 -1375 -3399 -595
-513 -1372 -794 -2295 -830 -1090 -42 -2011 239 -2700 824 -125 106 -352 344
-454 475 -511 657 -810 1512 -906 2590 -27 310 -30 688 -30 4643 l0 4097
-1610 0 -1610 0 3 -4397z"/>
<path d="M74065 37628 c19 -46 1470 -3480 3224 -7633 l3189 -7550 1648 0 1648
0 3218 7615 c1770 4188 3220 7623 3224 7633 5 16 -78 17 -1658 17 l-1663 0
-2299 -5900 c-1265 -3244 -2302 -5897 -2305 -5895 -3 2 -1048 2656 -2321 5899
l-2315 5896 -1812 0 -1812 0 34 -82z"/>
</g>
</svg>
