<svg width="500" height="116" viewBox="0 0 500 116" fill="none" xmlns="http://www.w3.org/2000/svg">
	<mask id="path-1-inside-1" fill="white">
		<path d="M115.124 53.0024C113.92 38.1297 106.996 24.3031 95.8089 14.4291C84.6218 4.55514 70.0421 -0.597192 55.135 0.0551826C40.2279 0.707557 26.1542 7.11387 15.8724 17.9274C5.59058 28.7409 -0.0981908 43.1195 0.00128289 58.0405C0.100757 72.9616 5.98112 87.2629 16.4062 97.9384C26.8312 108.614 40.989 114.832 55.9035 115.286C70.818 115.739 85.3271 110.393 96.3816 100.371C107.436 90.3484 114.175 76.4307 115.181 61.5432C115.264 60.2564 115.308 58.9544 115.312 57.6372C115.312 56.0657 115.249 54.5113 115.124 52.9739V53.0024ZM106.782 63.5987C105.226 76.0767 98.9535 87.486 89.2521 95.4863C79.5506 103.487 67.1556 107.471 54.6096 106.623C42.0636 105.774 30.3178 100.157 21.782 90.923C13.2461 81.6893 8.56755 69.5392 8.70556 56.9653C9.08135 29.9252 31.5551 8.08352 58.5953 8.44223C70.3752 8.6025 81.7071 12.9819 90.5332 20.7852C99.3593 28.5885 105.094 39.2983 106.697 50.9697C106.731 51.2261 106.71 51.4867 106.635 51.7343C106.56 51.9819 106.433 52.2106 106.263 52.4052C106.093 52.5998 105.883 52.7558 105.647 52.8627C105.412 52.9696 105.157 53.025 104.898 53.0252H83.7906C83.3865 53.0242 82.9941 52.888 82.6763 52.6383C82.3585 52.3886 82.1335 52.0397 82.0369 51.6473C80.5545 45.735 76.9511 40.5737 71.9119 37.1445C66.8727 33.7154 60.749 32.2575 54.7052 33.0482C48.6614 33.8389 43.119 36.8229 39.1316 41.4329C35.1441 46.043 32.9902 51.9576 33.0785 58.0523C33.1669 64.1469 35.4915 69.9965 39.6109 74.489C43.7303 78.9816 49.3572 81.8036 55.4214 82.4188C61.4855 83.0339 67.5642 81.3991 72.5019 77.8253C77.4395 74.2515 80.8916 68.9878 82.202 63.035C82.29 62.6301 82.5134 62.2674 82.8353 62.0065C83.1573 61.7457 83.5587 61.6023 83.973 61.6001H104.989C105.245 61.6008 105.499 61.6558 105.733 61.7613C105.967 61.8668 106.176 62.0205 106.346 62.2124C106.517 62.4043 106.645 62.6301 106.722 62.8749C106.799 63.1197 106.823 63.378 106.794 63.6329"/>
	</mask>
	<path d="M115.124 53.0024C113.92 38.1297 106.996 24.3031 95.8089 14.4291C84.6218 4.55514 70.0421 -0.597192 55.135 0.0551826C40.2279 0.707557 26.1542 7.11387 15.8724 17.9274C5.59058 28.7409 -0.0981908 43.1195 0.00128289 58.0405C0.100757 72.9616 5.98112 87.2629 16.4062 97.9384C26.8312 108.614 40.989 114.832 55.9035 115.286C70.818 115.739 85.3271 110.393 96.3816 100.371C107.436 90.3484 114.175 76.4307 115.181 61.5432C115.264 60.2564 115.308 58.9544 115.312 57.6372C115.312 56.0657 115.249 54.5113 115.124 52.9739V53.0024ZM106.782 63.5987C105.226 76.0767 98.9535 87.486 89.2521 95.4863C79.5506 103.487 67.1556 107.471 54.6096 106.623C42.0636 105.774 30.3178 100.157 21.782 90.923C13.2461 81.6893 8.56755 69.5392 8.70556 56.9653C9.08135 29.9252 31.5551 8.08352 58.5953 8.44223C70.3752 8.6025 81.7071 12.9819 90.5332 20.7852C99.3593 28.5885 105.094 39.2983 106.697 50.9697C106.731 51.2261 106.71 51.4867 106.635 51.7343C106.56 51.9819 106.433 52.2106 106.263 52.4052C106.093 52.5998 105.883 52.7558 105.647 52.8627C105.412 52.9696 105.157 53.025 104.898 53.0252H83.7906C83.3865 53.0242 82.9941 52.888 82.6763 52.6383C82.3585 52.3886 82.1335 52.0397 82.0369 51.6473C80.5545 45.735 76.9511 40.5737 71.9119 37.1445C66.8727 33.7154 60.749 32.2575 54.7052 33.0482C48.6614 33.8389 43.119 36.8229 39.1316 41.4329C35.1441 46.043 32.9902 51.9576 33.0785 58.0523C33.1669 64.1469 35.4915 69.9965 39.6109 74.489C43.7303 78.9816 49.3572 81.8036 55.4214 82.4188C61.4855 83.0339 67.5642 81.3991 72.5019 77.8253C77.4395 74.2515 80.8916 68.9878 82.202 63.035C82.29 62.6301 82.5134 62.2674 82.8353 62.0065C83.1573 61.7457 83.5587 61.6023 83.973 61.6001H104.989C105.245 61.6008 105.499 61.6558 105.733 61.7613C105.967 61.8668 106.176 62.0205 106.346 62.2124C106.517 62.4043 106.645 62.6301 106.722 62.8749C106.799 63.1197 106.823 63.378 106.794 63.6329" fill="#0B395A"/>
	<path d="M115.124 53.0024L114.127 53.0831L116.124 53.0024H115.124ZM115.181 61.5432L116.179 61.6106L116.179 61.608L115.181 61.5432ZM115.312 57.6372L116.312 57.6401V57.6372H115.312ZM115.124 52.9739L116.121 52.8927L114.124 52.9739H115.124ZM8.70556 56.9653L7.70565 56.9514L7.70562 56.9544L8.70556 56.9653ZM58.5953 8.44223L58.6089 7.44233L58.6085 7.44232L58.5953 8.44223ZM106.697 50.9697L107.688 50.8381L107.687 50.8337L106.697 50.9697ZM104.898 53.0252V54.0252H104.899L104.898 53.0252ZM83.7906 53.0252L83.7882 54.0252H83.7906V53.0252ZM82.0369 51.6473L83.0079 51.4083L83.0068 51.4041L82.0369 51.6473ZM82.202 63.035L83.1786 63.25L83.1792 63.2475L82.202 63.035ZM83.973 61.6001V60.6001L83.9677 60.6002L83.973 61.6001ZM104.989 61.6001L104.991 60.6001H104.989V61.6001ZM116.121 52.9217C114.896 37.791 107.852 23.7246 96.4706 13.6794L95.1472 15.1789C106.14 24.8816 112.944 38.4684 114.127 53.0831L116.121 52.9217ZM96.4706 13.6794C85.0895 3.63415 70.257 -1.60755 55.0913 -0.943861L55.1787 1.05423C69.8273 0.413167 84.1541 5.47614 95.1472 15.1789L96.4706 13.6794ZM55.0913 -0.943861C39.9256 -0.280172 25.6078 6.23725 15.1477 17.2383L16.5971 18.6165C26.7005 7.99049 40.5302 1.69529 55.1787 1.05423L55.0913 -0.943861ZM15.1477 17.2383C4.68754 28.2394 -1.09989 42.8673 -0.998695 58.0472L1.00126 58.0338C0.903512 43.3716 6.49362 29.2424 16.5971 18.6165L15.1477 17.2383ZM-0.998695 58.0472C-0.897496 73.227 5.08485 87.7765 15.6907 98.6371L17.1216 97.2398C6.87738 86.7494 1.09901 72.6961 1.00126 58.0338L-0.998695 58.0472ZM15.6907 98.6371C26.2966 109.498 40.6999 115.824 55.8731 116.285L55.9339 114.286C41.2781 113.84 27.3659 107.73 17.1216 97.2398L15.6907 98.6371ZM55.8731 116.285C71.0462 116.747 85.8071 111.308 97.0533 101.111L95.71 99.6298C84.8472 109.478 70.5897 114.732 55.9339 114.286L55.8731 116.285ZM97.0533 101.111C108.3 90.9154 115.155 76.7563 116.179 61.6106L114.183 61.4758C113.195 76.105 106.573 89.7813 95.71 99.6298L97.0533 101.111ZM116.179 61.608C116.264 60.3003 116.308 58.9776 116.312 57.6401L114.312 57.6344C114.308 58.9312 114.265 60.2125 114.183 61.4785L116.179 61.608ZM116.312 57.6372C116.312 56.0391 116.248 54.4576 116.121 52.8927L114.127 53.0551C114.25 54.565 114.312 56.0923 114.312 57.6372H116.312ZM114.124 52.9739V53.0024H116.124V52.9739H114.124ZM105.79 63.4749C104.265 75.6994 98.1202 86.877 88.6158 94.7148L89.8883 96.2578C99.7868 88.095 106.187 76.4539 107.775 63.7225L105.79 63.4749ZM88.6158 94.7148C79.1115 102.553 66.9682 106.456 54.677 105.625L54.5421 107.62C67.3429 108.486 79.9898 104.421 89.8883 96.2578L88.6158 94.7148ZM54.677 105.625C42.3859 104.794 30.8787 99.2903 22.5163 90.2442L21.0477 91.6018C29.7569 101.023 41.7412 106.754 54.5421 107.62L54.677 105.625ZM22.5163 90.2442C14.1539 81.198 9.5703 69.2948 9.7055 56.9763L7.70562 56.9544C7.56481 69.7837 12.3384 82.1805 21.0477 91.6018L22.5163 90.2442ZM9.70546 56.9792C10.0736 30.4918 32.093 9.09074 58.582 9.44215L58.6085 7.44232C31.0172 7.0763 8.08913 29.3585 7.70565 56.9514L9.70546 56.9792ZM58.5817 9.44214C70.1223 9.59916 81.224 13.8896 89.8708 21.5344L91.1955 20.0361C82.1901 12.0743 70.6281 7.60585 58.6089 7.44233L58.5817 9.44214ZM89.8708 21.5344C98.5176 29.1792 104.136 39.6714 105.706 51.1058L107.687 50.8337C106.052 38.9252 100.201 27.9979 91.1955 20.0361L89.8708 21.5344ZM105.705 51.1014C105.721 51.217 105.711 51.3341 105.678 51.445L107.592 52.0236C107.708 51.6394 107.741 51.2352 107.688 50.8381L105.705 51.1014ZM105.678 51.445C105.644 51.5563 105.587 51.6591 105.511 51.7466L107.015 53.0639C107.28 52.7621 107.476 52.4074 107.592 52.0236L105.678 51.445ZM105.511 51.7466C105.434 51.8343 105.34 51.9043 105.234 51.9522L106.061 53.7733C106.426 53.6073 106.752 53.3654 107.015 53.0639L105.511 51.7466ZM105.234 51.9522C105.128 52.0003 105.013 52.0251 104.897 52.0252L104.899 54.0252C105.3 54.0249 105.696 53.939 106.061 53.7733L105.234 51.9522ZM104.898 52.0252H83.7906V54.0252H104.898V52.0252ZM83.7931 52.0252C83.6121 52.0248 83.4364 51.9638 83.2941 51.852L82.0585 53.4246C82.5518 53.8122 83.1608 54.0237 83.7882 54.0252L83.7931 52.0252ZM83.2941 51.852C83.1519 51.7402 83.0512 51.5841 83.0079 51.4083L81.0658 51.8863C81.2158 52.4954 81.5651 53.0369 82.0585 53.4246L83.2941 51.852ZM83.0068 51.4041C81.4648 45.2539 77.7164 39.8849 72.4745 36.3178L71.3493 37.9713C76.1857 41.2625 79.6441 46.2161 81.0669 51.8905L83.0068 51.4041ZM72.4745 36.3178C67.2326 32.7507 60.8624 31.2341 54.5755 32.0566L54.8349 34.0397C60.6355 33.2809 66.5129 34.6801 71.3493 37.9713L72.4745 36.3178ZM54.5755 32.0566C48.2885 32.8791 42.5231 35.9832 38.3753 40.7788L39.8879 42.0871C43.7149 37.6626 49.0343 34.7986 54.8349 34.0397L54.5755 32.0566ZM38.3753 40.7788C34.2274 45.5743 31.9867 51.7269 32.0786 58.0668L34.0784 58.0378C33.9936 52.1883 36.0609 46.5117 39.8879 42.0871L38.3753 40.7788ZM32.0786 58.0668C32.1706 64.4066 34.5886 70.4916 38.8738 75.1649L40.3479 73.8132C36.3943 69.5015 34.1632 63.8872 34.0784 58.0378L32.0786 58.0668ZM38.8738 75.1649C43.159 79.8382 49.0123 82.7738 55.3205 83.4137L55.5223 81.4239C49.7021 80.8335 44.3016 78.125 40.3479 73.8132L38.8738 75.1649ZM55.3205 83.4137C61.6286 84.0535 67.9519 82.353 73.0882 78.6354L71.9155 77.0152C67.1766 80.4453 61.3425 82.0142 55.5223 81.4239L55.3205 83.4137ZM73.0882 78.6354C78.2245 74.9177 81.8155 69.4423 83.1786 63.25L81.2254 62.82C79.9677 68.5333 76.6545 73.5852 71.9155 77.0152L73.0882 78.6354ZM83.1792 63.2475C83.2189 63.0648 83.3197 62.9012 83.4649 62.7835L82.2058 61.2296C81.7072 61.6336 81.3612 62.1955 81.2248 62.8225L83.1792 63.2475ZM83.4649 62.7835C83.6101 62.6659 83.7913 62.6011 83.9783 62.6001L83.9677 60.6002C83.3261 60.6036 82.7044 60.8255 82.2058 61.2296L83.4649 62.7835ZM83.973 62.6001H104.989V60.6001H83.973V62.6001ZM104.986 62.6001C105.102 62.6005 105.217 62.6253 105.322 62.6728L106.144 60.8497C105.782 60.6862 105.389 60.6012 104.991 60.6002L104.986 62.6001ZM105.322 62.6728C105.427 62.7204 105.522 62.7897 105.599 62.8764L107.094 61.5484C106.83 61.2513 106.507 61.0131 106.144 60.8497L105.322 62.6728ZM105.599 62.8764C105.675 62.9628 105.733 63.0646 105.768 63.1753L107.676 62.5745C107.556 62.1956 107.358 61.8459 107.094 61.5484L105.599 62.8764ZM105.768 63.1753C105.803 63.2852 105.814 63.4017 105.8 63.5173L107.787 63.7485C107.833 63.3542 107.795 62.9541 107.676 62.5745L105.768 63.1753Z" fill="black" mask="url(#path-1-inside-1)"/>
	<path d="M213.844 41.7231C203.305 41.7231 195.355 49.7344 195.355 60.3592C195.355 70.9839 203.327 78.9952 213.844 78.9952C224.36 78.9952 232.337 70.9839 232.337 60.3592C232.337 49.7344 224.366 41.7231 213.844 41.7231ZM213.844 71.3825C207.86 71.3825 203.344 66.6452 203.344 60.3592C203.344 54.0731 207.86 49.3358 213.844 49.3358C219.828 49.3358 224.349 54.0731 224.349 60.3592C224.349 66.6452 219.834 71.3825 213.844 71.3825Z" fill="#0B395A"/>
	<path d="M185.215 66.4117C185.118 66.3448 184.999 66.3175 184.883 66.3355C184.766 66.3535 184.661 66.4154 184.589 66.5085C182.032 69.7426 178.855 71.3825 175.148 71.3825C168.612 71.3825 164.051 66.8274 164.051 60.3592C164.051 54.0959 168.606 49.3358 174.704 49.3358C179.259 49.3358 182.197 52.1144 183.678 54.0219C183.715 54.0709 183.762 54.1119 183.815 54.1423C183.869 54.1728 183.928 54.1921 183.99 54.199C184.051 54.2059 184.112 54.2003 184.171 54.1826C184.23 54.1649 184.285 54.1354 184.333 54.0959L189.571 49.7629C189.663 49.687 189.723 49.5786 189.738 49.4599C189.753 49.3413 189.721 49.2215 189.651 49.1252C187.897 46.824 185.636 44.9588 183.044 43.6748C180.451 42.3909 177.597 41.723 174.704 41.7231C164.079 41.7231 156.068 49.7344 156.068 60.3592C156.068 70.9839 164.273 78.9952 175.148 78.9952C181.491 78.9952 187.72 75.7895 190.818 70.9782C190.88 70.8783 190.902 70.7584 190.878 70.643C190.855 70.5276 190.789 70.4255 190.693 70.3575L185.215 66.4117Z" fill="#0B395A"/>
	<path d="M486.99 56.3449C483.442 55.4396 481.113 54.6994 481.113 52.7237C481.113 50.0362 484.137 48.8177 486.944 48.8177C489.416 48.8653 491.808 49.6967 493.777 51.192C493.825 51.2276 493.88 51.2533 493.938 51.2677C493.996 51.2821 494.057 51.2849 494.116 51.2759C494.175 51.2669 494.232 51.2463 494.283 51.2153C494.334 51.1843 494.379 51.1435 494.414 51.0952L498.093 46.0448C498.163 45.9469 498.194 45.8257 498.178 45.7061C498.162 45.5864 498.101 45.4774 498.007 45.4014C494.83 42.9587 490.958 41.7231 486.494 41.7231C480.054 41.7231 473.125 45.2818 473.125 53.1109C473.125 57.4553 476.006 60.7121 481.455 62.5285C482.697 62.9384 483.961 63.263 485.185 63.5762C489.432 64.6637 492.017 65.4608 492.017 68.0117C492.017 70.46 489.17 71.9176 486.403 71.9176C483.163 71.9176 479.838 70.722 476.758 68.4444C476.71 68.4079 476.654 68.3815 476.596 68.3666C476.537 68.3517 476.476 68.3486 476.416 68.3577C476.356 68.3667 476.298 68.3875 476.246 68.419C476.195 68.4506 476.15 68.4921 476.115 68.5412L472.425 73.7283C472.356 73.8264 472.328 73.9467 472.345 74.0651C472.361 74.1834 472.423 74.291 472.516 74.366C476.53 77.4647 481.481 79.1034 486.551 79.0122C493.071 79.0122 500 75.1062 500 67.8636C500 59.71 490.89 57.3642 486.967 56.362" fill="#0B395A"/>
	<path d="M284.146 41.7228C277.883 41.7228 274.085 44.2736 271.233 46.9725C271.189 47.0136 271.137 47.0455 271.081 47.0663C271.025 47.0872 270.965 47.0965 270.905 47.0939C270.845 47.0912 270.786 47.0766 270.732 47.0508C270.677 47.0251 270.629 46.9888 270.589 46.944C267.9 44.0006 264.212 42.1637 260.242 41.791C256.273 41.4184 252.307 42.5369 249.118 44.9284C249.089 44.9527 249.054 44.9681 249.017 44.9729C248.979 44.9777 248.942 44.9715 248.908 44.9553C248.874 44.939 248.846 44.9132 248.826 44.8812C248.807 44.8491 248.797 44.8122 248.799 44.7747V42.9014C248.799 42.7791 248.75 42.6618 248.663 42.5753C248.577 42.4888 248.46 42.4401 248.338 42.4401H241.505C241.383 42.4401 241.265 42.4888 241.179 42.5753C241.092 42.6618 241.043 42.7791 241.043 42.9014V77.7706C241.043 77.8929 241.092 78.0102 241.179 78.0967C241.265 78.1832 241.383 78.2318 241.505 78.2318H248.565C248.687 78.2318 248.805 78.1832 248.891 78.0967C248.978 78.0102 249.027 77.8929 249.027 77.7706V54.1582C249.024 54.0476 249.062 53.94 249.134 53.8564C250.507 52.3076 253.758 49.3013 258.347 49.3013C259.555 49.2878 260.75 49.5351 261.853 50.0265C262.955 50.5179 263.939 51.2416 264.736 52.1482C266.063 53.7026 266.626 55.7012 266.626 58.8157V77.7308C266.626 77.8531 266.674 77.9704 266.761 78.0569C266.847 78.1434 266.965 78.1919 267.087 78.1919H274.148C274.27 78.1919 274.387 78.1434 274.474 78.0569C274.56 77.9704 274.609 77.8531 274.609 77.7308V59.983C274.628 58.0466 274.458 56.1129 274.102 54.2094C274.088 54.1369 274.092 54.0619 274.113 53.9914C274.135 53.9208 274.175 53.8568 274.227 53.8052C276.385 51.6529 279.449 49.3298 284.152 49.3298C285.325 49.326 286.485 49.5788 287.55 50.0706C288.615 50.5624 289.56 51.2813 290.318 52.1767C291.645 53.7311 292.209 55.7297 292.209 58.8442V77.7592C292.209 77.8815 292.257 77.9988 292.344 78.0853C292.43 78.1718 292.547 78.2204 292.67 78.2204H299.73C299.853 78.2204 299.97 78.1718 300.056 78.0853C300.143 77.9988 300.191 77.8815 300.191 77.7592V59.983C300.191 54.2891 299.207 50.6166 296.901 47.7526C295.371 45.8476 293.428 44.3147 291.22 43.2693C289.012 42.2238 286.595 41.6931 284.152 41.7171" fill="#0B395A"/>
	<path d="M421.015 71.4052C420.988 71.2898 420.917 71.1895 420.817 71.1257C420.718 71.0619 420.597 71.0396 420.481 71.0635C419.393 71.2675 418.29 71.3742 417.184 71.3824C415.333 71.3824 413.545 70.7105 412.719 69.6743C411.951 68.7803 411.791 67.3967 411.791 65.5348V50.1614C411.791 50.0391 411.84 49.9217 411.926 49.8353C412.013 49.7488 412.13 49.7001 412.253 49.7001H418.624C418.684 49.7001 418.744 49.6882 418.8 49.665C418.855 49.6417 418.906 49.6076 418.948 49.5647C418.99 49.5218 419.024 49.4709 419.046 49.415C419.069 49.3591 419.081 49.2993 419.08 49.239V42.9017C419.081 42.8414 419.069 42.7816 419.046 42.7256C419.024 42.6697 418.99 42.6188 418.948 42.5759C418.906 42.533 418.855 42.4989 418.8 42.4757C418.744 42.4524 418.684 42.4405 418.624 42.4405H412.253C412.13 42.4405 412.013 42.3919 411.926 42.3054C411.84 42.2189 411.791 42.1016 411.791 41.9793V33.2619C411.792 33.2017 411.781 33.1418 411.758 33.0859C411.736 33.03 411.702 32.9791 411.66 32.9362C411.618 32.8933 411.567 32.8593 411.512 32.836C411.456 32.8128 411.396 32.8008 411.336 32.8008H404.27C404.147 32.8008 404.03 32.8493 403.944 32.9358C403.857 33.0223 403.809 33.1396 403.809 33.2619V41.9793C403.809 42.0396 403.798 42.0994 403.775 42.1553C403.753 42.2113 403.72 42.2622 403.677 42.3051C403.635 42.348 403.585 42.382 403.529 42.4053C403.473 42.4285 403.414 42.4405 403.353 42.4405H397.244C397.183 42.4405 397.123 42.4524 397.068 42.4757C397.012 42.4989 396.962 42.533 396.919 42.5759C396.877 42.6188 396.843 42.6697 396.821 42.7256C396.798 42.7816 396.787 42.8414 396.788 42.9017V49.2219C396.787 49.2822 396.798 49.342 396.821 49.3979C396.843 49.4538 396.877 49.5047 396.919 49.5476C396.962 49.5905 397.012 49.6246 397.068 49.6479C397.123 49.6711 397.183 49.6831 397.244 49.6831H403.353C403.414 49.6831 403.473 49.695 403.529 49.7183C403.585 49.7415 403.635 49.7756 403.677 49.8185C403.72 49.8614 403.753 49.9123 403.775 49.9682C403.798 50.0241 403.809 50.084 403.809 50.1443V65.159C403.809 69.418 404.771 72.5611 406.747 74.7361C409.195 77.509 412.725 78.9723 416.961 78.9723C418.724 78.9815 420.48 78.7673 422.189 78.3346C422.305 78.3002 422.404 78.2211 422.462 78.1144C422.521 78.0077 422.535 77.8822 422.502 77.7652L421.015 71.4052Z" fill="#0B395A"/>
	<path d="M463.241 42.4634H456.408C456.286 42.4634 456.168 42.512 456.082 42.5985C455.995 42.685 455.947 42.8023 455.947 42.9246V44.8092C455.947 44.8394 455.938 44.8689 455.922 44.8944C455.906 44.92 455.883 44.9407 455.856 44.9542C455.829 44.9677 455.798 44.9735 455.768 44.971C455.738 44.9686 455.709 44.9579 455.685 44.9402C452.736 42.7896 449.166 41.6602 445.516 41.7232C442.442 41.6833 439.413 42.4699 436.747 44.0008C433.945 45.6987 431.627 48.0889 430.016 50.9416C428.405 53.7944 427.554 57.0137 427.547 60.29C427.539 63.5663 428.375 66.7895 429.973 69.6495C431.572 72.5095 433.879 74.9102 436.673 76.6209C439.418 78.1673 442.514 78.9811 445.664 78.9838C449.254 79.023 452.761 77.9072 455.668 75.801C455.694 75.7802 455.724 75.7672 455.757 75.7634C455.789 75.7597 455.822 75.7653 455.852 75.7797C455.881 75.7941 455.905 75.8166 455.922 75.8446C455.939 75.8726 455.948 75.9049 455.947 75.9376V77.7824C455.947 77.9047 455.995 78.0221 456.082 78.1085C456.168 78.195 456.286 78.2436 456.408 78.2436H463.241C463.363 78.2436 463.48 78.195 463.567 78.1085C463.653 78.0221 463.702 77.9047 463.702 77.7824V42.9018C463.702 42.7795 463.653 42.6622 463.567 42.5757C463.48 42.4892 463.363 42.4406 463.241 42.4406V42.4634ZM455.719 66.5427C455.72 66.6486 455.684 66.7514 455.617 66.8331C454.56 68.222 453.201 69.3533 451.644 70.1422C450.087 70.9311 448.372 71.3571 446.626 71.3882C445.169 71.4095 443.722 71.1395 442.37 70.5941C441.019 70.0486 439.79 69.2387 438.756 68.2119C437.722 67.1851 436.903 65.962 436.348 64.6145C435.793 63.267 435.513 61.8223 435.523 60.3649C435.523 54.1017 440.135 49.3416 446.251 49.3416C448.052 49.3575 449.827 49.7745 451.447 50.5625C453.067 51.3504 454.492 52.4894 455.617 53.8967C455.684 53.9806 455.72 54.0852 455.719 54.1927V66.5427Z" fill="#0B395A"/>
	<path d="M338.072 44.0404C335.408 42.5098 332.382 41.7231 329.31 41.7629C325.674 41.6982 322.116 42.8195 319.174 44.9572C319.147 44.9789 319.114 44.9925 319.08 44.9962C319.045 44.9999 319.01 44.9936 318.979 44.978C318.948 44.9624 318.922 44.9382 318.904 44.9083C318.886 44.8784 318.877 44.8439 318.878 44.8091V42.9017C318.878 42.7794 318.83 42.662 318.743 42.5756C318.657 42.4891 318.54 42.4404 318.418 42.4404H311.585C311.525 42.4404 311.465 42.4524 311.409 42.4757C311.354 42.4989 311.303 42.533 311.261 42.5759C311.218 42.6188 311.185 42.6697 311.162 42.7256C311.14 42.7815 311.128 42.8414 311.129 42.9017V95.5699C311.129 95.6907 311.177 95.8066 311.262 95.892C311.348 95.9774 311.464 96.0255 311.585 96.0255H318.651C318.772 96.0255 318.888 95.9776 318.975 95.8924C319.061 95.8071 319.111 95.6913 319.112 95.5699V76.0684C319.111 76.0352 319.12 76.0024 319.138 75.974C319.155 75.9455 319.18 75.9226 319.209 75.9077C319.239 75.8928 319.272 75.8866 319.306 75.8899C319.339 75.8931 319.37 75.9057 319.397 75.9261C322.238 77.9722 325.667 79.0411 329.167 78.9723C332.318 78.9696 335.414 78.1558 338.158 76.6093C340.952 74.8987 343.26 72.498 344.858 69.638C346.456 66.7779 347.291 63.5548 347.284 60.2785C347.276 57.0021 346.426 53.7829 344.815 50.9302C343.204 48.0774 340.886 45.6871 338.084 43.9892L338.072 44.0404ZM328.194 71.371C326.448 71.3403 324.731 70.9146 323.173 70.1257C321.615 69.3368 320.255 68.2052 319.197 66.8159C319.134 66.7321 319.1 66.6302 319.1 66.5255V54.1186C319.099 54.011 319.136 53.9065 319.203 53.8225C320.327 52.4154 321.75 51.2764 323.369 50.4884C324.988 49.7005 326.763 49.2834 328.564 49.2674C334.679 49.2674 339.291 54.0047 339.291 60.2908C339.302 61.7476 339.022 63.1919 338.467 64.5391C337.912 65.8862 337.094 67.1089 336.06 68.1357C335.027 69.1624 333.798 69.9725 332.448 70.5182C331.097 71.064 329.651 71.3346 328.194 71.3141" fill="#0B395A"/>
	<path d="M388.344 42.4627H381.283C381.161 42.4627 381.044 42.5114 380.957 42.5979C380.871 42.6843 380.822 42.8017 380.822 42.924V66.5364C380.825 66.648 380.784 66.7564 380.708 66.8382C379.342 68.3869 376.09 71.3933 371.501 71.3933C370.294 71.406 369.099 71.1583 367.996 70.667C366.894 70.1757 365.91 69.4524 365.113 68.5464C363.786 66.9862 363.222 64.9933 363.222 61.8845V42.9012C363.222 42.7789 363.174 42.6616 363.087 42.5751C363.001 42.4886 362.884 42.4399 362.761 42.4399H355.701C355.578 42.4399 355.461 42.4886 355.375 42.5751C355.288 42.6616 355.24 42.7789 355.24 42.9012V60.7059C355.24 66.3998 356.224 70.0723 358.53 72.9363C360.06 74.8412 362.003 76.3741 364.211 77.4196C366.419 78.465 368.836 78.9958 371.279 78.9718C374.698 78.9214 378.016 77.8113 380.777 75.7946C380.801 75.7749 380.831 75.7628 380.863 75.7597C380.894 75.7565 380.926 75.7625 380.954 75.7769C380.983 75.7913 381.006 75.8135 381.022 75.8409C381.038 75.8682 381.045 75.8996 381.044 75.9313V77.7704C381.044 77.8927 381.093 78.01 381.179 78.0965C381.266 78.183 381.383 78.2316 381.505 78.2316H388.338C388.46 78.2316 388.577 78.183 388.664 78.0965C388.75 78.01 388.799 77.8927 388.799 77.7704V42.9012C388.799 42.7789 388.75 42.6616 388.664 42.5751C388.577 42.4886 388.46 42.4399 388.338 42.4399" fill="#0B395A"/>
</svg>
