<svg id="Artwork" xmlns="http://www.w3.org/2000/svg" viewBox="0 0 387.37 157.52"><defs><style>.cls-1{fill:#86bc25;}</style></defs><path class="cls-1" d="M320.39,98.06a7.52,7.52,0,1,1,7.51,7.51,7.51,7.51,0,0,1-7.51-7.51"/><path d="M95,77.67q0,13-7,20t-19.66,7H52V52.79H69.51q12.21,0,18.86,6.4T95,77.67m-14.22.49Q80.79,71,78,67.57t-8.38-3.44h-4v29.1h3q6.24,0,9.16-3.72t2.92-11.35"/><rect x="140.47" y="52.57" width="13.06" height="52.17"/><path d="M196.39,85.28q0,9.51-5,14.83t-14,5.32q-8.62,0-13.71-5.44t-5.1-14.71q0-9.47,5-14.72t14-5.25a19.6,19.6,0,0,1,9.85,2.43,16.44,16.44,0,0,1,6.6,7,23,23,0,0,1,2.32,10.58m-24.52,0a17.52,17.52,0,0,0,1.31,7.61,4.51,4.51,0,0,0,4.37,2.62,4.39,4.39,0,0,0,4.29-2.62,18.1,18.1,0,0,0,1.25-7.61,17.38,17.38,0,0,0-1.26-7.49,5,5,0,0,0-8.65,0q-1.31,2.5-1.31,7.5"/><rect x="201.57" y="65.99" width="13.06" height="38.75"/><rect x="201.57" y="52.57" width="13.06" height="8.73"/><path d="M241.09,94.86a19.07,19.07,0,0,0,6.32-1.34v9.75a25.89,25.89,0,0,1-5,1.66,27.84,27.84,0,0,1-5.6.5q-6.57,0-9.48-3.31T224.4,92V76h-4.58V66h4.58V56.1l13.15-2.29V66h8.34V76h-8.34V91.1c0,2.5,1.19,3.76,3.54,3.76"/><path d="M271.32,94.86a19,19,0,0,0,6.31-1.34v9.75a25.6,25.6,0,0,1-5,1.66,27.91,27.91,0,0,1-5.6.5c-4.38,0-7.55-1.11-9.48-3.31s-2.91-5.58-2.91-10.13V76h-4.57V66h4.57V56l13.16-2.14V66h8.34V76h-8.34V91.1c0,2.5,1.18,3.76,3.54,3.76"/><path d="M312.53,69.88q-4.65-4.57-13.21-4.57-9,0-13.82,5.25t-4.85,15.06q0,9.51,5.23,14.66t14.68,5.15a42.81,42.81,0,0,0,7.81-.62,22.79,22.79,0,0,0,6.31-2.2l-2-8.74a25.6,25.6,0,0,1-10.54,2,8.93,8.93,0,0,1-6-1.85,6.66,6.66,0,0,1-2.32-5.1h23.34V83q0-8.59-4.66-13.15M294.11,80.56a7.13,7.13,0,0,1,1.82-4.67,5.37,5.37,0,0,1,3.86-1.48,5.05,5.05,0,0,1,4,1.67,6.74,6.74,0,0,1,1.55,4.48Z"/><path d="M130.76,69.88q-4.65-4.57-13.21-4.57-9,0-13.82,5.25T98.88,85.62q0,9.51,5.23,14.66t14.68,5.15a43,43,0,0,0,7.82-.62,22.73,22.73,0,0,0,6.3-2.2l-2-8.74a25.71,25.71,0,0,1-10.55,2,9,9,0,0,1-6-1.85,6.69,6.69,0,0,1-2.32-5.1h23.34V83q0-8.59-4.66-13.15M112.34,80.56a7.13,7.13,0,0,1,1.82-4.67A5.37,5.37,0,0,1,118,74.41a5.05,5.05,0,0,1,4,1.67,6.8,6.8,0,0,1,1.56,4.48Z"/></svg>