<svg height="226.871303" viewBox="0 0 72.019996 36.984748" width="440.778532" xmlns="http://www.w3.org/2000/svg"><g transform="matrix(.007824387 0 0 -.007824387 .1323 36.85245)"><path d="m0 0h9170.74v4693.04h-9170.74z" fill="#007582"/><g fill="#fff"><path d="m7166.7 1291.43h-685.98v1000.93h781.11c340.62 0 578.51-191.56 578.51-465.82 0-132.36 0-535.11-673.64-535.11zm-685.98 2110.22h580.36c204.33 0 356.88-34.58 453.46-102.77 63.12-44.54 147.06-128.86 147.06-345.8 0-388.48-305.99-418.67-399.77-418.67h-781.11zm1529.41-1932.5c47.95 102.58 72.27 222.83 72.27 357.39 0 204.81-87.21 389.09-245.57 518.89-40.66 33.36-86.29 63.11-135.61 88.42l-13.07 6.7 11.02 9.7c93.29 82.17 204.49 236.12 204.49 502.83 0 243.81-83.95 426.68-249.51 543.54-140.22 98.98-334.21 147.08-593.07 147.08h-743.8c-43.23 0-78.51-35.18-78.62-78.42v-2437.32c0-43.29 35.24-78.56 78.56-78.62h849.48c267.67 0 482.07 57.3 637.26 170.32 90 65.54 159.37 149.47 206.17 249.49"/><path d="m5582.61 1037.84c7.91 0 15.74 1.26 23.29 3.74 30.6 10.05 51.15 38.45 51.15 70.67v3580.79h-242.66v-3095.15l-1595.94 2034.58c-14.13 19.16-36.49 30.46-60.02 30.46-7.91 0-15.75-1.26-23.31-3.75-30.56-10.07-51.11-38.46-51.11-70.66v-3588.52h242.62v3101.57l1595.97-2033.28c14.13-19.15 36.51-30.45 60.01-30.45"/><path d="m2043.22 1291.4h-541.95v2110.25h541.95c199.03 0 478.32-51.56 678.54-297.2 215.13-263.92 231.85-658.64 231.85-773.32-.04-171.14-30.22-495.16-231.85-742.53-200.21-245.64-479.5-297.2-678.54-297.2zm866.14 144.26c248.95 305.39 286.23 692.1 286.3 895.43 0 172.92-27.9 609.34-286.3 926.3-109.48 134.31-247.33 235.69-409.74 301.3-139.61 56.41-293.17 85.01-456.4 85.01h-705.4c-43.35 0-78.63-35.27-78.63-78.62v-2437.12c0-43.29 35.23-78.56 78.53-78.62h705.5c163.19 0 316.75 28.61 456.4 85.04 162.39 65.59 300.25 166.96 409.74 301.28"/></g></g></svg>