<?xml version="1.0" encoding="UTF-8" standalone="no"?>
<!-- Created with Inkscape (http://www.inkscape.org/) -->

<svg
   xmlns:dc="http://purl.org/dc/elements/1.1/"
   xmlns:cc="http://creativecommons.org/ns#"
   xmlns:rdf="http://www.w3.org/1999/02/22-rdf-syntax-ns#"
   xmlns:svg="http://www.w3.org/2000/svg"
   xmlns="http://www.w3.org/2000/svg"
   xmlns:sodipodi="http://sodipodi.sourceforge.net/DTD/sodipodi-0.dtd"
   xmlns:inkscape="http://www.inkscape.org/namespaces/inkscape"
   id="svg2985"
   version="1.1"
   inkscape:version="0.48.5 r10040"
   width="1000"
   height="822.44281"
   xml:space="preserve"
   sodipodi:docname="energy-perspectives-2018.pdf"><metadata
     id="metadata2991"><rdf:RDF><cc:Work
         rdf:about=""><dc:format>image/svg+xml</dc:format><dc:type
           rdf:resource="http://purl.org/dc/dcmitype/StillImage" /><dc:title></dc:title></cc:Work></rdf:RDF></metadata><defs
     id="defs2989"><clipPath
       clipPathUnits="userSpaceOnUse"
       id="clipPath2999"><path
         d="m 0,0 595.275,0 0,841.89 L 0,841.89 0,0 z"
         id="path3001"
         inkscape:connector-curvature="0" /></clipPath><clipPath
       clipPathUnits="userSpaceOnUse"
       id="clipPath3023"><path
         d="m 417.769,686.102 119.552,0 0,98.645 -119.552,0 0,-98.645 z"
         id="path3025"
         inkscape:connector-curvature="0" /></clipPath><clipPath
       clipPathUnits="userSpaceOnUse"
       id="clipPath3067"><path
         d="m 0,0 595.275,0 0,841.89 L 0,841.89 0,0 z"
         id="path3069"
         inkscape:connector-curvature="0" /></clipPath><clipPath
       clipPathUnits="userSpaceOnUse"
       id="clipPath3097"><path
         d="m 0,0 595.275,0 0,841.89 L 0,841.89 0,0 z"
         id="path3099"
         inkscape:connector-curvature="0" /></clipPath></defs><sodipodi:namedview
     pagecolor="#ffffff"
     bordercolor="#666666"
     borderopacity="1"
     objecttolerance="10"
     gridtolerance="10"
     guidetolerance="10"
     inkscape:pageopacity="0"
     inkscape:pageshadow="2"
     inkscape:window-width="1023"
     inkscape:window-height="1028"
     id="namedview2987"
     showgrid="false"
     fit-margin-top="0"
     fit-margin-left="0"
     fit-margin-right="0"
     fit-margin-bottom="0"
     inkscape:zoom="0.18199007"
     inkscape:cx="1615.5756"
     inkscape:cy="-177.35657"
     inkscape:window-x="893"
     inkscape:window-y="-8"
     inkscape:window-maximized="0"
     inkscape:current-layer="g2993"><inkscape:grid
       type="xygrid"
       id="grid3128"
       empspacing="5"
       visible="true"
       enabled="true"
       snapvisiblegridlinesonly="true"
       originx="-1066.1979px"
       originy="-1159.8426px" /></sodipodi:namedview><g
     id="g2993"
     inkscape:groupmode="layer"
     inkscape:label="energy-perspectives-2018"
     transform="matrix(1.25,0,0,-1.25,-1066.1979,1982.2853)"><g
       id="g3019"
       style="fill:#f10044;fill-opacity:1"
       transform="matrix(6.691688,0,0,6.691688,-1942.6262,-3663.3105)"><g
         id="g3021"
         clip-path="url(#clipPath3023)"
         style="fill:#f10044;fill-opacity:1"><g
           id="g3027"
           transform="translate(519.3423,707.6833)"
           style="fill:#f10044;fill-opacity:1"><path
             d="m 0,0 c -0.127,0.318 -0.398,0.434 -0.699,0.255 -0.302,-0.18 -5.977,-3.561 -5.977,-3.561 l 0,3.115 c 0,0.35 -0.222,0.477 -0.54,0.35 L -9.06,-0.508 c -0.254,-0.096 -0.35,-0.287 -0.35,-0.541 l 0,-13.698 c 0,-0.286 0.191,-0.476 0.477,-0.476 l 1.78,0 c 0.287,0 0.477,0.19 0.477,0.476 l 0,8.391 c 0,0 6.691,4.129 6.962,4.291 0.271,0.162 0.41,0.3 0.286,0.604 C 0.437,-1.127 0,0 0,0"
             style="fill:#f10044;fill-opacity:1;fill-rule:nonzero;stroke:none"
             id="path3029"
             inkscape:connector-curvature="0" /></g><g
           id="g3031"
           transform="translate(420.7897,701.9014)"
           style="fill:#f10044;fill-opacity:1"><path
             d="M 0,0 C 0.604,2.193 2.32,3.528 4.736,3.528 7.375,3.528 8.774,1.971 8.901,0 L 0,0 z m 11.794,-0.827 c 0,3.815 -2.607,7.026 -6.962,7.026 -4.292,0 -7.852,-3.084 -7.852,-8.106 0,-4.578 2.988,-7.916 8.011,-7.916 2.289,0 4.577,0.795 6.294,2.321 0.223,0.19 0.223,0.445 0.064,0.667 L 10.49,-5.5 c -0.159,0.255 -0.413,0.287 -0.667,0.096 -1.558,-1.145 -3.147,-1.717 -4.832,-1.717 -3.211,0 -4.959,2.098 -5.182,4.737 l 11.515,0 c 0.294,0 0.47,0.213 0.47,0.47 l 0,1.087 z"
             style="fill:#f10044;fill-opacity:1;fill-rule:nonzero;stroke:none"
             id="path3033"
             inkscape:connector-curvature="0" /></g><g
           id="g3035"
           transform="translate(442.6112,694.7806)"
           style="fill:#f10044;fill-opacity:1"><path
             d="m 0,0 c -2.702,0 -5.023,1.844 -5.023,5.341 0,3.497 2.321,5.308 5.023,5.308 2.829,0 5.023,-1.811 5.023,-5.308 C 5.023,1.812 2.829,0 0,0 m 5.468,-8.678 1.78,0 c 0.286,0 0.477,0.19 0.477,0.477 l 0,20.917 c 0,0.35 -0.222,0.476 -0.572,0.35 L 5.341,12.398 C 5.086,12.302 4.991,12.112 4.991,11.857 l 0,-0.667 c -0.985,1.335 -2.925,2.13 -5.023,2.13 -4.164,0 -7.788,-3.116 -7.788,-8.011 0,-4.323 2.797,-8.011 7.629,-8.011 2.194,0 4.292,0.985 5.182,2.098 l 0,-7.597 c 0,-0.287 0.191,-0.477 0.477,-0.477"
             style="fill:#f10044;fill-opacity:1;fill-rule:nonzero;stroke:none"
             id="path3037"
             inkscape:connector-curvature="0" /></g><g
           id="g3039"
           transform="translate(459.3917,692.0787)"
           style="fill:#f10044;fill-opacity:1"><path
             d="m 0,0 c 1.653,0 3.465,0.54 4.641,2.257 l 0,-1.399 c 0,-0.286 0.191,-0.477 0.477,-0.477 l 1.78,0 c 0.287,0 0.477,0.191 0.477,0.477 l 0,14.528 c 0,0.381 -0.222,0.508 -0.541,0.381 L 4.991,15.1 C 4.737,15.004 4.641,14.814 4.641,14.559 l 0,-7.629 c 0,-2.702 -1.748,-4.228 -4.132,-4.228 -2.353,0 -3.942,1.494 -3.942,4.228 l 0,8.488 c 0,0.349 -0.223,0.476 -0.54,0.349 L -5.817,15.1 c -0.255,-0.096 -0.35,-0.286 -0.35,-0.541 l 0,-7.724 C -6.167,2.32 -3.433,0 0,0"
             style="fill:#f10044;fill-opacity:1;fill-rule:nonzero;stroke:none"
             id="path3041"
             inkscape:connector-curvature="0" /></g><g
           id="g3043"
           transform="translate(470.4858,709.4671)"
           style="fill:#f10044;fill-opacity:1"><path
             d="M 0,0 1.939,0.636 C 2.257,0.731 2.384,0.89 2.384,1.208 l 0,2.32 c 0,0.287 -0.223,0.509 -0.572,0.382 L -0.096,3.21 C -0.381,3.116 -0.54,2.988 -0.54,2.671 l 0,-2.226 C -0.54,0.096 -0.35,-0.127 0,0"
             style="fill:#f10044;fill-opacity:1;fill-rule:nonzero;stroke:none"
             id="path3045"
             inkscape:connector-curvature="0" /></g><g
           id="g3047"
           transform="translate(470.5178,692.4601)"
           style="fill:#f10044;fill-opacity:1"><path
             d="m 0,0 1.78,0 c 0.286,0 0.477,0.191 0.477,0.477 l 0,14.559 c 0,0.35 -0.223,0.477 -0.54,0.35 l -1.844,-0.668 c -0.255,-0.095 -0.35,-0.286 -0.35,-0.54 l 0,-13.701 C -0.477,0.191 -0.286,0 0,0"
             style="fill:#f10044;fill-opacity:1;fill-rule:nonzero;stroke:none"
             id="path3049"
             inkscape:connector-curvature="0" /></g><g
           id="g3051"
           transform="translate(476.5251,692.4601)"
           style="fill:#f10044;fill-opacity:1"><path
             d="m 0,0 1.78,0 c 0.286,0 0.477,0.191 0.477,0.477 l 0,8.233 c 0,2.702 1.748,4.228 4.133,4.228 2.352,0 3.941,-1.494 3.941,-4.228 l 0,-8.233 C 10.331,0.191 10.522,0 10.808,0 l 1.781,0 c 0.286,0 0.477,0.191 0.477,0.477 l 0,8.328 c 0,4.514 -2.735,6.835 -6.168,6.835 -1.653,0 -3.465,-0.54 -4.641,-2.257 l 0,1.653 c 0,0.35 -0.222,0.477 -0.54,0.35 l -1.844,-0.668 c -0.254,-0.095 -0.35,-0.286 -0.35,-0.54 l 0,-13.701 C -0.477,0.191 -0.286,0 0,0"
             style="fill:#f10044;fill-opacity:1;fill-rule:nonzero;stroke:none"
             id="path3053"
             inkscape:connector-curvature="0" /></g><g
           id="g3055"
           transform="translate(499.7773,694.7489)"
           style="fill:#f10044;fill-opacity:1"><path
             d="m 0,0 c -3.147,0 -5.054,2.352 -5.054,5.34 0,2.989 1.907,5.341 5.054,5.341 3.116,0 5.023,-2.352 5.023,-5.341 C 5.023,2.352 3.116,0 0,0 m 0,13.351 c -4.578,0 -7.852,-3.401 -7.852,-8.011 0,-4.609 3.274,-8.01 7.852,-8.01 4.578,0 7.82,3.401 7.82,8.01 0,4.61 -3.242,8.011 -7.82,8.011"
             style="fill:#f10044;fill-opacity:1;fill-rule:nonzero;stroke:none"
             id="path3057"
             inkscape:connector-curvature="0" /></g><g
           id="g3059"
           transform="translate(492.0353,771.5687)"
           style="fill:#f10044;fill-opacity:1"><path
             d="m 0,0 0,-16.244 c 0,-0.481 0.241,-0.926 0.658,-1.166 l 14.075,-8.109 c 0.597,-0.344 1.359,0.087 1.36,0.776 l 0,16.244 c 0,0.481 -0.257,0.926 -0.674,1.166 L 1.344,0.776 C 0.747,1.12 0.001,0.69 0,0 M 43.353,12.684 23.089,1.01 c -0.601,-0.346 -0.97,-0.986 -0.97,-1.679 l 0,-23.386 c 0.002,-0.992 1.097,-1.612 1.957,-1.117 l 20.264,11.674 c 0.6,0.346 0.947,0.986 0.947,1.679 l 0,23.386 c -10e-4,0.992 -1.074,1.612 -1.934,1.117 M 15.555,-37.055 9.923,-40.299 c -0.167,-0.096 -0.269,-0.274 -0.269,-0.467 l 0,-6.499 c 0,-0.276 0.305,-0.448 0.544,-0.31 l 5.631,3.244 c 0.167,0.096 0.264,0.274 0.264,0.467 l 0,6.499 c 0,0.276 -0.299,0.448 -0.538,0.31 m -3.282,5.997 -8.434,4.88 c -0.25,0.144 -0.558,0.144 -0.808,0 l -8.433,-4.88 c -0.358,-0.207 -0.358,-0.723 0,-0.931 l 8.433,-4.879 c 0.25,-0.145 0.558,-0.145 0.808,0 l 8.434,4.879 c 0.358,0.208 0.358,0.724 0,0.931 m 13.577,-0.879 3.747,-2.168 c 0.222,-0.129 0.496,-0.129 0.718,0 l 3.747,2.168 c 0.318,0.184 0.318,0.643 0,0.827 l -3.747,2.168 c -0.222,0.129 -0.496,0.129 -0.718,0 L 25.85,-31.11 c -0.318,-0.184 -0.318,-0.643 0,-0.827 m -3.014,-5.219 3.751,-2.161 c 0.222,-0.127 0.359,-0.365 0.359,-0.621 l -0.004,-4.329 c -0.001,-0.368 -0.398,-0.597 -0.717,-0.414 l -3.751,2.161 c -0.222,0.128 -0.354,0.366 -0.354,0.622 l -0.001,4.329 c 0,0.367 0.399,0.597 0.717,0.413"
             style="fill:#f10044;fill-opacity:1;fill-rule:nonzero;stroke:none"
             id="path3061"
             inkscape:connector-curvature="0" /></g></g></g><g
       id="g3063"><g
         id="g3065"
         clip-path="url(#clipPath3067)"><text
           transform="matrix(0,1,1,0,-22.6766,56.2438)"
           id="text3071"><tspan
             style="font-size:6px;font-variant:normal;font-weight:300;font-stretch:normal;writing-mode:lr-tb;fill:#ffffff;fill-opacity:1;fill-rule:nonzero;stroke:none;font-family:'OSIDB E+ Equinor Beta';-inkscape-font-specification:EquinorBeta-Light"
             x="0 3.2460001 6.3540001 9.6359997 11.526 14.946 17.694 19.014 22.103399 25.385401 27.4074 29.9634 33.401402 36.683399 39.707401 41.657398 42.761398 45.401402 48.683399 51.239399 52.559399 55.7034 59.669399 62.009399 65.321404 66.245399 67.565399 71.723396 76.282799 79.636803 82.264801 84.604797 87.916801 91.882797 94.162804 97.648804"
             y="0"
             sodipodi:role="line"
             id="tspan3073">Energy Perspectives 2018. COS-180194</tspan></text>
<text
           transform="matrix(1,0,0,-1,-538.5822,93.9131)"
           id="text3075"><tspan
             style="font-size:10px;font-variant:normal;font-weight:500;font-stretch:normal;writing-mode:lr-tb;fill:#ffffff;fill-opacity:1;fill-rule:nonzero;stroke:none;font-family:'OSIDB E+ Equinor Beta';-inkscape-font-specification:EquinorBeta-Medium"
             x="0 5.29 11.22 16.6 18.719999 24.1 29.91 34.060001 36.259998 43.369999 48.959999"
             y="0"
             sodipodi:role="line"
             id="tspan3077">Equinor ASA</tspan></text>
<text
           transform="matrix(1,0,0,-1,-538.5822,80.2438)"
           id="text3079"><tspan
             style="font-size:6.5px;font-variant:normal;font-weight:normal;font-stretch:normal;writing-mode:lr-tb;fill:#ffffff;fill-opacity:1;fill-rule:nonzero;stroke:none;font-family:'OSIDB E+ Equinor Beta';-inkscape-font-specification:EquinorBeta-Regular"
             x="0 4.4264998 9.5939999 12.4085 16.1395 20.338499 24.024 27.7745 29.2045 32.889999 34.930351 38.713348 41.748852 45.531849 48.963848 52.746849 56.32835"
             y="0"
             sodipodi:role="line"
             id="tspan3081">NO-4035 Stavanger</tspan><tspan
             style="font-size:6.5px;font-variant:normal;font-weight:normal;font-stretch:normal;writing-mode:lr-tb;fill:#ffffff;fill-opacity:1;fill-rule:nonzero;stroke:none;font-family:'OSIDB E+ Equinor Beta';-inkscape-font-specification:EquinorBeta-Regular"
             x="0 4.4264998 8.1055002 10.673 15.1515 18.9345"
             y="8.0015001"
             sodipodi:role="line"
             id="tspan3083">Norway</tspan><tspan
             style="font-size:6.5px;font-variant:normal;font-weight:normal;font-stretch:normal;writing-mode:lr-tb;fill:#ffffff;fill-opacity:1;fill-rule:nonzero;stroke:none;font-family:'OSIDB E+ Equinor Beta';-inkscape-font-specification:EquinorBeta-Regular"
             x="0 2.8989999 6.4805002 7.7544999 11.336 15.1255 18.570499 22.2495 25.681499 29.263 30.693001 33.897499 37.335999 40.534 41.964001 45.649502 48.470501 49.900501 53.7355 57.570499 59.0005 63.329498 67.658501 69.088501 73.417503"
             y="16.003"
             sodipodi:role="line"
             id="tspan3085">Telephone +47 51 99 00 00</tspan><tspan
             style="font-size:6.5px;font-variant:normal;font-weight:normal;font-stretch:normal;writing-mode:lr-tb;fill:#ffffff;fill-opacity:1;fill-rule:nonzero;stroke:none;font-family:'OSIDB E+ Equinor Beta';-inkscape-font-specification:EquinorBeta-Regular"
             x="0 4.6020002 9.2040005 13.767 14.6965 18.278 22.061001 25.4865 26.7735 30.2055 33.884499 36.452 37.3815 40.573002 44.251999"
             y="24.004499"
             sodipodi:role="line"
             id="tspan3087">www.equinor.com</tspan></text>
</g></g></g></svg>