<svg width="1920" height="570" viewBox="0 0 1920 570" fill="none" xmlns="http://www.w3.org/2000/svg">
<path d="M189 228H251.705V342H189V380H359.911V342H297.244V228H359.911V190H189V228Z" fill="#FF4B33"/>
<path d="M527.024 228H594.439V380H641.915V228H709.33V190H527.024V228Z" fill="#FF4B33"/>
<path d="M1222.06 380H1269.54V313.5H1351.2V380H1398.94L1398.67 304H1371.4C1382.77 296.921 1391.52 286.331 1396.34 273.831C1401.16 261.33 1401.77 247.601 1398.09 234.72C1394.42 221.838 1386.65 210.506 1375.96 202.437C1365.27 194.369 1352.24 190.003 1338.85 190H1222.06V380ZM1329.47 275.196L1269.54 275.5V228H1329.47C1332.57 228 1335.64 228.611 1338.51 229.798C1341.37 230.985 1343.97 232.724 1346.16 234.917C1348.36 237.11 1350.09 239.714 1351.28 242.579C1352.47 245.445 1353.08 248.516 1353.08 251.617C1353.08 254.718 1352.47 257.789 1351.28 260.655C1350.09 263.52 1348.36 266.124 1346.16 268.317C1343.97 270.51 1341.37 272.249 1338.51 273.436C1335.64 274.623 1332.57 275.234 1329.47 275.234V275.196Z" fill="#FF4B33"/>
<path d="M1049.25 342H922.133V304H1024.72V266H922.133V228H1049.1V190H874.544V228H874.696V380H922.133H1049.25V342Z" fill="#FF4B33"/>
<path d="M1681.62 190H1590.47L1541.1 380H1584.77L1600.57 319.2H1671.52L1687.32 380H1731L1681.62 190ZM1610.45 281.2L1628.22 212.8H1643.87L1661.65 281.2H1610.45Z" fill="#FF4B33"/>
</svg>
