<?xml version="1.0" encoding="utf-8"?>
<!-- Generator: Adobe Illustrator 19.2.1, SVG Export Plug-In . SVG Version: 6.00 Build 0)  -->
<svg version="1.1" id="layer" xmlns="http://www.w3.org/2000/svg" xmlns:xlink="http://www.w3.org/1999/xlink" x="0px" y="0px"
	 viewBox="0 0 652 652" style="enable-background:new 0 0 652 652;" xml:space="preserve">
<style type="text/css">
	.st0{fill:#D71539;}
	.st1{fill:#FFF572;}
	.st2{fill:#001639;}
</style>
<g>
	<path class="st0" d="M195.5,446.1h250v-375h-250C195.5,71.1,195.5,446.1,195.5,446.1z"/>
	<path class="st1" d="M318.4,194.1c-14.6,0-28.1,2.1-40.6,6.3l-15.6-27.1c0,0,0,0,0-1c0,0,0,0,1,0c1,0,6.3,0,6.3,0s1,0,1,1
		s0,5.2,0,5.2c0,1,1,1,1,0c0-1,1-3.1,1-4.2c0-1,1-1,2.1,0l4.2,2.1c0,0,0,0,0,1s-1,4.2-1,5.2c0,0,0,1-1,1c-1,0-4.2-1-4.2-1s-1,0-1,1
		c1,2.1,3.1,4.2,6.3,5.2c4.2,1,8.3,0,10.4-3.1c1-2.1,2.1-4.2,2.1-6.3v-1c0,0,0,0-1,0c-1,1-1,2.1-2.1,2.1c-1,1-2.1,1-3.1,1
		c-2.1-1-3.1-3.1-3.1-5.2c0-1,1-2.1,2.1-3.1c1-1,2.1-1,3.1,0c1,0,1,1,2.1,1c0,0,1-1,0-1c-1-1-3.1-3.1-4.2-7.3c0-3.1,1-6.3,2.1-7.3
		c0,0,0,0,1,0c3.1,1,5.2,4.2,5.2,7.3c0,3.1-1,6.3-1,6.3v1h1c1-1,2.1-3.1,3.1-3.1c1,0,3.1,0,3.1,2.1c1,1,1,4.2,1,5.2
		c-1,1-2.1,2.1-3.1,2.1c-1,0-2.1-1-3.1-1c0,0,0,0-1,0c0,0,0,1,0,2.1c1,3.1,5.2,6.3,8.3,6.3c4.2,0,8.3-2.1,10.4-6.3c1-1,1-2.1,1-4.2
		c0,0,0,0,0-1c-1,0-1,1-2.1,1l1,1c0,0,0,0-1,0c-1-1-2.1-3.1-4.2-5.2c0,0,0,0,0-1c1-2.1,2.1-3.1,3.1-5.2c0,0,0,0,1,0
		c2.1,1,3.1,2.1,5.2,3.1c0,0,1,0,1-1c0-1-2.1-2.1-2.1-3.1s-1-1,0-1l5.2-3.1l0,0c0,0,4.2,3.1,5.2,3.1c1,0,0,1,0,1
		c0,1-2.1,3.1-2.1,4.2c0,1,1,1,1,1c2.1-1,3.1-2.1,5.2-3.1c0,0,0,0,1,0c1,2.1,2.1,3.1,3.1,5.2c0,0,0,0,0,1c-1,2.1-2.1,3.1-4.2,5.2
		c0,0,0,0-1,0l-4.2-3.1c-1,0-1-1-2.1-1c0,0,0,0,0,1s0,2.1,1,4.2c2.1,4.2,6.3,6.3,10.4,6.3c4.2,0,7.3-3.1,8.3-6.3c0,0,0-1,0-2.1
		c0,0,0,0-1,0c-1,1-2.1,2.1-3.1,1c-1,0-2.1-1-3.1-2.1c-1-2.1,0-4.2,1-5.2c1-1,2.1-2.1,3.1-2.1c1,0,2.1,2.1,3.1,3.1c0,0,0,0,1,0
		c0,0,1-1,0-1c0,0-1-3.1-1-6.3s3.1-6.3,5.2-7.3h1c2.1,1,3.1,4.2,2.1,7.3c0,3.1-3.1,6.3-4.2,7.3c0,1,0,1,0,1c1,0,2.1-1,2.1-1
		c1-1,2.1,0,3.1,0c1,1,2.1,2.1,2.1,3.1c0,2.1-1,4.2-3.1,5.2c-1,0-2.1,0-3.1-1s-1-1-2.1-2.1c0,0,0,0-1,0v1c0,2.1,1,5.2,2.1,6.3
		c2.1,3.1,7.3,5.2,10.4,3.1c2.1-1,5.2-2.1,6.3-5.2c0-1-1-1-1-1s-3.1,1-4.2,1c-1,0-1,0-1-1c0,0-1-4.2-1-5.2s0-1,0-1l4.2-2.1
		c4.2,1,4.2,1,4.2,2.1c0,0,1,2.1,1,4.2c0,1,1,1,1,0c0,0,0-4.2,0-5.2s0-1,1-1h6.3c1,0,1,0,1,0s0,0,0,1L358,201.3
		C346.5,196.1,333,194.1,318.4,194.1"/>
	<path class="st1" d="M318.4,144.1c4.2,0,7.3,3.1,7.3,7.3c0,4.2-3.1,7.3-7.3,7.3c0,0,0,0-1,0c-4.2,0-7.3-3.1-7.3-7.3
		C312.1,147.2,315.3,144.1,318.4,144.1 M263.2,155.5c3.1,0,6.3,2.1,6.3,5.2c0,3.1-2.1,6.3-5.2,6.3l0,0c-3.1,0-5.2-3.1-5.2-6.3
		C258,157.6,261.1,155.5,263.2,155.5 M270.5,140.9c3.1,0,5.2,2.1,5.2,5.2s-2.1,5.2-5.2,5.2c-3.1,0-5.2-2.1-5.2-5.2
		C265.3,144.1,267.4,140.9,270.5,140.9 M286.1,136.8c3.1,0,5.2,2.1,5.2,5.2c0,3.1-2.1,5.2-5.2,5.2c-3.1,0-5.2-2.1-5.2-5.2
		C280.9,138.8,283,136.8,286.1,136.8 M302.8,143c3.1,0,6.3,2.1,6.3,5.2c0,3.1-3.1,6.3-6.3,6.3l0,0c-3.1,0-5.2-3.1-5.2-6.3
		C296.5,146.1,299.6,144.1,302.8,143 M374.6,155.5c-3.1,0-6.3,2.1-6.3,5.2c0,3.1,2.1,6.3,5.2,6.3l0,0c3.1,0,5.2-3.1,5.2-6.3
		C379.9,157.6,377.8,155.5,374.6,155.5 M368.4,140.9c-3.1,0-5.2,2.1-5.2,5.2s2.1,5.2,5.2,5.2s5.2-2.1,5.2-5.2
		C373.6,144.1,371.5,140.9,368.4,140.9 M351.7,136.8c-3.1,0-5.2,2.1-5.2,5.2c0,3.1,2.1,5.2,5.2,5.2c3.1,0,5.2-2.1,5.2-5.2
		C358,138.8,354.9,136.8,351.7,136.8 M336.1,143c-3.1,0-5.2,2.1-5.2,5.2c0,3.1,2.1,6.3,5.2,6.3c3.1,0,5.2-2.1,5.2-5.2
		S339.2,143,336.1,143 M322.6,123.2l-2.1,6.2l0,0c2.1,0,4.2-1,5.2-2.1v8.3c-2.1-1-4.2-1-5.2-2.1l0,0l2.1,7.3c-1-1-3.1-1-4.2-1
		c-1,0-3.1,0-4.2,1l2.1-7.3l0,0c-2.1,0-4.2,1-5.2,2.1v-7.3c2.1,1,4.2,1,5.2,2.1l0,0l-1-7.3H322.6z M250.7,237.8
		c-1,4.2-1,9.4,2.1,12.5c2.1,3.1,6.3,4.2,10.4,3.1c2.1-1,5.2-3.1,5.2-5.2s0-4.2-2.1-6.3c-2.1-1-4.2-1-6.3-1c-1,1-2.1,2.1-3.1,3.1
		C253.8,243,251.7,239.9,250.7,237.8 M273.6,219.1c6.3,2.1,11.5,8.3,13.5,14.6l14.6-7.3C294.4,219.1,284,217,273.6,219.1 M309,222.2
		c3.1-1,5.2-3.1,8.3-4.2l4.2,6.3l0,0l-39.6,20.8c0-6.3-2.1-13.5-7.3-17.7c-3.1-3.1-8.3-4.2-12.5-3.1c-2.1,1-5.2,3.1-5.2,6.3
		c0,2.1,0,4.2,1,5.2c2.1-1,5.2-2.1,8.3-1c4.2,1,8.3,4.2,9.4,7.3c2.1,5.2,0,10.4-3.1,14.6c-4.2,4.2-11.5,5.2-16.7,4.2
		c-7.3-2.1-11.5-9.4-12.5-15.6c-1-12.5,8.3-24,20.8-29.2c9.4-4.2,24-5.2,33.3-1C300.7,215.9,304.9,219.1,309,222.2 M325.7,351.3
		c-3.1,0-6.3,1-7.3,3.1c-1,2.1-2.1,5.2,0,6.3c1,2.1,3.1,3.1,6.3,3.1c-1,4.2-4.2,7.3-7.3,10.4c4.2-2.1,8.3-4.2,11.5-7.3
		c3.1-3.1,5.2-8.3,2.1-12.5C328.8,353.4,327.8,352.4,325.7,351.3z M306.9,335.7c-14.6-3.1-30.2-2.1-42.7,4.2
		c-8.3,4.2-14.6,11.5-14.6,19.8c0,7.3,6.3,12.5,12.5,15.6c-2.1-2.1-2.1-5.2-2.1-8.3s1-6.3,3.1-9.4c6.3-7.3,16.7-10.4,27.1-8.3
		c4.2-6.3,11.5-11.5,18.8-13.5C310.1,335.7,306.9,335.7,306.9,335.7z M345.5,303.4L345.5,303.4c6.3,3.1,8.3,9.4,8.3,14.6v24v8.3
		c0,7.3,3.1,14.6,8.3,20.8l17.7-9.4c-4.2-6.3-7.3-12.5-7.3-20.8v-13.5c0-3.1,0-7.3-2.1-10.4C365.3,308.6,354.9,306.6,345.5,303.4z
		 M326.7,279.5l-11.5,6.3v34.4l-14.6,8.3c9.4,1,17.7,3.1,26,5.2C326.7,332.6,326.7,279.5,326.7,279.5z M334,275.3v26l11.5-6.3v-11.5
		c0-3.1,0-6.3-2.1-8.3C342.4,272.2,337.1,273.2,334,275.3z M364.2,260.7c-6.3,1-11.5,4.2-16.7,7.3c4.2,1,6.3,5.2,6.3,9.4v13.5l0,0
		l18.8-9.4v-6.3c0-3.1,0-7.3-1-10.4C369.4,261.8,367.4,260.7,364.2,260.7z M306.9,314.9v-68.8l-17.7,9.4l0,0v27.1
		c-4.2,0-9.4,0-12.5,1c-3.1,1-6.3,4.2-7.3,8.3h19.8v33.3C288.2,324.3,306.9,314.9,306.9,314.9z M326.7,271.1v-34.4l-11.5,6.3v34.4
		L326.7,271.1L326.7,271.1z M363.2,219.1c-6.3,1-10.4,4.2-15.6,6.3c7.3,2.1,7.3,9.4,7.3,15.6l17.7-9.4c0-3.1,0-6.3-1-9.4
		C368.4,219.1,366.3,218,363.2,219.1z M377.8,219.1c2.1,4.2,1,10.4,1,15.6l-2.1,1l-31.3,16.7v-15.6c0-2.1,0-4.2-2.1-5.2
		c-2.1-2.1-6.3-1-9.4,0V267l0,0l19.8-9.4c6.3-3.1,13.5-4.2,19.8-1c6.3,3.1,7.3,9.4,7.3,14.6v14.6l-26,13.5l0,0
		c9.4,3.1,18.8,7.3,24,15.6c4.2,8.3,1,20.8,3.1,30.2c1,5.2,3.1,9.4,6.3,13.5l0,0l8.3-4.2l4.2,6.3l-27.1,14.6l-12.5,6.3
		c-8.3-9.4-14.6-18.7-15.6-29.2V343v-21.9c0-4.2,0-9.4-5.2-11.5c-2.1-1-4.2-1-6.3,0v28.1c-13.5,0-26,3.1-34.4,12.5
		c-2.1,2.1-4.2,5.2-6.3,8.3c-5.2-2.1-13.5-3.1-18.8,0c-4.2,2.1-7.3,6.3-6.3,11.5c1,5.2,6.3,9.4,11.5,10.4c11.5,2.1,26,0,32.3-9.4
		l1-2.1c-4.2-3.1-6.3-7.3-5.2-12.5c1-5.2,6.3-9.4,11.5-10.4c6.3-1,11.5,1,15.6,5.2c4.2,4.2,5.2,10.4,2.1,15.6
		c-5.2,12.5-19.8,17.7-32.3,19.8c-15.6,3.1-33.3,2.1-46.9-4.2c-9.4-4.2-16.7-11.5-17.7-20.8c-1-11.5,6.3-20.8,16.7-27.1
		c6.3-3.1,14.6-6.3,21.9-6.3v-28.1H259c0-8.3,3.1-17.7,12.5-21.9c3.1-1,6.3-2.1,9.4-2.1v-24l12.5-6.3l41.7-21.9l16.7-9.4
		c5.2-3.1,13.5-4.2,19.8-1C374.6,214.9,376.7,217,377.8,219.1L377.8,219.1z"/>
	<path class="st2" d="M240.3,570.1c-7.3-1-10.4-5.2-13.5-9.4c-1-2.1-19.8-29.2-25-38.5v34.4c0,5.2,0,8.3,4.2,11.5l0,0h-13.5l0,0
		c4.2-3.1,4.2-6.3,4.2-11.5v-36.5c0-5.2-1-7.3-5.2-10.4l0,0h14.6l0,0l29.2,44.8v-34.4c0-5.2,0-8.3-4.2-11.5l0,0h13.5l0,0
		c-4.2,3.1-4.2,6.3-4.2,11.5L240.3,570.1 M135.1,539.9c0,13.5,6.3,25,17.7,25c10.4,0,17.7-11.5,17.7-25c0-13.5-6.3-25-17.7-25
		C142.4,513.8,135.1,525.3,135.1,539.9 M180.9,538.8c0,17.7-12.5,31.3-28.1,31.3s-28.1-12.5-28.1-30.2c0-16.7,12.5-30.2,29.2-30.2
		C169.4,509.7,180.9,523.2,180.9,538.8 M293.4,563.8v-13.5c0-4.2,0-8.3-4.2-9.4l0,0h13.5v28.1c-4.2,1-13.5,2.1-16.7,2.1
		c-2.1,0-30.2,0-30.2-30.2c0-27.1,22.9-30.2,28.1-30.2c5.2,0,12.5,1,16.7,3.1v11.5l0,0c-4.2-5.2-7.3-9.4-15.6-9.4
		c-6.3,0-18.8,5.2-18.8,26c0,5.2,1,17.7,11.5,22.9C280.9,563.8,288.2,565.9,293.4,563.8 M561.1,563.8v-13.5c0-4.2,0-8.3-4.2-9.4l0,0
		h13.5v28.1c-4.2,1-13.5,2.1-16.7,2.1c-2.1,0-30.2,0-30.2-30.2c0-27.1,22.9-30.2,28.1-30.2c5.2,0,12.5,1,16.7,3.1v11.5l0,0
		c-4.2-5.2-7.3-9.4-15.6-9.4c-6.3,0-18.8,5.2-18.8,26c0,5.2,1,17.7,11.5,22.9C547.6,563.8,554.9,565.9,561.1,563.8 M317.4,553.4
		c3.1,6.3,9.4,11.5,15.6,11.5s10.4-5.2,10.4-11.5c0-12.5-25-10.4-25-28.1c0-12.5,11.5-16.7,18.8-16.7c3.1,0,8.3,1,11.5,2.1v10.4l0,0
		c-4.2-6.2-7.3-8.3-12.5-8.3c-4.2,0-8.3,4.2-8.3,8.3c0,13.5,25,9.4,25,30.2c0,11.5-9.4,17.7-20.8,17.7c-2.1,0-8.3-1-13.5-3.1
		L317.4,553.4L317.4,553.4L317.4,553.4z M377.8,515.9v47.9c7.3,1,20.8,0,19.8-12.5c0-7.3-5.2-12.5-16.7-12.5l2.1-4.2
		c4.2-1,10.4-2.1,10.4-10.4S384,513.8,377.8,515.9 M408,551.3c0,7.3-4.2,11.5-9.4,14.6c-6.3,3.1-13.5,3.1-19.8,3.1h-13.5l0,0
		c4.2-2.1,4.2-8.3,4.2-12.5v-33.3c0-4.2,1-10.4-4.2-12.5l0,0h19.8c11.5,0,18.8,4.2,18.8,12.5c0,6.3-4.2,9.4-12.5,12.5
		C397.6,536.8,408,539.9,408,551.3 M455.9,521.1L455.9,521.1c-2.1-3.1-4.2-7.3-21.9-5.2v18.8h16.7v8.3l0,0c-1-2.1-5.2-4.2-7.3-4.2
		h-8.3v25c20.8,2.1,25-6.2,26-8.3l0,0l-4.2,12.5h-36.5l0,0c4.2-2.1,4.2-7.3,4.2-11.5v-35.4c0-4.2,0-9.4-4.2-11.5l0,0h35.4
		C455.9,510.7,455.9,521.1,455.9,521.1z M521.5,568h-8.3c-3.1,0-7.3,0-11.5-6.2c-5.2-6.3-15.6-21.9-15.6-21.9l2.1-4.2
		c5.2-1,10.4-4.2,10.4-12.5c0-5.2-5.2-9.4-10.4-9.4c-2.1,0-3.1,0-5.2,0v40.6c0,4.2-1,10.4,4.2,12.5l0,0h-16.7l0,0
		c4.2-2.1,3.1-7.3,4.2-12.5v-33.3c0-4.2,1-10.4-4.2-11.5l0,0h20.8c12.5,0,18.7,6.2,18.7,14.6c0,7.3-6.2,11.5-13.5,13.5
		C502.8,548.2,514.2,565.9,521.5,568L521.5,568z M123.6,568L123.6,568h-9.4c-4.2,0-7.3-2.1-10.4-6.2l-16.7-25l14.6-15.6
		c4.2-5.2,6.3-9.4,0-11.5l0,0h16.7l0,0l-21.9,24C102.8,544.1,115.3,564.9,123.6,568"/>
	<path class="st2" d="M75.7,523.2c0-4.2,1-10.4-4.2-12.5l0,0h17.7l0,0c-4.2,2.1-4.2,8.3-4.2,12.5v33.3c0,4.2-1,10.4,4.2,12.5l0,0
		H71.5l0,0c4.2-2.1,4.2-8.3,4.2-12.5V523.2L75.7,523.2z"/>
</g>
</svg>
