<?xml version="1.0" encoding="utf-8"?>
<!-- Generator: Adobe Illustrator 24.2.3, SVG Export Plug-In . SVG Version: 6.00 Build 0)  -->
<svg version="1.1" id="Layer_1" xmlns="http://www.w3.org/2000/svg" xmlns:xlink="http://www.w3.org/1999/xlink" x="0px" y="0px"
	 viewBox="0 0 247 34" style="enable-background:new 0 0 247 34;" xml:space="preserve">
<style type="text/css">
	.st0{fill:#12181A;}
</style>
<g>
	<polygon class="st0" points="239.4,0 237.7,0 224.2,30.2 210.6,0 208.9,0 202.1,34 203.8,34 210.1,2.6 223.3,32.1 224.2,34 
		225,32.1 238.3,2.6 244.5,34 246.2,34 	"/>
	<path class="st0" d="M197.8,0v17c0,8-6.5,14.4-14.4,14.4S169,25,169,17V0h-2.5v17c0,9.4,7.6,17,17,17c9.4,0,17-7.6,17-17V0H197.8z"
		/>
	<polygon class="st0" points="163,0 132.5,0 132.5,3.4 157.9,3.4 131.6,30.6 131.6,34 162.2,34 162.2,30.6 136.7,30.6 163,3.4 	"/>
	<polygon class="st0" points="129.1,0 113.8,0 108.7,0 92.6,0 92.6,5.1 107.8,5.1 107.8,34 113.8,34 113.8,5.1 129.1,5.1 	"/>
	<polygon class="st0" points="89.2,6.8 89.2,0 64.5,0 57.7,0 57.7,6.8 57.7,13.6 57.7,20.4 57.7,27.2 57.7,34 64.5,34 89.2,34 
		89.2,27.2 65.4,27.2 65.4,20.4 84.9,20.4 84.9,13.6 65.4,13.6 65.4,6.8 	"/>
	<polygon class="st0" points="54.3,34 50.9,0 40.8,0 27.2,22.6 13.6,0 3.4,0 0,34 10.2,34 12.1,14.6 22.1,31.1 22.8,32.3 31.6,32.3 
		32.3,31.1 42.2,14.6 44.2,34 	"/>
</g>
</svg>
