<?xml version="1.0" encoding="utf-8"?>
<!-- Generator: Adobe Illustrator 25.2.0, SVG Export Plug-In . SVG Version: 6.00 Build 0)  -->
<svg version="1.1" id="Layer_1" xmlns="http://www.w3.org/2000/svg" xmlns:xlink="http://www.w3.org/1999/xlink" x="0px" y="0px"
	 viewBox="0 0 164.3 53.9" style="enable-background:new 0 0 164.3 53.9;" xml:space="preserve">
<style type="text/css">
	.st0{fill:#B72926;}
</style>
<g>
	<rect x="81.3" y="2.2" class="st0" width="9.3" height="50.8"/>
	<path class="st0" d="M141,42.5c2.4,2.1,6,3.4,9.5,3.4c2.5,0,4.4-1.2,4.4-2.9c0-5.2-16.8-3.4-16.8-14.5c0-6.7,6.4-10.8,13.3-10.8
		c4.5,0,9.4,1.7,11.7,3.5l-4.4,6.7c-1.8-1.3-4.2-2.4-6.7-2.4c-2.6,0-4.7,1-4.7,2.8c0,4.5,16.8,2.7,16.8,14.7
		c0,6.7-6.5,10.7-13.8,10.7c-4.8,0-9.9-1.6-14-4.7L141,42.5z"/>
	<path class="st0" d="M25.1,18.6c-8.7,0-15.4-7.1-15.4-15.7H0V53h9.7V21.8c0.1,0.4,0.6,0.7,0.8,0.9c3.9,3.1,8.9,4.9,14.6,4.9
		s10.7-1.8,14.6-4.9c0.2-0.2,0.6-0.5,0.8-0.9V53h9.7V2.9h-9.7C40.5,11.5,33.8,18.6,25.1,18.6"/>
	<path class="st0" d="M130.9,47.5c-3.4,4-8.9,6.2-14.2,6.2c-10.4,0-18.2-7.2-18.2-18c0-9.7,6.6-18.1,16.9-18.1
		c9.6,0,16.4,8.1,16.4,17.8c0,0.9-0.1,1.9-0.2,2.6h-24.1c0.5,4.9,4.4,8.2,9.4,8.2c3.9,0,7.1-2.2,8.7-4L130.9,47.5z M122.2,31.2
		c-0.3-3.1-3.1-6.1-6.9-6.1c-3.9,0-7,2.9-7.4,6.1H122.2z"/>
	<path class="st0" d="M65.9,0.1C69.2,0.1,72,2.7,72,6c0,3.4-2.7,5.9-6.1,5.9S59.8,9.3,59.8,6C59.8,2.7,62.5,0.1,65.9,0.1z M70.5,53
		h-9.3V18.3h9.3V53z"/>
</g>
</svg>
