<svg xmlns="http://www.w3.org/2000/svg" height="185.49" width="1081.96"><path d="M25 137.12h21.06V85.26c0-14.27 8.53-22.8 20.71-22.8 12.53 0 19.66 8.18 19.66 22.45v52.21h21.06V78.47c0-21.23-12-35.15-32.71-35.15-14.28 0-22.8 7.48-28.72 16V45.25H25zm146.78 2.09c16.88 0 28.88-6.79 37.59-17.23L197 111.01c-7.3 7.15-14.62 10.97-24.89 10.97-13.57 0-24.19-8.35-26.45-23.31h67.52c.18-2.1.35-4.02.35-5.93 0-26.45-14.79-49.42-44.03-49.42-26.27 0-44.9 21.58-44.9 47.85v.35c0 28.37 20.54 47.69 47.17 47.69M145.5 84.74c1.92-14.28 10.96-24.2 23.84-24.2 13.93 0 21.93 10.62 23.32 24.2zm114.93 53.95c8 0 13.75-1.74 18.97-4.7v-17.23a28.24 28.24 0 0 1-13.05 3.13c-7.14 0-11.31-3.3-11.31-11.48V63.33h24.7v-18.1h-24.7V20h-21.06v25.24h-11.66v18.1h11.66v48.37c0 20.19 10.96 26.98 26.45 26.98m76.09.52c17.91 0 28.54-7.14 37.59-17.23l-12.7-12.53c-6.63 6.79-13.93 11.31-23.85 11.31-16.18 0-27.5-13.05-27.5-29.41V91c0-16.01 11.32-29.23 26.63-29.23 10.44 0 17.23 4.7 23.67 11.48l13.23-14.1c-8.7-9.39-19.5-15.83-36.73-15.83-27.67 0-47.85 21.93-47.85 48.03v.35c0 26.1 20.18 47.5 47.5 47.5m94.12 0c28.37 0 49.25-21.74 49.25-47.85V91c0-26.27-20.71-47.68-48.9-47.68-28.2 0-49.08 21.76-49.08 48.03v.35c0 26.1 20.7 47.5 48.73 47.5m.35-18.44c-16.36 0-28.02-13.4-28.02-29.41V91c0-16.01 10.79-29.23 27.67-29.23 16.53 0 28.2 13.4 28.2 29.58v.35c0 15.83-10.8 29.06-27.85 29.06m66.61 16.36h21.06V85.26c0-14.1 8.01-22.8 19.67-22.8 11.66 0 18.63 8 18.63 22.28v52.38H578V85.26c0-14.8 8.17-22.8 19.67-22.8 11.83 0 18.62 7.83 18.62 22.45v52.21h21.06V78.47c0-22.45-12.18-35.15-32.2-35.15-13.93 0-23.66 6.44-30.98 16.18-4.87-9.74-14.27-16.18-27.5-16.18-14.09 0-22.1 7.65-28.02 15.83V45.24H497.6zm162.45 27.85h21.06v-42.11c6.43 8.51 16 16.18 31.32 16.18 21.76 0 42.64-17.23 42.64-47.7V91c0-30.63-21.06-47.68-42.64-47.68-14.96 0-24.54 7.65-31.32 17.23V45.24h-21.06zm47.33-44.2c-14.26 0-26.8-11.84-26.8-29.42V91c0-17.57 12.54-29.4 26.8-29.4 14.28 0 26.29 11.65 26.29 29.4v.35c0 18.1-11.84 29.41-26.29 29.41m91.83 18.28c14.09 0 23.66-5.92 29.92-13.4v11.48h20.54V82.65c0-12.01-3.13-21.75-9.91-28.37-6.45-6.61-16.71-10.26-30.47-10.26-14.61 0-24.53 2.95-34.62 7.48l5.56 16.53c8.35-3.48 16-5.75 26.28-5.75 14.8 0 22.8 6.97 22.8 20.03v2.25a76.86 76.86 0 0 0-24.72-3.82c-22.44 0-37.93 9.75-37.93 29.59v.34c0 18.45 15.31 28.37 32.55 28.37m5.9-15.32c-10.08 0-17.91-5.04-17.91-13.92v-.35c0-9.57 8-15.31 21.57-15.31 8.35 0 15.49 1.56 20.89 3.65v6.26c0 11.66-10.62 19.67-24.54 19.67m66.7 13.4h21.06V85.26c0-14.27 8.53-22.8 20.7-22.8 12.54 0 19.67 8.18 19.67 22.45v52.21h21.06V78.47c0-21.23-12-35.15-32.72-35.15-14.26 0-22.8 7.48-28.71 16V45.25h-21.05zm139.38-23.66l-25.92-68.22h-22.63l38.29 92.06c-3.48 7.83-7.14 10.43-13.06 10.43-4.35 0-8.53-1.38-12.35-3.48l-7.14 15.67a43.29 43.29 0 0 0 21.76 5.57c14.8 0 22.97-6.96 30.28-25.76l36.54-94.5h-21.92l-23.85 68.23" fill="#192341"/></svg>
