<?xml version="1.0" encoding="utf-8"?>
<svg version="1.1" xmlns="http://www.w3.org/2000/svg" xmlns:xlink="http://www.w3.org/1999/xlink" x="0px" y="0px"
	 viewBox="0 0 1162.9 309.5" style="enable-background:new 0 0 1162.9 309.5;" xml:space="preserve">
<style type="text/css">
	.st0{fill-rule:evenodd;clip-rule:evenodd;fill:#7473BD;}
	.st1{fill:#A6A2DC;}
	.st2{fill:#565C98;}
	.st3{fill:#7473BD;}
</style>
<path class="st0" d="M1100.8,223.3c-3.3-2.7-5.7-5.4-7.4-8.1c-1.6-2.7-2.9-6-3.7-10.2
	c-0.8-4.1-1.3-7.4-1.4-9.7c-0.1-2.3-0.2-5.5-0.2-9.6V96.1h-14.8V83.4h14.8c0.1-2.2,0.2-17,0.2-44.5l14.9,6.1l-0.1,38.4h45v12.6
	h-45V173c0,2.3,0,5.4-0.1,9.4c-0.1,3.9-0.1,6.8-0.1,8.5c0,1.7,0.1,3.9,0.3,6.7c0.2,2.8,0.6,4.9,1.1,6.2c0.5,1.4,1.3,2.9,2.3,4.7
	c1,1.8,2.2,3.2,3.8,4.3c1.6,1.1,3.5,2.1,5.6,3.1c8.3,3.7,19.2,2.2,32.6-4.3l6,11c-5.9,3.8-12.9,6.4-20.9,7.7
	c-8.1,1.4-15,1.2-20.7-0.6C1108.1,228.2,1104.1,226.1,1100.8,223.3z M921.4,226h15V116.1c5.5-7.5,12.6-13.3,21.2-17.4
	c8.7-4.1,18.3-6.2,28.8-6.2c17.2,0,30.5,4.5,39.6,13.4c9.2,8.9,13.8,21.1,13.8,36.6V226h15v-82.8c0-11.2-1.9-21-5.6-29.6
	c-3.8-8.6-8.8-15.3-15.2-20.3c-6.4-5-13.4-8.7-21.1-11.2c-7.7-2.5-16-3.8-24.7-3.8c-20.7,0-37.9,6.5-51.7,19.6V17.6l-15-6.6V226z
	 M829.6,93.2c22.3,0,39,7.6,50.1,22.8v77.3c-11.1,15.2-27.8,22.8-50.1,22.8c-18.2,0-33-5.4-44.4-16.1
	c-11.4-10.7-17.1-25.8-17.1-45.3c0-19.4,5.7-34.6,17.1-45.4C796.6,98.6,811.4,93.2,829.6,93.2z M725,31.5V11h-15.6v20.5H725z
	 M709.8,226h15.6V83.3h-15.6V226z M674.1,11v199.1V226h-14.8v-15.9V20.4v-3L674.1,11z M580.9,223.3c-3.3-2.7-5.7-5.4-7.4-8.1
	c-1.6-2.7-2.9-6-3.7-10.2c-0.8-4.1-1.3-7.4-1.4-9.7c-0.1-2.3-0.2-5.5-0.2-9.6V96.1h-14.8l1.8-10l13.7-3.4c0.1-1,0-10.4,0-20.5
	c0-11.5,0-17.1,0-17.1l14.2-6v44.5h45v12.6h-45V173c0,2.3,0,5.4-0.1,9.4c-0.1,3.9-0.1,6.8-0.1,8.5c0,1.7,0.1,3.9,0.3,6.7
	c0.2,2.8,0.6,4.9,1.1,6.2c0.5,1.4,1.3,2.9,2.3,4.7c1,1.8,2.2,3.2,3.8,4.3c1.6,1.1,3.5,2.1,5.6,3.1c8.4,3.7,19.2,2.2,32.6-4.3l6,11
	c-5.9,3.8-12.9,6.4-20.9,7.7c-8.1,1.4-15,1.2-20.7-0.6C588.2,228.2,584.2,226.1,580.9,223.3z M401.3,147.3
	c1.6-17,7.9-30.2,18.8-39.5c10.9-9.3,24.5-14,40.7-14c16.3,0,29.7,4.7,40.3,14c10.6,9.3,16.7,22.5,18.4,39.5H401.3z M407.4,100
	c-14.4,14.1-21.6,32.5-21.6,55.4c0,15,3.7,28.3,11,39.9c7.3,11.6,16.9,20.4,28.7,26.3c11.8,5.9,24.8,8.9,38.9,8.9
	c14.4,0,27.5-3.3,39.4-9.8c11.9-6.5,21.3-15.6,28.1-27.1l-16.8-0.4c-11.5,15-28.4,22.4-50.7,22.4c-17.9,0-32.6-5.2-44.1-15.5
	c-10.8-9.9-17.1-23.3-18.9-40.2h133.2c0-0.4,0-1.1,0.1-2.1c0.1-1,0.1-1.8,0.1-2.3c0-23-7.1-41.5-21.2-55.5
	c-14.2-14-31.8-21-52.9-21C439.6,78.9,421.8,86,407.4,100z M229.9,89.7V226h15V116.1c5.5-7.5,12.6-13.3,21.2-17.4
	c8.7-4.1,18.3-6.2,28.8-6.2c17.2,0,30.5,4.5,39.6,13.4c9.2,8.9,13.8,21.1,13.8,36.6V226h15v-82.8c0-11.2-1.9-21-5.6-29.6
	c-3.8-8.6-8.8-15.3-15.2-20.3c-6.4-5-13.4-8.7-21.1-11.2c-7.7-2.5-16-3.8-24.7-3.8c-20.7,0-37.9,6.5-51.7,19.6L242,83.4
	L229.9,89.7z M791.9,292.2c-10.1-4.1-18.9-10-26.3-17.6l8-12.4c5.9,7.1,13.2,12.5,22.1,16.4c8.8,3.9,18.2,5.8,28.2,5.8
	c17.4,0,31-5.3,41-15.9c9.9-10.6,14.9-25.8,14.9-45.5v-11.4c-13.8,13-31.1,19.6-51.7,19.6c-21.2,0-39-7-53.4-21
	c-14.4-14-21.5-32.4-21.5-55.3c0-22.9,7.2-41.3,21.5-55.4C789,85.4,806.8,78.3,828,78.3c20.7,0,37.9,6.5,51.7,19.6l2.9-14.5h12.1
	v138.7c0,24.5-6.5,43.3-19.4,56.5c-11.1,11.3-25.2,17.7-42.4,19.4h-17.5C807.2,297.2,799.4,295.3,791.9,292.2z"/>
<polygon class="st1" points="154.3,116.1 50,90.4 53.9,155.9"/>
<polygon class="st2" points="11.6,172.7 20.1,226.8 91.8,177.6 48.4,158.1"/>
<polygon class="st2" points="218.5,90.7 168.4,110.5 171.4,123"/>
<polygon class="st3" points="171.4,123 168.4,110.5 168.4,110.5 154.3,116.1 53.9,155.9 48.4,158.1 91.8,177.6 195.9,224.3"/>
</svg>
