<svg id="Layer_1" data-name="Layer 1" xmlns="http://www.w3.org/2000/svg" viewBox="0 0 760.24 162.4"><defs><style>.cls-1{fill:#18172a;}</style></defs><circle class="cls-1" cx="108.9" cy="15.68" r="14.61"/><path class="cls-1" d="M197.69,52.25q-17.72,0-28.63,12.85h-.38V15.68h-16V158.39h14.42v-9.93h.39q4.08,4.88,12,8.86a39.82,39.82,0,0,0,18.21,4q20.46,0,32.82-14.9t12.37-39.63q0-24.54-12.75-39.54A40.75,40.75,0,0,0,197.69,52.25Zm20.85,84.14q-8,10.52-23.38,10.51-11.29,0-18.89-6.81t-7.59-16V92.17q0-9.73,7.2-17.63t19.28-7.88q15.39,0,23.38,10.51t8,29.61Q226.52,125.88,218.54,136.39Z"/><path class="cls-1" d="M325.27,158.39V147.1h-.39q-2.92,5.07-11.1,9.64t-20.45,4.57q-17.15,0-26.2-8.37a27.42,27.42,0,0,1-9.06-21q0-12.87,8.09-20.16t27-12.18Q309.3,95.49,316,92t6.72-10.52c0-4.29-1.95-7.85-5.85-10.71s-9.15-4.29-15.77-4.29q-20.65,0-25.13,20.45l-14.8-4.28A35.07,35.07,0,0,1,274,60.72q10.41-8.47,26.58-8.47,17.34,0,28.24,8.76t10.91,23.76v73.62Zm-28.44-46.54q-13.24,3.69-18,8a14.21,14.21,0,0,0-4.77,11.1q0,16.17,20.45,16.17,14,0,21.62-6.33t7.59-15.49V99.57h-.39Q320.59,105.23,296.83,111.85Z"/><path class="cls-1" d="M365.39,158.39V55.17h15.19V65.1H381a31,31,0,0,1,12.27-9.25A40.3,40.3,0,0,1,410,52.25q16.75,0,26.88,10.32T447,90.62v67.77H431V95.68q0-28.83-23.38-28.83-12.07,0-19.18,6.82t-7.11,18.89v65.83Z"/><polygon class="cls-1" points="515.95 96.07 553.73 55.17 532.5 55.17 489.07 102.5 488.68 102.5 488.68 15.68 472.71 15.68 472.71 158.4 488.68 158.4 488.68 122.56 503.67 106 504.06 106 539.12 158.4 558.4 158.4 515.95 96.07"/><path class="cls-1" d="M643,126.45,656,135a51.31,51.31,0,0,1-16.66,18.8q-10.8,7.49-26.58,7.49-21,0-34.67-14.9t-13.64-39.63q0-24.73,13.35-39.64T612,52.25q20.84,0,33.79,14.6t13,39.93v4.68H580.83q.2,14.81,8.28,25.12t23.28,10.32a38,38,0,0,0,12.37-1.84,22.75,22.75,0,0,0,8.76-5.26,42.37,42.37,0,0,0,5.16-6q1.76-2.62,3.7-6.14C642.64,127.1,642.84,126.72,643,126.45ZM581.22,98.8h61.36a37.77,37.77,0,0,0-7.79-22.6q-7.41-9.54-22.79-9.54-15,0-22.79,10.22A36.54,36.54,0,0,0,581.22,98.8Z"/><path class="cls-1" d="M678,158.39V55.17h15.2V65.1h.39a30.82,30.82,0,0,1,12.27-9.25,40.27,40.27,0,0,1,16.75-3.6q16.74,0,26.87,10.32t10.13,28.05v67.77h-16V95.68q0-28.83-23.37-28.83-12.07,0-19.19,6.82T694,92.56v65.83Z"/><path class="cls-1" d="M50.55,75.23C33.28,67.83,25.72,63.58,25.72,54A19.49,19.49,0,0,1,45.19,34.51c11.92,0,19.1,5.86,21.4,17.38l18.26-4.55C80.48,27.67,65.72,15.68,45.19,15.68A38.35,38.35,0,0,0,6.88,54c0,23,20.1,31.64,36.25,38.56C59.91,99.73,70.2,104.78,70.2,117.3a25,25,0,0,1-25,25c-13.4,0-23.43-9-26.23-23.09L.68,123.77C5.52,146,23.17,161.15,45.19,161.15A43.9,43.9,0,0,0,89,117.3C89,91.73,67.7,82.58,50.55,75.23Z"/></svg>