<?xml version="1.0" encoding="utf-8"?>
<!-- Generator: Adobe Illustrator 25.2.0, SVG Export Plug-In . SVG Version: 6.00 Build 0)  -->
<svg version="1.1" id="Layer_1" xmlns="http://www.w3.org/2000/svg" xmlns:xlink="http://www.w3.org/1999/xlink" x="0px" y="0px"
	 viewBox="0 0 289.5 332.6" style="enable-background:new 0 0 289.5 332.6;" xml:space="preserve">
<style type="text/css">
	.st0{fill:#FFFFFF;}
</style>
<g>
	<g>
		<rect x="41.8" y="41.8" width="205.8" height="205.8"/>
		<g>
			<path d="M54,290.7c-1.9,0-3.5-0.2-5-0.7c-1.4-0.5-2.7-1.1-3.7-1.9c-1-0.8-1.8-1.8-2.3-2.9c-0.5-1.1-0.8-2.4-0.9-3.8h5.1
				c0.4,3.5,2.6,5.3,6.8,5.3c0.7,0,1.4-0.1,2.1-0.2c0.7-0.2,1.2-0.4,1.7-0.7c0.5-0.3,0.9-0.7,1.2-1.2c0.3-0.5,0.4-1.1,0.4-1.8
				c0-0.7-0.2-1.3-0.5-1.8c-0.3-0.5-0.8-0.9-1.4-1.2c-0.6-0.3-1.3-0.6-2.2-0.8c-0.9-0.2-1.8-0.5-2.9-0.7c-1.3-0.3-2.5-0.6-3.6-0.9
				c-1.1-0.3-2.1-0.8-3-1.4c-0.8-0.6-1.5-1.3-2-2.2c-0.5-0.9-0.7-2-0.7-3.4c0-1.3,0.2-2.4,0.7-3.4c0.5-1,1.2-1.8,2.1-2.4
				c0.9-0.6,2-1.1,3.2-1.5c1.2-0.3,2.6-0.5,4-0.5c3.2,0,5.7,0.7,7.4,2.1c1.8,1.4,2.8,3.4,3,5.9h-4.9c-0.2-1.3-0.8-2.4-1.8-3.1
				c-1-0.7-2.3-1.1-3.9-1.1c-1.5,0-2.8,0.3-3.7,0.9c-0.9,0.6-1.4,1.4-1.4,2.5c0,0.6,0.2,1.2,0.5,1.6c0.3,0.4,0.8,0.8,1.4,1.1
				c0.6,0.3,1.3,0.5,2.2,0.8c0.8,0.2,1.8,0.4,2.8,0.7c1.3,0.3,2.5,0.6,3.6,0.9c1.2,0.4,2.2,0.9,3.1,1.5c0.9,0.6,1.6,1.4,2.2,2.4
				c0.5,1,0.8,2.2,0.8,3.7c0,1.4-0.3,2.6-0.8,3.6c-0.5,1-1.3,1.9-2.2,2.6s-2.1,1.2-3.3,1.6C56.9,290.5,55.5,290.7,54,290.7z"/>
			<path d="M72.8,280.8l-2.3,2.3v7.1h-4.6v-27.2h4.6v10.5c0,0.9,0,1.8-0.1,2.7c0,0.9-0.1,1.6-0.1,2.1l7.3-7.6h5.5l-7.2,7.1l8,12.4
				h-5.4L72.8,280.8z"/>
			<path d="M97.1,290.1c-0.2-0.2-0.3-0.5-0.4-0.9c-0.1-0.4-0.2-0.9-0.2-1.6h-0.1c-0.6,0.9-1.4,1.6-2.4,2.1s-2.2,0.9-3.8,0.9
				c-0.9,0-1.8-0.1-2.6-0.4s-1.5-0.6-2.1-1.1c-0.6-0.5-1-1.1-1.4-1.8c-0.3-0.7-0.5-1.6-0.5-2.5c0-1.1,0.2-2,0.6-2.7
				c0.4-0.7,1-1.3,1.7-1.7c0.7-0.4,1.5-0.8,2.5-1c1-0.2,2-0.4,3.2-0.6c1.6-0.2,2.8-0.5,3.6-0.8c0.8-0.4,1.2-1,1.2-1.8
				c0-0.9-0.3-1.5-0.9-2c-0.6-0.5-1.5-0.8-2.6-0.8c-1.3,0-2.3,0.3-2.9,0.8c-0.6,0.6-1,1.3-1,2.3h-4.4c0-0.8,0.2-1.6,0.6-2.4
				c0.4-0.8,0.9-1.4,1.6-2c0.7-0.6,1.6-1.1,2.6-1.4c1-0.4,2.2-0.5,3.6-0.5c1.1,0,2.1,0.1,3,0.3c0.9,0.2,1.6,0.5,2.2,0.9
				c1.9,1.1,2.8,3,2.8,5.6V287c0,0.8,0.1,1.4,0.2,1.9c0.1,0.4,0.3,0.7,0.5,0.9v0.3H97.1z M91.6,287.4c0.8,0,1.5-0.1,2.1-0.4
				c0.6-0.3,1.1-0.6,1.5-1c0.4-0.4,0.7-0.9,0.9-1.4c0.2-0.5,0.3-1.1,0.3-1.6v-2.9c-0.5,0.3-1,0.5-1.7,0.7c-0.7,0.2-1.4,0.4-2.1,0.5
				c-1.4,0.3-2.5,0.6-3.3,1c-0.8,0.4-1.2,1.2-1.2,2.2c0,0.5,0.1,0.9,0.3,1.3c0.2,0.4,0.4,0.6,0.7,0.8c0.3,0.2,0.7,0.4,1.1,0.4
				C90.8,287.4,91.2,287.4,91.6,287.4z"/>
			<path d="M102.2,270.6h3v-6.2h4.6v6.2h3.9v3.2h-3.9v10.9c0,0.7,0.2,1.2,0.5,1.4s0.9,0.4,1.5,0.4c0.2,0,0.5,0,0.8,0
				s0.5-0.1,0.7-0.1h0.2v3.6c-0.4,0.1-0.8,0.1-1.4,0.2c-0.5,0.1-1.1,0.1-1.7,0.1c-0.8,0-1.5-0.1-2.2-0.2c-0.7-0.2-1.2-0.4-1.7-0.8
				c-0.5-0.4-0.8-0.8-1.1-1.4c-0.3-0.6-0.4-1.3-0.4-2.2v-11.9h-3V270.6z"/>
			<path d="M114.3,270.6h3v-6.2h4.6v6.2h3.9v3.2h-3.9v10.9c0,0.7,0.2,1.2,0.5,1.4s0.9,0.4,1.5,0.4c0.2,0,0.5,0,0.8,0
				c0.3,0,0.5-0.1,0.7-0.1h0.2v3.6c-0.4,0.1-0.8,0.1-1.4,0.2c-0.5,0.1-1.1,0.1-1.7,0.1c-0.8,0-1.5-0.1-2.2-0.2
				c-0.7-0.2-1.2-0.4-1.7-0.8c-0.5-0.4-0.8-0.8-1.1-1.4c-0.3-0.6-0.4-1.3-0.4-2.2v-11.9h-3V270.6z"/>
			<path d="M136.5,290.7c-1.6,0-3-0.3-4.2-0.8c-1.2-0.5-2.3-1.3-3.1-2.2c-0.9-0.9-1.5-2-2-3.3c-0.5-1.3-0.7-2.6-0.7-4
				c0-1.5,0.2-2.8,0.7-4.1c0.5-1.3,1.1-2.3,2-3.3c0.9-0.9,1.9-1.6,3.1-2.2c1.2-0.5,2.5-0.8,3.9-0.8s2.7,0.2,3.8,0.7
				c1.1,0.5,2.1,1.2,2.9,2c0.9,1,1.7,2.3,2.1,3.7c0.5,1.5,0.7,3.1,0.7,5h-14.6c0.2,1.7,0.7,3,1.6,4.1c0.9,1,2.1,1.6,3.8,1.6
				c1.1,0,2-0.2,2.8-0.7c0.7-0.5,1.2-1.1,1.6-1.9h4.5c-0.2,0.9-0.6,1.7-1.1,2.4c-0.5,0.7-1.1,1.4-1.9,1.9c-0.8,0.5-1.6,1-2.6,1.3
				C138.8,290.5,137.7,290.7,136.5,290.7z M136.2,273.5c-1.5,0-2.7,0.5-3.5,1.4c-0.8,0.9-1.3,2.2-1.5,3.7h9.7
				c-0.1-1.6-0.6-2.9-1.4-3.8C138.7,273.9,137.6,273.5,136.2,273.5z"/>
			<path d="M157.2,290.7c-1.6,0-3-0.3-4.2-0.8c-1.2-0.5-2.3-1.3-3.1-2.2c-0.9-0.9-1.5-2-2-3.3c-0.5-1.3-0.7-2.6-0.7-4
				c0-1.5,0.2-2.8,0.7-4.1c0.5-1.3,1.1-2.3,2-3.3c0.9-0.9,1.9-1.6,3.1-2.2c1.2-0.5,2.5-0.8,3.9-0.8c1.4,0,2.7,0.2,3.8,0.7
				c1.1,0.5,2.1,1.2,2.9,2c0.9,1,1.7,2.3,2.1,3.7c0.5,1.5,0.7,3.1,0.7,5h-14.6c0.2,1.7,0.7,3,1.6,4.1c0.9,1,2.1,1.6,3.8,1.6
				c1.1,0,2-0.2,2.8-0.7c0.7-0.5,1.2-1.1,1.6-1.9h4.5c-0.2,0.9-0.6,1.7-1.1,2.4c-0.5,0.7-1.1,1.4-1.9,1.9c-0.8,0.5-1.6,1-2.6,1.3
				C159.5,290.5,158.4,290.7,157.2,290.7z M156.9,273.5c-1.5,0-2.7,0.5-3.5,1.4c-0.8,0.9-1.3,2.2-1.5,3.7h9.7
				c-0.1-1.6-0.6-2.9-1.4-3.8C159.5,273.9,158.3,273.5,156.9,273.5z"/>
			<path d="M166.7,270.6h3v-6.2h4.6v6.2h3.9v3.2h-3.9v10.9c0,0.7,0.2,1.2,0.5,1.4c0.4,0.3,0.9,0.4,1.5,0.4c0.2,0,0.5,0,0.8,0
				s0.5-0.1,0.7-0.1h0.2v3.6c-0.4,0.1-0.8,0.1-1.4,0.2c-0.5,0.1-1.1,0.1-1.7,0.1c-0.8,0-1.5-0.1-2.2-0.2c-0.7-0.2-1.2-0.4-1.7-0.8
				c-0.5-0.4-0.8-0.8-1.1-1.4c-0.3-0.6-0.4-1.3-0.4-2.2v-11.9h-3V270.6z"/>
			<path d="M192.6,290.1c-0.2-0.2-0.3-0.5-0.4-0.9c-0.1-0.4-0.2-0.9-0.2-1.6h-0.1c-0.6,0.9-1.4,1.6-2.4,2.1s-2.2,0.9-3.8,0.9
				c-0.9,0-1.8-0.1-2.6-0.4s-1.5-0.6-2.1-1.1c-0.6-0.5-1-1.1-1.4-1.8c-0.3-0.7-0.5-1.6-0.5-2.5c0-1.1,0.2-2,0.6-2.7
				c0.4-0.7,1-1.3,1.7-1.7c0.7-0.4,1.5-0.8,2.5-1c1-0.2,2-0.4,3.2-0.6c1.6-0.2,2.8-0.5,3.6-0.8c0.8-0.4,1.2-1,1.2-1.8
				c0-0.9-0.3-1.5-0.9-2c-0.6-0.5-1.5-0.8-2.6-0.8c-1.3,0-2.3,0.3-2.9,0.8c-0.6,0.6-1,1.3-1,2.3H180c0-0.8,0.2-1.6,0.6-2.4
				c0.4-0.8,0.9-1.4,1.6-2c0.7-0.6,1.6-1.1,2.6-1.4c1-0.4,2.2-0.5,3.6-0.5c1.1,0,2.1,0.1,3,0.3c0.9,0.2,1.6,0.5,2.2,0.9
				c1.9,1.1,2.8,3,2.8,5.6V287c0,0.8,0.1,1.4,0.2,1.9c0.1,0.4,0.3,0.7,0.5,0.9v0.3H192.6z M187.1,287.4c0.8,0,1.5-0.1,2.1-0.4
				c0.6-0.3,1.1-0.6,1.5-1c0.4-0.4,0.7-0.9,0.9-1.4c0.2-0.5,0.3-1.1,0.3-1.6v-2.9c-0.5,0.3-1,0.5-1.7,0.7c-0.7,0.2-1.4,0.4-2.1,0.5
				c-1.4,0.3-2.5,0.6-3.3,1c-0.8,0.4-1.2,1.2-1.2,2.2c0,0.5,0.1,0.9,0.3,1.3c0.2,0.4,0.4,0.6,0.7,0.8c0.3,0.2,0.7,0.4,1.1,0.4
				C186.2,287.4,186.6,287.4,187.1,287.4z"/>
			<path d="M196.8,270.6h3v-6.2h4.6v6.2h3.9v3.2h-3.9v10.9c0,0.7,0.2,1.2,0.5,1.4c0.4,0.3,0.9,0.4,1.5,0.4c0.2,0,0.5,0,0.8,0
				s0.5-0.1,0.7-0.1h0.2v3.6c-0.4,0.1-0.8,0.1-1.4,0.2c-0.5,0.1-1.1,0.1-1.7,0.1c-0.8,0-1.5-0.1-2.2-0.2c-0.7-0.2-1.2-0.4-1.7-0.8
				c-0.5-0.4-0.8-0.8-1.1-1.4c-0.3-0.6-0.4-1.3-0.4-2.2v-11.9h-3V270.6z"/>
			<path d="M218.9,290.7c-1.6,0-3-0.3-4.2-0.8c-1.2-0.5-2.3-1.3-3.1-2.2c-0.9-0.9-1.5-2-2-3.3c-0.5-1.3-0.7-2.6-0.7-4
				c0-1.5,0.2-2.8,0.7-4.1c0.5-1.3,1.1-2.3,2-3.3c0.9-0.9,1.9-1.6,3.1-2.2c1.2-0.5,2.5-0.8,3.9-0.8c1.4,0,2.7,0.2,3.8,0.7
				c1.1,0.5,2.1,1.2,2.9,2c0.9,1,1.7,2.3,2.1,3.7c0.5,1.5,0.7,3.1,0.7,5h-14.6c0.2,1.7,0.7,3,1.6,4.1c0.9,1,2.1,1.6,3.8,1.6
				c1.1,0,2-0.2,2.8-0.7c0.7-0.5,1.2-1.1,1.6-1.9h4.5c-0.2,0.9-0.6,1.7-1.1,2.4c-0.5,0.7-1.1,1.4-1.9,1.9c-0.8,0.5-1.6,1-2.6,1.3
				C221.2,290.5,220.1,290.7,218.9,290.7z M218.6,273.5c-1.5,0-2.7,0.5-3.5,1.4c-0.8,0.9-1.3,2.2-1.5,3.7h9.7
				c-0.1-1.6-0.6-2.9-1.4-3.8C221.2,273.9,220,273.5,218.6,273.5z"/>
			<path d="M234.4,273.5h0.1c0.6-1.1,1.5-1.9,2.5-2.5c1-0.6,2.2-0.9,3.6-0.9c2.1,0,3.8,0.6,5,1.8c1.2,1.2,1.8,2.9,1.8,5v13.2h-4.6
				v-12.5c0-1.2-0.3-2.1-1-2.7c-0.6-0.7-1.6-1-2.8-1c-0.7,0-1.3,0.1-1.8,0.3c-0.5,0.2-1,0.6-1.4,1c-0.4,0.4-0.7,0.9-0.9,1.5
				s-0.3,1.2-0.3,1.9v11.4h-4.6v-19.5h4.5V273.5z"/>
		</g>
	</g>
	<path class="st0" d="M78.2,149.6c0,19.3,28.7,34.9,64,34.9c35.3,0,64-15.6,64-34.9c0-13.3-13.6-24.9-33.7-30.8l-30.2,30.8V132
		l30.2-30.5c-9-2.6-19.4-4.1-30.4-4.1l0,17.2C106.8,114.7,78.2,130.3,78.2,149.6z"/>
</g>
</svg>
