<svg width="229" height="36" viewBox="0 0 229 36" fill="none" xmlns="http://www.w3.org/2000/svg">
<path fill-rule="evenodd" clip-rule="evenodd" d="M62.0251 13.1116C65.7181 13.1116 67.3561 16.2066 67.3561 19.5606C67.3561 23.0196 65.4831 26.2166 61.7141 26.2166C60.4391 26.2166 59.0621 25.7236 58.2811 24.7606V31.0536C58.2811 31.4426 58.0481 31.5476 57.7101 31.5476H56.5651C56.2281 31.5476 56.0711 31.3646 56.0711 31.0006V13.8666C56.0711 13.5026 56.2281 13.3986 56.5651 13.3986H57.5541C57.9431 13.3986 58.1511 13.5026 58.1511 13.8666V14.7766C58.9831 13.7886 60.5441 13.1116 62.0251 13.1116ZM224.388 9.65364C224.727 9.65364 224.882 9.83564 224.882 10.2266V13.3466H227.821C228.132 13.3466 228.315 13.4506 228.315 13.7886V15.0106C228.315 15.3226 228.107 15.5046 227.795 15.5046H224.882V21.4586C224.882 22.2386 224.935 22.8116 225.22 23.2276C225.455 23.5646 225.819 23.7726 226.443 23.7726C227.093 23.7726 227.639 23.6166 228.107 23.4606C228.211 23.4356 228.315 23.4086 228.393 23.4086C228.548 23.4086 228.653 23.4866 228.705 23.7206L228.964 25.0216C229.017 25.3326 228.913 25.5406 228.601 25.6706C227.795 26.0086 226.729 26.2696 225.689 26.2696C224.363 26.2696 223.218 25.9316 222.569 25.1766C221.804 24.3155 221.742 23.3125 221.737 21.5955L221.737 15.5046H220.514C220.021 15.5046 219.943 15.3996 219.943 14.8546V13.8666C219.943 13.5546 220.098 13.3466 220.411 13.3466H221.737V10.5126C221.737 10.0696 221.97 9.93964 222.386 9.88864L224.388 9.65364ZM202.237 13.0082C203.823 13.0082 205.123 13.6062 206.033 14.5682C207.229 15.8162 207.567 17.4542 207.567 19.2222V19.6122C207.567 20.2372 207.359 20.3672 206.709 20.3672H199.091C199.299 22.3692 200.755 23.7472 202.809 23.7472C203.901 23.7472 204.994 23.5122 206.007 23.1232C206.293 23.0192 206.553 22.9662 206.658 23.3572L207.021 24.6832C207.047 24.8132 207.074 24.9162 207.074 24.9952C207.074 25.1762 206.969 25.3072 206.658 25.4372C205.383 26.0082 203.641 26.2692 202.288 26.2692C198.206 26.2692 195.788 23.6682 195.788 19.6122C195.788 15.7122 198.363 13.0082 202.237 13.0082ZM213.989 13.0082C215.237 13.0082 216.459 13.2162 217.759 13.7882C217.967 13.8922 218.071 13.9962 218.071 14.1522C218.071 14.2302 218.045 14.3082 218.019 14.4122L217.577 15.8162C217.525 15.9982 217.394 16.1022 217.213 16.1022C217.135 16.1022 217.031 16.0762 216.953 16.0502C216.094 15.7122 214.976 15.4262 214.144 15.4262C213.052 15.4262 212.507 16.0242 212.507 16.6222C212.507 17.1942 212.793 17.5582 213.781 17.9482L216.121 18.9102C217.499 19.4822 218.591 20.5482 218.591 22.2392C218.591 24.9682 216.224 26.2692 213.573 26.2692C212.22 26.2692 210.738 25.8782 209.568 25.3592C209.335 25.2542 209.257 25.0992 209.257 24.9432C209.257 24.8652 209.283 24.7872 209.308 24.7082L209.724 23.3822C209.802 23.1232 209.932 23.0192 210.115 23.0192C210.192 23.0192 210.27 23.0192 210.375 23.0712C211.518 23.5392 212.741 23.8762 213.65 23.8762C214.795 23.8762 215.575 23.3572 215.575 22.4982C215.575 21.7712 215.081 21.3802 214.014 20.9642L211.961 20.1842C210.478 19.6382 209.283 18.4942 209.283 16.7262C209.283 14.1782 211.675 13.0082 213.989 13.0082ZM122.993 13.1116C124.293 13.1116 125.697 13.6586 126.477 14.6986L126.503 13.8406C126.503 13.5276 126.711 13.3986 126.997 13.3986H128.167C128.48 13.3986 128.635 13.5546 128.635 13.8926V22.9926C128.635 23.5906 128.661 24.0066 128.765 24.1626C128.869 24.3446 128.999 24.3976 129.207 24.3976H129.389C129.623 24.3976 129.753 24.4486 129.753 24.7346V25.6186C129.753 25.8786 129.623 25.9566 129.363 25.9566H128.271C127.127 25.9566 126.581 25.0726 126.581 24.0326H126.529C125.931 25.1766 124.215 26.2166 122.629 26.2166C119.041 26.2166 117.454 23.1746 117.454 19.8986C117.454 15.5566 120.029 13.1116 122.993 13.1116ZM106.129 7.47034C106.389 7.47034 106.545 7.60034 106.545 7.91134V14.5943C107.351 13.8143 108.703 13.1123 110.289 13.1123C111.694 13.1123 112.759 13.5543 113.591 14.2823C114.944 15.4783 115.568 17.4803 115.568 19.6383C115.568 23.2013 113.747 26.2163 109.873 26.2163C108.547 26.2163 107.143 25.4893 106.389 24.6053L106.337 25.5403C106.311 25.8533 106.181 25.9563 105.818 25.9563H104.829C104.492 25.9563 104.335 25.8273 104.335 25.4623V8.19834C104.335 7.86034 104.387 7.70334 104.725 7.65234C106.051 7.47034 106.077 7.47034 106.129 7.47034ZM74.781 13.1116C76.081 13.1116 77.485 13.6586 78.265 14.6986L78.291 13.8406C78.291 13.5276 78.499 13.3986 78.785 13.3986H79.955C80.267 13.3986 80.423 13.5546 80.423 13.8926V22.9926C80.423 23.5906 80.449 24.0066 80.553 24.1626C80.657 24.3446 80.787 24.3976 80.995 24.3976H81.177C81.411 24.3976 81.541 24.4486 81.541 24.7346V25.6186C81.541 25.8786 81.411 25.9566 81.151 25.9566H80.06C78.915 25.9566 78.369 25.0726 78.369 24.0326H78.317C77.719 25.1766 76.003 26.2166 74.417 26.2166C70.829 26.2166 69.243 23.1746 69.243 19.8986C69.243 15.5566 71.817 13.1116 74.781 13.1116ZM96.8653 13.1123C98.3463 13.1123 99.5433 13.6583 100.401 14.5423C101.441 15.6083 101.883 17.1423 101.883 18.8323V19.2743C101.883 19.8723 101.779 20.0023 101.102 20.0023H93.1213C93.1983 22.4723 94.6023 24.3973 97.2283 24.3973C98.2953 24.3973 99.4653 24.1893 100.348 23.8513C100.583 23.7733 100.843 23.7203 100.921 24.0333L101.207 24.9943C101.285 25.2293 101.155 25.3323 100.921 25.4623C99.8033 25.9833 98.1383 26.2163 96.9423 26.2163C92.9383 26.2163 90.8063 23.5903 90.8063 19.6643C90.8063 15.9463 93.1213 13.1123 96.8653 13.1123ZM161.925 13.1123C163.406 13.1123 164.603 13.6583 165.461 14.5423C166.501 15.6083 166.943 17.1423 166.943 18.8323V19.2743C166.943 19.8723 166.839 20.0023 166.163 20.0023H158.181C158.259 22.4723 159.662 24.3973 162.288 24.3973C163.355 24.3973 164.525 24.1893 165.408 23.8513C165.643 23.7733 165.903 23.7203 165.981 24.0333L166.267 24.9943C166.345 25.2293 166.215 25.3323 165.981 25.4623C164.863 25.9833 163.198 26.2163 162.003 26.2163C157.998 26.2163 155.866 23.5903 155.866 19.6643C155.866 15.9463 158.181 13.1123 161.925 13.1123ZM48.1549 7.73004C49.6899 7.73004 50.9379 7.93804 52.2889 8.51004C52.5489 8.61404 52.7049 8.74404 52.7049 8.95204C52.7049 9.03004 52.6789 9.10804 52.6539 9.18604L52.2629 10.252C52.1859 10.46 52.0559 10.538 51.8999 10.538C51.7949 10.538 51.6919 10.512 51.5869 10.46C50.5469 10.018 49.3249 9.70604 48.2849 9.70604C46.8289 9.70604 45.1389 10.382 45.1389 12.124C45.1389 13.476 46.0749 14.23 47.1669 14.802L49.9489 16.284C51.9779 17.377 53.4859 18.676 53.4859 21.094C53.4859 24.501 50.6519 26.216 47.4529 26.216C46.0489 26.216 44.5149 25.957 43.0849 25.489C42.7469 25.384 42.6689 25.125 42.7469 24.839L43.0849 23.669C43.1889 23.331 43.4489 23.279 43.7609 23.409C44.9309 23.851 46.2319 24.163 47.4529 24.163C49.2209 24.163 51.0929 23.331 51.0929 21.277C51.0929 19.821 50.0789 18.988 48.8049 18.312L45.5029 16.545C43.7869 15.608 42.6429 14.204 42.6429 12.332C42.6429 9.34204 45.4249 7.73004 48.1549 7.73004ZM138.533 13.1118C141.523 13.1118 142.668 14.9318 142.668 17.7658V25.4108C142.668 25.7748 142.537 25.9568 142.174 25.9568H140.951C140.613 25.9568 140.457 25.7748 140.457 25.4108V18.1308C140.457 16.2848 139.989 14.9578 137.909 14.9578C136.713 14.9578 135.231 15.6348 134.321 16.4668V25.4108C134.321 25.7748 134.165 25.9568 133.827 25.9568H132.605C132.293 25.9568 132.111 25.7748 132.111 25.4368V13.9178C132.111 13.5548 132.241 13.3978 132.605 13.3978H133.749C134.062 13.3978 134.243 13.5278 134.243 13.8668L134.27 14.6728C135.465 13.6588 137.025 13.1118 138.533 13.1118ZM89.0484 13.1124C89.2294 13.1124 89.5424 13.1384 89.8024 13.1904C90.0354 13.2424 90.0354 13.4504 90.0104 13.6324L89.8274 14.8024C89.8024 14.9844 89.6974 15.0624 89.5424 15.0624C89.3334 15.0624 89.1774 14.9844 88.7104 14.9844C87.8004 14.9844 86.7854 15.5824 86.1094 16.5444V25.4104C86.1094 25.7484 85.9534 25.9564 85.6154 25.9564H84.3934C84.0554 25.9564 83.8994 25.7754 83.8994 25.4104V13.9184C83.8994 13.5284 84.0814 13.3984 84.3934 13.3984H85.5114C85.8494 13.3984 86.0314 13.5284 86.0314 13.8664L86.0574 14.7504C86.6814 13.8924 87.6694 13.1124 89.0484 13.1124ZM175.816 13.1118C178.806 13.1118 179.951 14.9318 179.951 17.7658V25.4108C179.951 25.7748 179.82 25.9568 179.457 25.9568H178.234C177.896 25.9568 177.74 25.7748 177.74 25.4108V18.1308C177.74 16.2848 177.272 14.9578 175.192 14.9578C173.996 14.9578 172.514 15.6348 171.604 16.4668V25.4108C171.604 25.7748 171.448 25.9568 171.11 25.9568H169.888C169.576 25.9568 169.394 25.7748 169.394 25.4368V13.9178C169.394 13.5548 169.524 13.3978 169.888 13.3978H171.032C171.345 13.3978 171.526 13.5278 171.526 13.8668L171.553 14.6728C172.748 13.6588 174.308 13.1118 175.816 13.1118ZM183.413 7.96414C183.959 7.96414 184.219 8.14614 184.35 8.51014L188.951 21.3551H189.029L193.371 8.58814C193.527 8.12014 193.762 7.96414 194.359 7.96414H196.18C196.674 7.96414 196.752 8.27614 196.622 8.61414L190.512 25.3841C190.382 25.7491 190.096 25.9571 189.705 25.9571H187.963C187.47 25.9571 187.235 25.7491 187.079 25.3071L180.684 8.69214C180.527 8.30214 180.631 7.93814 181.125 7.96414H183.413ZM147.624 7.44434C147.885 7.44434 148.067 7.60034 148.067 7.93834V18.4163H148.118L152.149 13.6843C152.331 13.4763 152.461 13.3983 152.695 13.3983H154.385C154.671 13.3983 154.671 13.6323 154.515 13.7883L150.407 18.4683L155.061 25.3073C155.295 25.6453 155.295 25.9563 154.775 25.9563H153.345C152.954 25.9563 152.721 25.8273 152.513 25.5153L148.639 19.6913L148.067 20.2623V25.3843C148.067 25.8003 147.885 25.9563 147.546 25.9563H146.325C146.013 25.9563 145.857 25.7753 145.857 25.4373V8.17234C145.857 7.83434 145.96 7.70334 146.273 7.65234C147.521 7.47034 147.573 7.44434 147.624 7.44434ZM61.5841 14.8806C60.3611 14.8806 58.9321 15.6086 58.2811 16.5446V22.6546C58.8271 23.6686 60.1531 24.4756 61.4281 24.4756C64.1051 24.4756 65.0421 21.9266 65.0421 19.6126C65.0421 17.3506 64.2881 14.8806 61.5841 14.8806ZM109.847 14.9323C108.652 14.9323 107.351 15.6343 106.545 16.4923V22.7063C107.247 23.6953 108.391 24.4223 109.639 24.4223C112.24 24.4223 113.253 22.2393 113.253 19.7433C113.253 16.9863 112.291 14.9323 109.847 14.9323ZM75.067 14.8806C73.065 14.8806 71.557 16.6486 71.557 19.7426C71.557 22.6036 72.883 24.3706 74.755 24.3706C76.419 24.3706 77.745 23.0446 78.213 21.7446V16.7526C77.589 15.5826 76.316 14.8806 75.067 14.8806ZM123.279 14.8806C121.277 14.8806 119.769 16.6486 119.769 19.7426C119.769 22.6036 121.095 24.3706 122.967 24.3706C124.631 24.3706 125.957 23.0446 126.425 21.7446V16.7526C125.801 15.5826 124.527 14.8806 123.279 14.8806ZM161.821 14.8283C159.662 14.8283 158.441 16.5703 158.233 18.4943H164.759V18.1303C164.759 16.3623 163.797 14.8283 161.821 14.8283ZM96.7613 14.8283C94.6023 14.8283 93.3813 16.5703 93.1733 18.4943H99.6993V18.1303C99.6993 16.3623 98.7373 14.8283 96.7613 14.8283ZM202.055 15.4262C200.365 15.4262 199.351 16.7782 199.143 18.3122H204.473V18.0262C204.421 16.6742 203.641 15.4262 202.055 15.4262Z" fill="#575756"/>
<path fill-rule="evenodd" clip-rule="evenodd" d="M32.3961 11.0401C32.4361 9.64513 32.3991 8.41513 32.2981 7.33713C32.2921 7.27813 32.2831 7.22713 32.2771 7.16813C32.2791 7.16613 32.2801 7.16513 32.2811 7.16313C32.2671 7.01813 32.2471 6.88613 32.2281 6.75113L32.0611 7.04413C31.2611 8.44313 30.4911 9.55913 29.5631 10.6631C21.1171 20.7151 14.6231 21.2241 13.4071 21.2241C12.7461 21.2241 12.3601 21.1141 12.1531 21.0221C11.5841 20.7701 11.0281 19.9671 10.6651 18.8731C10.0751 17.0991 9.20411 12.0831 13.8281 3.83813C14.1161 3.32413 14.4331 2.80013 14.7691 2.28113L14.9281 2.03613C14.8061 2.07313 14.6821 2.10613 14.5601 2.14413V2.14513C13.7071 2.41313 12.8611 2.69713 12.0231 2.99713C11.8981 3.04113 11.7771 3.09313 11.6531 3.13813C7.78411 9.38813 5.92311 16.5381 6.28811 23.8471C6.37311 25.5531 6.57911 27.2621 6.90011 28.9261L6.95311 29.2021L7.22111 29.1171C8.48211 28.7181 9.74411 28.2651 10.9731 27.7691C19.4441 24.3531 26.8351 18.7091 32.3841 11.4531C32.3881 11.3151 32.3921 11.1771 32.3961 11.0401Z" fill="white"/>
<path fill-rule="evenodd" clip-rule="evenodd" d="M12.0235 2.99619C8.18849 9.07419 6.16249 16.3072 6.53749 23.8342C6.62049 25.5052 6.81949 27.1892 7.14549 28.8792C8.41749 28.4762 9.66249 28.0282 10.8795 27.5372C19.6755 23.9892 27.0015 18.1952 32.3965 11.0402C32.3905 11.2512 32.3865 11.4572 32.3775 11.6752C32.2225 15.2072 31.7975 18.6852 31.1235 22.0862C30.4895 25.2782 28.5085 28.0532 25.7055 29.7062C20.8295 32.5822 15.4125 34.6352 9.63949 35.6662C6.00249 36.3162 3.00349 35.9562 1.98949 35.1182C0.97549 34.2812 0.0534902 31.4052 0.00449022 27.7102C-0.0755098 21.8462 0.91549 16.1382 2.81649 10.8072C3.91049 7.74119 6.25849 5.27119 9.27349 4.04519C10.1795 3.67619 11.0975 3.32819 12.0235 2.99619ZM19.2592 0.843794C25.2612 -0.588206 28.5292 -0.0132059 29.9972 1.19879C31.0492 2.06779 31.9532 3.91579 32.2812 7.16279C31.4722 8.57779 30.6902 9.70979 29.7542 10.8238C21.2112 20.9908 13.9272 22.0838 12.0522 21.2508C10.1772 20.4188 7.79619 14.0818 13.6102 3.71679C13.9092 3.18179 14.2262 2.65779 14.5592 2.14479C16.1032 1.65879 17.6692 1.22279 19.2592 0.843794Z" fill="#DD1D1F"/>
</svg>
