<?xml version="1.0" encoding="UTF-8" standalone="no"?>
<!-- Created with Inkscape (http://www.inkscape.org/) -->

<svg
   version="1.1"
   id="svg2"
   xml:space="preserve"
   width="604.23999"
   height="316.32001"
   viewBox="0 0 604.23999 316.32001"
   sodipodi:docname="statensvegvesen-logo-farger-positiv.eps"
   xmlns:inkscape="http://www.inkscape.org/namespaces/inkscape"
   xmlns:sodipodi="http://sodipodi.sourceforge.net/DTD/sodipodi-0.dtd"
   xmlns="http://www.w3.org/2000/svg"
   xmlns:svg="http://www.w3.org/2000/svg"><defs
     id="defs6" /><sodipodi:namedview
     id="namedview4"
     pagecolor="#ffffff"
     bordercolor="#666666"
     borderopacity="1.0"
     inkscape:pageshadow="2"
     inkscape:pageopacity="0.0"
     inkscape:pagecheckerboard="0" /><g
     id="g8"
     inkscape:groupmode="layer"
     inkscape:label="ink_ext_XXXXXX"
     transform="matrix(1.3333333,0,0,-1.3333333,0,316.32)"><g
       id="g10"
       transform="scale(0.1)"><path
         d="m 3310.65,1574.23 -45.38,-51.16 c -86.41,0 -443.6,0 -443.6,0 -15.55,-1.8 -12.5,-21.41 0,-22.66 h 423.48 l -50.8,-57.27 c -55.06,0 -330.73,0 -330.73,0 -13.9,0 -12.5,-22.54 -0.62,-22.54 h 311.35 l -48.77,-54.96 c 0,0 -8.6,-11.09 -22.81,-11.09 h -171.65 c -58.35,0 -71.95,-35.2 -63.51,-55.55 15.93,-38.01 47.42,-95.7 -45.94,-95.7 -92.81,0 -235.31,0 -235.31,0 -18.59,-27.05 -37.42,-55.49 -37.42,-55.49 -1.02,-14.77 8.04,-76.25 -55.32,-78.67 -50.15,-2.11 -68.9,34.22 -39.06,77.19 0,0 69.92,123.77 77.19,137.05 6.72,13.08 12.89,16.13 29.22,16.13 h 174.45 c 36.72,0 25.62,32.62 17.11,46.95 -8.59,14.42 -56.72,98.25 -68.51,118.56 -11.96,20.27 -8.6,28.83 -2.66,40.78 5.78,11.68 26.95,48.91 35.47,63.43 8.59,14.38 10.34,16.86 21.4,17.59 h 567.5 c 9.14,0 10.79,-6.02 4.92,-12.59 z m -1231.5,-427.9 c 29.85,-42.97 11.1,-79.3 -39.06,-77.19 -63.36,2.42 -54.3,63.9 -55.31,78.67 0,0 -18.83,28.44 -37.42,55.49 0,0 -142.5,0 -235.32,0 -93.36,0 -61.87,57.69 -45.93,95.7 8.43,20.35 -5.16,55.55 -63.52,55.55 h -171.65 c -14.21,0 -22.81,11.09 -22.81,11.09 l -48.76,54.96 h 311.34 c 11.88,0 13.29,22.54 -0.62,22.54 0,0 -275.67,0 -330.72,0 l -50.81,57.27 h 423.48 c 12.5,1.25 15.55,20.86 0,22.66 0,0 -357.19,0 -443.58,0 l -45.41,51.16 c -5.86,6.57 -4.22,12.59 4.93,12.59 h 567.5 c 11.06,-0.73 12.81,-3.21 21.41,-17.59 8.51,-14.52 29.68,-51.75 35.47,-63.43 5.93,-11.95 9.29,-20.51 -2.66,-40.78 -11.8,-20.31 -59.92,-104.14 -68.52,-118.56 -8.51,-14.33 -19.61,-46.95 17.11,-46.95 h 174.46 c 16.32,0 22.5,-3.05 29.21,-16.13 7.27,-13.28 77.19,-137.05 77.19,-137.05 z m 351.53,341.27 -128.54,-232.89 c -4.12,-7.14 -13.77,-23.86 -35.35,-24.03 -21.51,0.18 -31.15,17.37 -35.29,24.73 l -128.91,232.71 c -6.8,10.7 -8.71,22.74 -5.37,33.91 l 0.8,2.7 1.41,2.43 c 4.76,8.18 15.33,17.73 29.49,17.73 h 276.01 c 15.24,0 26.64,-10.61 30.75,-20.47 l 0.44,-1.02 0.34,-1.06 c 3.61,-11.51 1.56,-23.85 -5.78,-34.74 z m 186.68,150.43 c -2.58,5.62 -10.87,13.47 -21.1,13.47 h -657.73 c -10.16,0 -18.36,-7.85 -21.17,-13.47 -4.07,-12.23 0,-24.34 6.48,-34.57 l 301.33,-546.43 c 9.51,-14.97 22.79,-40.78 42.11,-40.78 18.8,0 32.5,25.58 42.26,40.78 l 301.41,546.43 c 6.41,10.23 10.47,22.34 6.41,34.57 z m -645.35,330.16 c -6.81,4.02 -13.81,5.6 -22.24,4.35 1.56,4.37 1.56,7.81 1.87,12.19 0.18,2.42 -0.33,4.84 -0.86,7.21 -3.2,9.35 -9.61,14.14 -17.52,17.34 32.72,20.25 79.24,13.23 117.46,7.65 0,0 2.19,-0.32 4.05,-0.59 v -5.05 c -9.04,-2.04 -15.63,-10.45 -18.13,-21.37 -0.33,-1.72 -0.49,-3.35 -0.49,-4.91 0,-5 0.9,-8.13 2.68,-12.16 -7.95,1.93 -16.89,2.58 -24.53,-4.82 -11.45,-12.22 -15.51,-31.78 -11.27,-53.78 2.99,-10.35 9.12,-18.65 16.5,-22.53 11.31,-5.23 23.46,-1.67 32.42,3.99 -1.91,-15.54 -19.21,-25.76 -24.96,-28.7 -15.15,-7.58 -39.21,-8.62 -58.47,-2.52 -12.37,4.14 -26.57,16.8 -30.63,29.61 7.99,-4.36 17.72,-8.65 28.11,-5.99 10.19,3.8 17.15,13.26 20.99,28.2 3.36,23.02 -2.85,43.42 -14.98,51.88 z m 193.8,-20.99 c -2.07,11.12 -7.89,18.69 -13.01,22.21 -7.09,4.87 -15.68,4.2 -22.28,3.04 1.68,4.33 2.97,8.93 2.97,13.61 0,5.09 -1.31,10.07 -4.59,14.26 -2.52,3.06 -6.19,6.8 -10.9,8.54 1.62,3.83 5.53,7.4 10.62,9.89 13.42,5.23 30.32,7.96 47.19,8.1 16.88,0.15 33.79,-2.87 47.19,-8.1 5.12,-2.49 9,-6.06 10.64,-9.89 -4.7,-1.74 -8.37,-5.48 -10.91,-8.54 -3.29,-4.19 -4.57,-9.17 -4.57,-14.26 0,-4.68 1.28,-9.28 2.96,-13.61 -6.6,1.16 -15.19,1.83 -22.28,-3.04 -5.12,-3.52 -10.94,-11.09 -13.01,-22.21 -3.34,-18.63 -2.52,-45.99 16.31,-56.35 12.36,-5.89 23.83,-0.73 33.42,4.43 -1.13,-7.91 -9.22,-18.85 -15.1,-23.1 -13.69,-8.48 -29.49,-12.07 -44.65,-12.04 -15.13,0.04 -30.94,3.56 -44.65,12.04 -5.86,4.25 -13.96,15.19 -15.07,23.1 9.59,-5.16 21.05,-10.32 33.41,-4.43 18.81,10.36 19.65,37.72 16.31,56.35 z m 166.48,-56.43 c 18.82,10.36 19.64,37.72 16.32,56.35 -2.1,11.12 -7.91,18.69 -13.03,22.21 -7.07,4.87 -15.67,4.2 -22.28,3.04 1.67,4.34 2.97,8.93 2.97,13.61 0,5.09 -1.3,10.07 -4.58,14.26 -2.53,3.06 -6.2,6.8 -10.92,8.54 1.64,3.84 5.55,7.4 10.65,9.89 13.39,5.23 30.31,7.96 47.19,8.11 16.87,0.14 33.78,-2.88 47.18,-8.11 5.1,-2.49 9,-6.05 10.65,-9.89 -4.73,-1.74 -8.4,-5.48 -10.92,-8.54 -3.28,-4.19 -4.59,-9.17 -4.59,-14.26 0,-4.68 1.31,-9.27 2.97,-13.61 -6.61,1.16 -15.2,1.83 -22.27,-3.04 -5.13,-3.52 -10.95,-11.09 -13.02,-22.21 -3.35,-18.63 -2.5,-45.99 16.3,-56.35 12.37,-5.89 23.83,-0.73 33.44,4.43 -1.13,-7.91 -9.22,-18.84 -15.1,-23.1 -13.71,-8.48 -29.49,-12.07 -44.64,-12.03 -15.16,0.04 -30.94,3.55 -44.65,12.03 -5.88,4.26 -13.97,15.19 -15.1,23.1 9.61,-5.16 21.07,-10.32 33.43,-4.43 z m 147.35,125.57 c 1.85,0.27 4.04,0.59 4.04,0.59 38.22,5.58 84.75,12.6 117.46,-7.65 -7.91,-3.2 -14.31,-7.99 -17.52,-17.34 -0.52,-2.37 -1.03,-4.79 -0.85,-7.21 0.31,-4.38 0.31,-7.82 1.87,-12.19 -8.44,1.25 -15.43,-0.33 -22.25,-4.35 -12.13,-8.46 -18.34,-28.86 -14.98,-51.88 3.85,-14.94 10.8,-24.4 21,-28.2 10.39,-2.66 20.12,1.63 28.11,5.99 -4.07,-12.81 -18.27,-25.47 -30.63,-29.61 -19.26,-6.1 -43.32,-5.06 -58.48,2.52 -5.74,2.94 -23.04,13.16 -24.96,28.7 8.97,-5.66 21.11,-9.22 32.42,-3.99 7.39,3.88 13.52,12.18 16.51,22.53 4.24,22 0.17,41.56 -11.27,53.78 -7.64,7.4 -16.58,6.75 -24.53,4.82 1.78,4.03 2.67,7.16 2.67,12.16 0,1.56 -0.15,3.19 -0.49,4.91 -2.5,10.92 -9.1,19.33 -18.12,21.37 z m 116.85,-268.02 57.38,237.58 c -1.02,18.2 -7.04,35.22 -16.96,49.37 -44.21,57.03 -133.67,33.55 -191.79,17.11 -37.34,31.52 -92.24,20.82 -134.23,10.35 -4.96,-1.24 -10.1,-0.21 -11.97,4 -1.55,4.08 0.74,8.26 2.65,9.71 13.56,10.28 22.35,26.5 22.35,44.81 0,25.85 -17.46,47.57 -41.22,54.16 v 51.89 h 35.62 v 29.61 h -35.62 v 34.22 h -30.32 v -34.22 h -35.46 v -29.61 h 35.46 v -51.96 c -23.62,-6.66 -40.96,-28.33 -40.96,-54.09 0,-18.64 9.1,-35.12 23.08,-45.36 1.92,-1.44 3.01,-5.66 1.92,-8.94 -1.88,-4.22 -6.2,-5.56 -11.14,-4.22 -41.6,11.25 -98.28,21.41 -135.62,-10.11 -58.13,16.44 -147.58,39.92 -191.8,-17.11 -9.9,-14.16 -15.93,-31.18 -16.95,-49.38 l 57.42,-237.81 h 658.16"
         style="fill:#fcd213;fill-opacity:1;fill-rule:nonzero;stroke:none"
         id="path12" /><path
         d="m 2479.64,2016.34 c 1.85,0.27 4.04,0.59 4.04,0.59 38.22,5.58 84.75,12.6 117.46,-7.65 -7.91,-3.2 -14.31,-7.99 -17.52,-17.34 -0.52,-2.37 -1.03,-4.79 -0.85,-7.21 0.31,-4.38 0.31,-7.82 1.87,-12.19 -8.44,1.25 -15.43,-0.33 -22.25,-4.35 -12.13,-8.46 -18.34,-28.86 -14.98,-51.88 3.85,-14.94 10.8,-24.4 21,-28.2 10.39,-2.66 20.12,1.63 28.11,5.99 -4.07,-12.81 -18.27,-25.47 -30.63,-29.61 -19.26,-6.1 -43.32,-5.06 -58.48,2.52 -5.74,2.94 -23.04,13.16 -24.96,28.7 8.97,-5.66 21.11,-9.22 32.42,-3.99 7.39,3.88 13.52,12.18 16.51,22.53 4.24,22 0.17,41.56 -11.27,53.78 -7.64,7.4 -16.58,6.75 -24.53,4.82 1.78,4.03 2.67,7.16 2.67,12.16 0,1.56 -0.15,3.19 -0.49,4.91 -2.5,10.92 -9.1,19.33 -18.12,21.37 z m -19.04,-17.19 1.76,0.06 c 0.07,0 5.91,-0.07 10.07,-3.69 3.57,-2.89 5.43,-7.32 5.88,-12.08 0.52,-6.66 -3.65,-12.43 -7.69,-18.02 -4.43,-6.14 -10.68,-13.88 -5.63,-20.19 5.53,-6.88 14.17,-1.29 20.16,3.55 4.25,3.45 8.75,6.92 13.85,7.23 3.24,0.31 7.61,-0.41 9.57,-3 6.02,-9.24 7.42,-23.71 3.54,-35.84 -0.71,-2.1 -3.65,-7.53 -7.82,-8.51 -6.19,-1.74 -11.44,1.84 -16.96,5.06 -7.49,4.4 -20.93,9.38 -23.43,-1.36 -3.69,-15.8 1.13,-34.01 12.91,-47.68 26.17,-27.35 72.33,-28.86 103.65,-14.92 24.22,10.79 35,32.04 36,58.34 -0.27,9.06 -6.1,10.31 -9.07,9.49 -5.57,-1.05 -10.15,-3.55 -15.84,-5.89 -7.89,-3.26 -13.74,-8.03 -20.58,-1.61 -7.38,10.99 -4.78,31.66 0.74,39.65 3.28,5.02 10.2,4.86 13.68,3.86 3.3,-1.23 7.26,-3.53 10.82,-6.35 6.18,-4.88 14.56,-11.39 19.86,-2.79 3.16,5.12 -3.3,13.44 -6.57,18.96 -2.82,4.77 -5.74,9.71 -6.54,14.94 -0.88,10.12 8.04,15.21 11.38,16.79 5.86,2.57 17.95,3.89 17.95,3.89 -9.02,23.53 -32.16,38.34 -69.64,42.13 -39.41,2.51 -73.33,-1.82 -106.8,-12.62 2.89,-10.93 5.02,-19.66 4.79,-27.63 z M 1937.89,1894.1 c 7.99,-4.36 17.72,-8.65 28.11,-5.99 10.19,3.8 17.15,13.26 20.99,28.2 3.36,23.02 -2.85,43.42 -14.98,51.88 -6.81,4.02 -13.81,5.6 -22.24,4.35 1.56,4.37 1.56,7.81 1.87,12.19 0.18,2.42 -0.33,4.84 -0.86,7.21 -3.2,9.35 -9.61,14.14 -17.52,17.34 32.72,20.25 79.24,13.23 117.46,7.65 0,0 2.19,-0.32 4.05,-0.59 v -5.05 c -9.04,-2.04 -15.63,-10.45 -18.13,-21.37 -0.33,-1.72 -0.49,-3.35 -0.49,-4.91 0,-5 0.9,-8.13 2.68,-12.16 -7.95,1.93 -16.89,2.58 -24.53,-4.82 -11.45,-12.22 -15.51,-31.78 -11.27,-53.78 2.99,-10.35 9.12,-18.65 16.5,-22.53 11.31,-5.23 23.46,-1.67 32.42,3.99 -1.91,-15.54 -19.21,-25.76 -24.96,-28.7 -15.15,-7.58 -39.21,-8.62 -58.47,-2.52 -12.37,4.14 -26.57,16.8 -30.63,29.61 z m 119.7,-29.42 c 11.8,13.67 16.6,31.88 12.93,47.68 -2.52,10.74 -15.96,5.76 -23.46,1.36 -5.51,-3.22 -10.76,-6.8 -16.94,-5.06 -4.17,0.98 -7.12,6.41 -7.82,8.51 -3.89,12.13 -2.48,26.6 3.53,35.84 1.96,2.59 6.34,3.31 9.57,3 5.1,-0.31 9.59,-3.78 13.86,-7.23 5.99,-4.84 14.64,-10.43 20.15,-3.55 5.05,6.31 -1.2,14.05 -5.63,20.19 -4.02,5.59 -8.2,11.36 -7.67,18.02 0.44,4.76 2.3,9.19 5.85,12.08 4.16,3.62 10.02,3.69 10.08,3.69 l 1.76,-0.06 -0.04,1.77 c -0.22,7.97 1.92,16.7 4.8,27.63 -33.47,10.8 -67.4,15.13 -106.81,12.62 -37.47,-3.79 -60.63,-18.6 -69.63,-42.13 0,0 12.09,-1.32 17.95,-3.89 3.34,-1.58 12.25,-6.67 11.37,-16.79 -0.78,-5.23 -3.71,-10.17 -6.53,-14.94 -3.26,-5.52 -9.72,-13.84 -6.58,-18.96 5.29,-8.6 13.69,-2.09 19.86,2.79 3.57,2.82 7.52,5.12 10.83,6.35 3.47,1 10.39,1.16 13.67,-3.86 5.52,-7.99 8.12,-28.66 0.75,-39.65 -6.85,-6.42 -12.7,-1.65 -20.6,1.61 -5.66,2.34 -10.25,4.84 -15.83,5.89 -2.96,0.82 -8.8,-0.43 -9.07,-9.49 1,-26.3 11.78,-47.55 36,-58.34 31.33,-13.94 77.48,-12.43 103.65,14.92 z m 71.03,154.07 c 13.42,5.23 30.32,7.96 47.19,8.1 16.88,0.15 33.79,-2.87 47.19,-8.1 5.12,-2.49 9,-6.06 10.64,-9.89 -4.7,-1.74 -8.37,-5.48 -10.91,-8.54 -3.29,-4.19 -4.57,-9.17 -4.57,-14.26 0,-4.68 1.28,-9.28 2.96,-13.61 -6.6,1.16 -15.19,1.83 -22.28,-3.04 -5.12,-3.52 -10.94,-11.09 -13.01,-22.21 -3.34,-18.63 -2.52,-45.99 16.31,-56.35 12.36,-5.89 23.83,-0.73 33.42,4.43 -1.13,-7.91 -9.22,-18.85 -15.1,-23.1 -13.69,-8.48 -29.49,-12.07 -44.65,-12.04 -15.13,0.04 -30.94,3.56 -44.65,12.04 -5.86,4.25 -13.96,15.19 -15.07,23.1 9.59,-5.16 21.05,-10.32 33.41,-4.43 18.81,10.36 19.65,37.72 16.31,56.35 -2.07,11.12 -7.89,18.69 -13.01,22.21 -7.09,4.87 -15.68,4.2 -22.28,3.04 1.68,4.33 2.97,8.93 2.97,13.61 0,5.09 -1.31,10.07 -4.59,14.26 -2.52,3.06 -6.19,6.8 -10.9,8.54 1.62,3.83 5.53,7.4 10.62,9.89 z m -16.89,-28.68 c 3.98,-8.81 0,-16.49 -5.18,-24.5 -3.78,-5.84 -10.62,-12.85 -8.43,-19.27 1.07,-3.15 3.71,-4.61 6.17,-5.1 4.88,-0.98 10.14,3.07 15.21,6.99 3.09,2.38 6.27,4.83 9.01,5.84 5.6,1.71 12.3,0.25 15.21,-4.91 4.81,-9.18 6.47,-25.42 2.07,-34.77 -6.01,-11.17 -14.98,-6.78 -25.92,-1.01 -5.33,2.8 -9.08,5.89 -14.47,6.05 -7.4,0.16 -9.65,-11.92 -9.9,-18.12 -0.94,-21.52 13.83,-42.26 35.62,-52.46 12.86,-5.79 28.81,-8.56 44.69,-8.49 15.88,0.06 31.86,2.7 44.69,8.49 21.82,10.2 36.56,30.94 35.64,52.46 -0.27,6.2 -2.52,18.28 -9.9,18.12 -5.39,-0.16 -9.14,-3.25 -14.49,-6.05 -10.94,-5.77 -19.88,-10.16 -25.92,1.01 -4.39,9.35 -2.71,25.59 2.07,34.77 2.91,5.16 9.63,6.62 15.22,4.91 2.75,-1.01 5.93,-3.46 9,-5.84 5.1,-3.92 10.33,-7.97 15.24,-6.99 2.44,0.49 5.09,1.95 6.17,5.1 2.18,6.42 -4.65,13.43 -8.44,19.27 -5.18,8.01 -9.16,15.69 -5.18,24.5 3.15,4.41 8.48,7.08 14.63,7.31 l 3.15,0.23 c -3.01,16.06 -7.82,36.17 -41.14,43.84 -9.18,2.07 -22.5,4.79 -40.74,4.79 -18.22,0 -31.56,-2.72 -40.72,-4.79 -33.34,-7.67 -38.13,-27.78 -41.15,-43.84 l 3.14,-0.23 c 6.15,-0.23 11.51,-2.9 14.65,-7.31 z m 1198.92,-415.84 -45.38,-51.16 c -86.41,0 -443.6,0 -443.6,0 -15.55,-1.8 -12.5,-21.41 0,-22.66 h 423.48 l -50.8,-57.27 c -55.06,0 -330.73,0 -330.73,0 -13.9,0 -12.5,-22.54 -0.62,-22.54 h 311.35 l -48.77,-54.96 c 0,0 -8.6,-11.09 -22.81,-11.09 h -171.65 c -58.35,0 -71.95,-35.2 -63.51,-55.55 15.93,-38.01 47.42,-95.7 -45.94,-95.7 -92.81,0 -235.31,0 -235.31,0 -18.59,-27.05 -37.42,-55.49 -37.42,-55.49 -1.02,-14.77 8.04,-76.25 -55.32,-78.67 -50.15,-2.11 -68.9,34.22 -39.06,77.19 0,0 69.92,123.77 77.19,137.05 6.72,13.08 12.89,16.13 29.22,16.13 h 174.45 c 36.72,0 25.62,32.62 17.11,46.95 -8.59,14.42 -56.72,98.25 -68.51,118.56 -11.96,20.27 -8.6,28.83 -2.66,40.78 5.78,11.68 26.95,48.91 35.47,63.43 8.59,14.38 10.34,16.86 21.4,17.59 h 567.5 c 9.14,0 10.79,-6.02 4.92,-12.59 z M 3005.61,873.031 H 1529.57 v 457.809 h 73.02 c 27.98,0 36.59,-7.87 39.19,-13.31 2.31,-4.85 1.92,-10.9 -0.75,-16.89 -7.5,-17.37 -16.84,-38.99 -16.84,-59.96 0,-10.76 2.46,-21.35 8.88,-31.11 13.27,-20.17 39.1,-29.98 78.97,-29.98 0,0 200.12,0 222.7,0 8.01,-11.87 21.48,-31.84 26.4,-39.13 0,-0.45 -0.02,-0.89 -0.02,-1.33 0,-60.2 26.26,-91.7 78.05,-93.68 32.62,-1.38 58.42,10.66 70.72,33.01 12.72,23.11 8.6,52.77 -11.27,81.39 l -75.57,134.35 c -12.36,24.08 -29.05,29.01 -50.3,29.01 l -175.78,0.1 c 0.77,3.07 2.28,7.16 4.58,11.04 l 44.99,77.76 23.65,41 c 8.3,14.08 11.33,25.36 11.33,35.09 0,10.7 -3.66,19.53 -7.93,28.15 -6.36,12.83 -28.3,51.29 -36.25,64.87 l -0.34,0.56 c -9.99,16.7 -19.91,27.78 -38.58,28.74 h -268.85 v 738.19 h 1476.04 v -738.19 h -270.32 c -18.67,-0.96 -28.6,-12.04 -38.58,-28.74 l -0.33,-0.56 c -7.95,-13.58 -29.9,-52.04 -36.25,-64.87 -4.28,-8.62 -7.93,-17.45 -7.93,-28.15 0,-9.73 3.02,-21.01 11.33,-35.09 l 23.65,-41 44.98,-77.76 c 2.3,-3.88 3.82,-7.97 4.58,-11.04 l -175.77,-0.1 c -21.25,0 -37.94,-4.93 -50.31,-29.01 l -75.57,-134.35 c -19.87,-28.62 -23.98,-58.28 -11.27,-81.39 12.3,-22.35 38.1,-34.39 70.72,-33.01 51.79,1.98 78.05,33.48 78.05,93.68 0,0.44 -0.02,0.88 -0.02,1.33 4.92,7.29 18.4,27.26 26.4,39.13 22.58,0 222.7,0 222.7,0 39.88,0 65.7,9.81 78.97,29.98 6.42,9.76 8.88,20.35 8.88,31.11 0,20.97 -9.33,42.59 -16.83,59.96 -2.68,5.99 -3.07,12.04 -0.76,16.89 2.61,5.44 11.21,13.31 39.19,13.31 h 74.49 z M 1430.94,1354.55 c -14.21,0 -22.81,11.09 -22.81,11.09 l -48.76,54.96 h 311.34 c 11.88,0 13.29,22.54 -0.62,22.54 0,0 -275.67,0 -330.72,0 l -50.81,57.27 h 423.48 c 12.5,1.25 15.55,20.86 0,22.66 0,0 -357.19,0 -443.58,0 l -45.41,51.16 c -5.86,6.57 -4.22,12.59 4.93,12.59 h 567.5 c 11.06,-0.73 12.81,-3.21 21.41,-17.59 8.51,-14.52 29.68,-51.75 35.47,-63.43 5.93,-11.95 9.29,-20.51 -2.66,-40.78 -11.8,-20.31 -59.92,-104.14 -68.52,-118.56 -8.51,-14.33 -19.61,-46.95 17.11,-46.95 h 174.46 c 16.32,0 22.5,-3.05 29.21,-16.13 7.27,-13.28 77.19,-137.05 77.19,-137.05 29.85,-42.97 11.1,-79.3 -39.06,-77.19 -63.36,2.42 -54.3,63.9 -55.31,78.67 0,0 -18.83,28.44 -37.42,55.49 0,0 -142.5,0 -235.32,0 -93.36,0 -61.87,57.69 -45.93,95.7 8.43,20.35 -5.16,55.55 -63.52,55.55 z m 1904.38,238.46 c -4.9,10.96 -15.96,17.51 -29.59,17.51 h -276.37 v 761.9 h -1523.5 v -761.9 h -277.88 c -13.62,0 -24.68,-6.55 -29.59,-17.51 -1.67,-3.73 -2.49,-7.66 -2.49,-11.63 0,-7.9 3.24,-15.95 9.47,-22.93 0,0 185,-208.52 185.03,-208.54 3.86,-4.53 18.03,-19.07 40.54,-19.07 h 74.92 V 849.301 h 1523.5 v 481.539 h 73.41 c 22.5,0 36.66,14.54 40.54,19.07 0.02,0.02 185.04,208.54 185.04,208.54 6.23,6.98 9.47,15.03 9.47,22.93 0,3.97 -0.82,7.9 -2.5,11.63 z m -924.29,-92.17 -126.25,-229.18 c -4.16,-6.35 -8.62,-17.27 -17.82,-17.27 -8.92,0 -13.77,10.84 -17.57,17.27 l -126.8,229.18 c -2.66,4.18 -4.22,9.18 -2.66,14.41 1.41,2.42 4.93,5.94 8.99,5.94 h 276.01 c 4.45,0 7.89,-3.52 8.91,-5.94 1.64,-5.23 0,-10.23 -2.81,-14.41 z m 25.09,22.56 -0.44,1.02 c -4.11,9.86 -15.51,20.47 -30.75,20.47 h -276.01 c -14.16,0 -24.73,-9.55 -29.49,-17.73 l -1.41,-2.43 -0.8,-2.7 c -3.34,-11.17 -1.43,-23.21 5.37,-33.91 l 128.91,-232.71 c 4.14,-7.36 13.78,-24.55 35.29,-24.73 21.58,0.17 31.23,16.89 35.35,24.03 l 128.54,232.89 c 7.34,10.89 9.39,23.23 5.78,34.74 z m 174.83,80.06 -301.41,-546.43 c -9.76,-15.2 -23.46,-40.78 -42.26,-40.78 -19.32,0 -32.6,25.81 -42.11,40.78 l -301.33,546.43 c -6.48,10.23 -10.55,22.34 -6.48,34.57 2.81,5.62 11.01,13.47 21.17,13.47 h 657.73 c 10.23,0 18.52,-7.85 21.1,-13.47 4.06,-12.23 0,-24.34 -6.41,-34.57 z m 28.91,42.04 -0.43,1.23 -0.53,1.17 c -6.02,13.15 -21.94,27.3 -42.64,27.3 h -657.73 c -19.98,0 -35.98,-13.78 -42.37,-26.58 l -0.76,-1.51 -0.54,-1.61 c -3.97,-11.96 -5.67,-30.91 8.32,-53.66 l 309.21,-558.89 c 8.72,-14.86 23.29,-39.68 54.34,-40.399 l 0.55,-0.012 0.54,0.012 c 31.47,0.711 45.98,25.669 54.67,40.559 l 309.2,558.87 c 13.81,22.75 12.11,41.63 8.17,53.52 z m -328.44,373.17 c 13.39,5.23 30.31,7.96 47.19,8.11 16.87,0.14 33.78,-2.88 47.18,-8.11 5.1,-2.49 9,-6.05 10.65,-9.89 -4.73,-1.74 -8.4,-5.48 -10.92,-8.54 -3.28,-4.19 -4.59,-9.17 -4.59,-14.26 0,-4.68 1.31,-9.27 2.97,-13.61 -6.61,1.16 -15.2,1.83 -22.27,-3.04 -5.13,-3.52 -10.95,-11.09 -13.02,-22.21 -3.35,-18.63 -2.5,-45.99 16.3,-56.35 12.37,-5.89 23.83,-0.73 33.44,4.43 -1.13,-7.91 -9.22,-18.84 -15.1,-23.1 -13.71,-8.48 -29.49,-12.07 -44.64,-12.03 -15.16,0.04 -30.94,3.55 -44.65,12.03 -5.88,4.26 -13.97,15.19 -15.1,23.1 9.61,-5.16 21.07,-10.32 33.43,-4.43 18.82,10.36 19.64,37.72 16.32,56.35 -2.1,11.12 -7.91,18.69 -13.03,22.21 -7.07,4.87 -15.67,4.2 -22.28,3.04 1.67,4.34 2.97,8.93 2.97,13.61 0,5.09 -1.3,10.07 -4.58,14.26 -2.53,3.06 -6.2,6.8 -10.92,8.54 1.64,3.84 5.55,7.4 10.65,9.89 z m -16.91,-28.68 c 3.98,-8.81 0.01,-16.49 -5.18,-24.49 -3.77,-5.85 -10.62,-12.86 -8.42,-19.28 1.07,-3.15 3.71,-4.61 6.16,-5.1 4.89,-0.97 10.15,3.07 15.22,6.99 3.08,2.37 6.26,4.83 9.01,5.84 5.6,1.71 12.31,0.25 15.21,-4.91 4.8,-9.18 6.47,-25.42 2.07,-34.76 -6.01,-11.18 -14.97,-6.78 -25.91,-1.02 -5.35,2.8 -9.09,5.9 -14.49,6.06 -7.39,0.16 -9.64,-11.92 -9.91,-18.13 -0.91,-21.51 13.84,-42.26 35.65,-52.46 12.85,-5.79 28.8,-8.56 44.69,-8.49 15.87,0.07 31.83,2.7 44.68,8.49 21.8,10.2 36.57,30.95 35.65,52.46 -0.28,6.21 -2.52,18.29 -9.93,18.13 -5.39,-0.16 -9.14,-3.26 -14.47,-6.06 -10.93,-5.76 -19.9,-10.16 -25.92,1.02 -4.39,9.34 -2.73,25.58 2.06,34.76 2.93,5.16 9.62,6.62 15.23,4.91 2.73,-1.01 5.92,-3.47 9,-5.84 5.08,-3.92 10.33,-7.96 15.22,-6.99 2.46,0.49 5.09,1.95 6.17,5.1 2.19,6.42 -4.65,13.43 -8.42,19.28 -5.19,8 -9.16,15.68 -5.19,24.49 3.16,4.41 8.49,7.08 14.64,7.31 l 3.15,0.23 c -3.03,16.06 -7.81,36.17 -41.15,43.84 -9.16,2.08 -22.5,4.79 -40.72,4.79 -18.23,0 -31.57,-2.71 -40.73,-4.79 -33.34,-7.67 -38.12,-27.78 -41.15,-43.84 l 3.14,-0.23 c 6.16,-0.23 11.49,-2.9 14.64,-7.31 z m -396.65,45.52 c 44.22,57.03 133.67,33.55 191.8,17.11 37.34,31.52 94.02,21.36 135.62,10.11 4.94,-1.34 9.26,0 11.14,4.22 1.09,3.28 0,7.5 -1.92,8.94 -13.98,10.24 -23.08,26.72 -23.08,45.36 0,25.76 17.34,47.43 40.96,54.09 v 51.96 h -35.46 v 29.61 h 35.46 v 34.22 h 30.32 v -34.22 h 35.62 v -29.61 h -35.62 v -51.89 c 23.76,-6.59 41.22,-28.31 41.22,-54.16 0,-18.31 -8.79,-34.53 -22.35,-44.81 -1.91,-1.45 -4.2,-5.63 -2.65,-9.71 1.87,-4.21 7.01,-5.24 11.97,-4 41.99,10.47 96.89,21.17 134.23,-10.35 58.12,16.44 147.58,39.92 191.79,-17.11 9.92,-14.15 15.94,-31.17 16.96,-49.37 l -57.38,-237.58 h -658.16 l -57.42,237.81 c 1.02,18.2 7.05,35.22 16.95,49.38 z m 715.67,-309.2 62.52,257.58 c 0.99,20.77 -7.76,45.34 -20.35,62.84 -53.43,69.17 -150.35,45.18 -207.92,29.05 -24.34,16.11 -55.36,23.28 -90.71,17.56 0.16,0.02 0.23,0.02 0.23,0 0,-0.09 -9.97,-1.59 -18.2,-2.83 4.04,9.41 6.3,19.77 6.3,30.66 0,31.13 -18.32,57.92 -44.74,70.36 v 17.86 c 6.22,0 35.32,0 35.32,0 v 65.24 c 0,0 -29.1,0 -35.32,0 0,5.78 0,34.53 0,34.53 h -66.01 c 0,0 0,-28.75 0,-34.53 -6.41,0 -35.62,0 -35.62,0 v -65.24 c 0,0 29.21,0 35.62,0 v -17.8 c -26.48,-12.41 -44.87,-39.23 -44.87,-70.42 0,-10.89 2.24,-21.24 6.29,-30.65 -2.95,0.5 -14.18,2.42 -18.36,3.05 -35.35,5.73 -66.37,-1.44 -90.71,-17.56 -57.57,16.14 -154.49,40.12 -207.93,-29.05 -12.57,-17.48 -21.32,-42.07 -20.34,-62.84 l 62.57,-257.81 h 692.23"
         style="fill:#231f20;fill-opacity:1;fill-rule:nonzero;stroke:none"
         id="path14" /><path
         d="m 2384.91,1890.77 c -18.8,10.36 -19.65,37.72 -16.3,56.35 2.07,11.12 7.89,18.69 13.02,22.21 7.07,4.87 15.66,4.2 22.27,3.04 -1.66,4.34 -2.97,8.93 -2.97,13.61 0,5.09 1.31,10.07 4.59,14.26 2.52,3.06 6.19,6.8 10.92,8.54 -1.65,3.84 -5.55,7.4 -10.65,9.89 -13.4,5.23 -30.31,8.25 -47.18,8.11 -16.88,-0.15 -33.8,-2.88 -47.19,-8.11 -5.1,-2.49 -9.01,-6.05 -10.65,-9.89 4.72,-1.74 8.39,-5.48 10.92,-8.54 3.28,-4.19 4.58,-9.17 4.58,-14.26 0,-4.68 -1.3,-9.27 -2.97,-13.61 6.61,1.16 15.21,1.83 22.28,-3.04 5.12,-3.52 10.93,-11.09 13.03,-22.21 3.32,-18.63 2.5,-45.99 -16.32,-56.35 -12.36,-5.89 -23.82,-0.73 -33.43,4.43 1.13,-7.91 9.22,-18.84 15.1,-23.1 13.71,-8.48 29.49,-11.99 44.65,-12.03 15.15,-0.04 30.93,3.55 44.64,12.03 5.88,4.26 13.97,15.19 15.1,23.1 -9.61,-5.16 -21.07,-10.32 -33.44,-4.43 z m -182.77,0.08 c -18.83,10.36 -19.65,37.72 -16.31,56.35 2.07,11.12 7.89,18.69 13.01,22.21 7.09,4.87 15.68,4.2 22.28,3.04 -1.68,4.33 -2.96,8.93 -2.96,13.61 0,5.09 1.28,10.07 4.57,14.26 2.54,3.06 6.21,6.8 10.91,8.54 -1.64,3.83 -5.52,7.4 -10.64,9.89 -13.4,5.23 -30.31,8.25 -47.19,8.1 -16.87,-0.14 -33.77,-2.87 -47.19,-8.1 -5.09,-2.49 -9,-6.06 -10.62,-9.89 4.71,-1.74 8.38,-5.48 10.9,-8.54 3.28,-4.19 4.59,-9.17 4.59,-14.26 0,-4.68 -1.29,-9.28 -2.97,-13.61 6.6,1.16 15.19,1.83 22.28,-3.04 5.12,-3.52 10.94,-11.09 13.01,-22.21 3.34,-18.63 2.5,-45.99 -16.31,-56.35 -12.36,-5.89 -23.82,-0.73 -33.41,4.43 1.11,-7.91 9.21,-18.85 15.07,-23.1 13.71,-8.48 29.52,-12 44.65,-12.04 15.16,-0.03 30.96,3.56 44.65,12.04 5.88,4.25 13.97,15.19 15.1,23.1 -9.59,-5.16 -21.06,-10.32 -33.42,-4.43 z m 399,118.43 c -32.71,20.25 -79.24,13.23 -117.46,7.65 0,0 -2.19,-0.32 -4.04,-0.59 v -5.05 c 9.02,-2.04 15.62,-10.45 18.12,-21.37 0.34,-1.72 0.49,-3.35 0.49,-4.91 0,-5 -0.89,-8.13 -2.67,-12.16 7.95,1.93 16.89,2.58 24.53,-4.82 11.44,-12.22 15.51,-31.78 11.27,-53.78 -2.99,-10.35 -9.12,-18.65 -16.51,-22.53 -11.31,-5.23 -23.45,-1.67 -32.42,3.99 1.92,-15.54 19.22,-25.76 24.96,-28.7 15.16,-7.58 39.22,-8.62 58.48,-2.52 12.36,4.14 26.56,16.8 30.63,29.61 -7.99,-4.36 -17.72,-8.65 -28.11,-5.99 -10.2,3.8 -17.15,13.26 -21,28.2 -3.36,23.02 2.85,43.42 14.98,51.88 6.82,4.02 13.81,5.6 22.25,4.35 -1.56,4.37 -1.56,7.81 -1.87,12.19 -0.18,2.42 0.33,4.84 0.85,7.21 3.21,9.35 9.61,14.14 17.52,17.34 z m -667.88,0 c 7.91,-3.2 14.32,-7.99 17.52,-17.34 0.53,-2.37 1.04,-4.79 0.86,-7.21 -0.31,-4.38 -0.31,-7.82 -1.87,-12.19 8.43,1.25 15.43,-0.33 22.24,-4.35 12.13,-8.46 18.34,-28.86 14.98,-51.88 -3.84,-14.94 -10.8,-24.4 -20.99,-28.2 -10.39,-2.66 -20.12,1.63 -28.11,5.99 4.06,-12.81 18.26,-25.47 30.63,-29.61 19.26,-6.1 43.32,-5.06 58.47,2.52 5.75,2.94 23.05,13.16 24.96,28.7 -8.96,-5.66 -21.11,-9.22 -32.42,-3.99 -7.38,3.88 -13.51,12.18 -16.5,22.53 -4.24,22 -0.18,41.56 11.27,53.78 7.64,7.4 16.58,6.75 24.53,4.82 -1.78,4.03 -2.68,7.16 -2.68,12.16 0,1.56 0.16,3.19 0.49,4.91 2.5,10.92 9.09,19.33 18.13,21.37 v 5.05 c -1.86,0.27 -4.05,0.59 -4.05,0.59 -38.22,5.58 -84.74,12.6 -117.46,-7.65 z m 742.79,-25.39 c 0.99,20.77 -7.76,45.34 -20.35,62.84 -53.43,69.17 -150.35,45.18 -207.92,29.05 -24.34,16.11 -55.36,23.28 -90.71,17.56 0.16,0.02 0.23,0.02 0.23,0 0,-0.09 -9.97,-1.59 -18.2,-2.83 4.04,9.41 6.3,19.77 6.3,30.66 0,31.13 -18.32,57.92 -44.74,70.36 v 17.86 c 6.22,0 35.32,0 35.32,0 v 65.24 c 0,0 -29.1,0 -35.32,0 0,5.78 0,34.53 0,34.53 h -66.01 c 0,0 0,-28.75 0,-34.53 -6.41,0 -35.62,0 -35.62,0 v -65.24 c 0,0 29.21,0 35.62,0 v -17.8 c -26.48,-12.41 -44.87,-39.23 -44.87,-70.42 0,-10.89 2.24,-21.24 6.29,-30.65 -2.95,0.5 -14.18,2.42 -18.36,3.05 -35.35,5.73 -66.37,-1.44 -90.71,-17.56 -57.57,16.14 -154.49,40.12 -207.93,-29.05 -12.57,-17.48 -21.32,-42.07 -20.34,-62.84 l 62.57,-257.81 h 692.23 z m -36.19,-338.39 -0.43,1.23 -0.53,1.17 c -6.02,13.15 -21.94,27.3 -42.64,27.3 h -657.73 c -19.98,0 -35.98,-13.78 -42.37,-26.58 l -0.76,-1.51 -0.54,-1.61 c -3.97,-11.96 -5.67,-30.91 8.32,-53.66 l 309.21,-558.89 c 8.72,-14.86 23.29,-39.68 54.34,-40.399 l 0.55,-0.012 0.54,0.012 c 31.47,0.711 45.98,25.669 54.67,40.559 l 309.2,558.87 c 13.81,22.75 12.11,41.63 8.17,53.52 z m 20.27,-129.15 c -4.28,-8.62 -7.93,-17.45 -7.93,-28.15 0,-9.73 3.02,-21.01 11.33,-35.09 l 23.65,-41 44.98,-77.76 c 2.3,-3.88 3.82,-7.97 4.58,-11.04 l -175.77,-0.1 c -21.25,0 -37.94,-4.93 -50.31,-29.01 l -75.57,-134.35 c -19.87,-28.62 -23.98,-58.28 -11.27,-81.39 12.3,-22.35 38.1,-34.39 70.72,-33.01 51.79,1.98 78.05,33.48 78.05,93.68 0,0.44 -0.02,0.88 -0.02,1.33 4.92,7.29 18.4,27.26 26.4,39.13 22.58,0 222.7,0 222.7,0 39.88,0 65.7,9.81 78.97,29.98 6.42,9.76 8.88,20.35 8.88,31.11 0,20.97 -9.33,42.59 -16.83,59.96 -2.68,5.99 -3.07,12.04 -0.76,16.89 2.61,5.44 11.21,13.31 39.19,13.31 h 74.49 V 873.031 H 1529.57 v 457.809 h 73.02 c 27.98,0 36.59,-7.87 39.19,-13.31 2.31,-4.85 1.92,-10.9 -0.75,-16.89 -7.5,-17.37 -16.84,-38.99 -16.84,-59.96 0,-10.76 2.46,-21.35 8.88,-31.11 13.27,-20.17 39.1,-29.98 78.97,-29.98 0,0 200.12,0 222.7,0 8.01,-11.87 21.48,-31.84 26.4,-39.13 0,-0.45 -0.02,-0.89 -0.02,-1.33 0,-60.2 26.26,-91.7 78.05,-93.68 32.62,-1.38 58.42,10.66 70.72,33.01 12.72,23.11 8.6,52.77 -11.27,81.39 l -75.57,134.35 c -12.36,24.08 -29.05,29.01 -50.3,29.01 l -175.78,0.1 c 0.77,3.07 2.28,7.16 4.58,11.04 l 44.99,77.76 23.65,41 c 8.3,14.08 11.33,25.36 11.33,35.09 0,10.7 -3.66,19.53 -7.93,28.15 -6.36,12.83 -28.3,51.29 -36.25,64.87 l -0.34,0.56 c -9.99,16.7 -19.91,27.78 -38.58,28.74 h -268.85 v 738.19 h 1476.04 v -738.19 h -270.32 c -18.67,-0.96 -28.6,-12.04 -38.58,-28.74 l -0.33,-0.56 c -7.95,-13.58 -29.9,-52.04 -36.25,-64.87 z m -246.29,-1.1 c 1.64,-5.23 0,-10.23 -2.81,-14.41 l -126.25,-229.18 c -4.16,-6.35 -8.62,-17.27 -17.82,-17.27 -8.92,0 -13.77,10.84 -17.57,17.27 l -126.8,229.18 c -2.66,4.18 -4.22,9.18 -2.66,14.41 1.41,2.42 4.93,5.94 8.99,5.94 h 276.01 c 4.45,0 7.89,-3.52 8.91,-5.94"
         style="fill:#ed192d;fill-opacity:1;fill-rule:nonzero;stroke:none"
         id="path16" /><path
         d="m 11.4805,198.75 c 24.2187,-13.051 57.8906,-23.141 96.9605,-23.141 29.61,0 57.887,6.11 57.887,34.231 C 166.328,275.23 0,234.141 0,362.191 c 0,84.758 82.8086,107.887 153.52,107.887 33.589,0 66.871,-4.937 90.539,-12.969 l -6.09,-72.82 c -24.059,11.32 -51.25,16.25 -78.278,16.25 -23.601,0 -63.0504,-1.867 -63.0504,-32.898 0,-56.942 166.5584,-18.5 166.5584,-145.692 0,-91.34 -76.48,-116.008 -154.758,-116.008 -32.7418,0 -73.5191,5.059 -104.92147,15 l 7.96097,77.809"
         style="fill:#231f20;fill-opacity:1;fill-rule:nonzero;stroke:none"
         id="path18" /><path
         d="m 291.09,374.75 h 53.281 v 59 l 89.301,27.73 v -86.73 h 63.75 v -63.578 h -63.75 v -96.723 c 0,-31.949 7.887,-47.969 36.406,-47.969 9.223,0 18.594,1.879 27.731,3.442 L 500.859,111 c -17.031,-2.168 -34.218,-5.059 -56.949,-5.059 -81.25,0 -100.859,35.778 -100.859,98.118 V 311.172 H 291.09 v 63.578"
         style="fill:#231f20;fill-opacity:1;fill-rule:nonzero;stroke:none"
         id="path20" /><path
         d="m 647.66,166.48 c 34.211,0 56.168,31.25 56.168,61.961 -11.719,0.7 -25,1.481 -38.437,1.481 -31.02,0 -55.082,-9.453 -55.082,-34.692 0,-18.121 16.332,-28.75 37.351,-28.75 z m 62.5,-54.449 c -0.551,13.969 -2.039,27.578 -2.039,41.25 h -0.93 c -20.781,-32.672 -45.941,-47.34 -83.211,-47.34 -52.031,0 -98.281,25.7 -98.281,82.649 0,80.301 87.27,89.91 135.551,89.91 14.691,0 30.859,-1.711 42.578,-3.66 -0.777,35.859 -27.418,45.551 -60.308,45.551 -29.149,0 -58.29,-5.641 -83.36,-19.782 l -1.801,61.582 c 32.192,13.118 66.25,18.668 105,18.668 67.032,0 124.84,-28.668 124.84,-109 v -97.8 c 0,-20.778 1.172,-41.25 5.16,-62.028 H 710.16"
         style="fill:#231f20;fill-opacity:1;fill-rule:nonzero;stroke:none"
         id="path22" /><path
         d="m 823.121,374.75 h 53.438 v 59 l 89.531,27.73 v -86.73 h 63.36 v -63.578 h -63.36 v -96.723 c 0,-31.949 7.43,-47.969 36.18,-47.969 9.14,0 18.51,1.879 27.65,3.442 L 1032.89,111 c -16.95,-2.168 -34.062,-5.059 -56.64,-5.059 -81.41,0 -100.941,35.778 -100.941,98.118 v 107.113 h -52.188 v 63.578"
         style="fill:#231f20;fill-opacity:1;fill-rule:nonzero;stroke:none"
         id="path24" /><path
         d="m 1249.38,268.359 c 0,30.391 -13.91,55 -50.4,55 -32.81,0 -48.51,-24.609 -50.46,-55 z m -99.69,-51.5 c 4.84,-36.25 32.73,-50.379 77.19,-50.379 24.68,0 52.81,5.551 80.15,20.161 V 122.5 c -29.14,-11.5 -62.73,-16.559 -96.4,-16.559 -86.65,0 -152.9,51.008 -152.9,137.809 0,86.559 59.15,137.109 140.86,137.109 97.27,0 132.66,-69.14 132.66,-147.269 v -16.731 h -181.56"
         style="fill:#231f20;fill-opacity:1;fill-rule:nonzero;stroke:none"
         id="path26" /><path
         d="m 1378.52,374.75 h 82.81 v -48.422 h 1.01 c 18.29,37.891 54.46,54.531 95.79,54.531 71.79,0 100.54,-50.55 100.54,-104.918 v -163.91 h -90.94 v 127.11 c 0,49.359 -17.1,66.089 -41.87,66.089 -37.27,0 -56.41,-25.871 -56.41,-82.421 V 112.031 h -90.93 V 374.75"
         style="fill:#231f20;fill-opacity:1;fill-rule:nonzero;stroke:none"
         id="path28" /><path
         d="m 1710,184.531 c 21.09,-8.922 52.73,-18.051 85.23,-18.051 18.75,0 37.04,3.051 37.04,21.25 0,44.219 -129.38,13.051 -129.38,107.969 0,60.473 59.84,85.16 112.03,85.16 31.33,0 63.21,-3.519 92.42,-15.25 l -7.03,-62.968 c -19.06,11.718 -47.89,17.75 -70.7,17.75 -19.77,0 -41.8,-3.602 -41.8,-18.2 0,-40.711 135.16,-8.691 135.16,-108.519 0,-70 -63.13,-87.731 -122.66,-87.731 -40.7,0 -68.67,4.059 -95.47,12.649 l 5.16,65.941"
         style="fill:#231f20;fill-opacity:1;fill-rule:nonzero;stroke:none"
         id="path30" /><path
         d="m 2098.52,374.75 h 97.26 l 54.61,-187.02 h 0.94 l 55,187.02 h 90.31 l -97.42,-262.719 h -103.44 l -97.26,262.719"
         style="fill:#231f20;fill-opacity:1;fill-rule:nonzero;stroke:none"
         id="path32" /><path
         d="m 2608.98,268.359 c 0,30.391 -14.21,55 -50.46,55 -32.82,0 -48.44,-24.609 -50.39,-55 z m -100,-51.5 c 5.08,-36.25 33.05,-50.379 77.19,-50.379 24.77,0 53.05,5.551 80.24,20.161 V 122.5 c -29.22,-11.5 -62.58,-16.559 -96.18,-16.559 -86.95,0 -152.81,51.008 -152.81,137.809 0,86.559 58.75,137.109 140.55,137.109 97.42,0 132.81,-69.14 132.81,-147.269 v -16.731 h -181.8"
         style="fill:#231f20;fill-opacity:1;fill-rule:nonzero;stroke:none"
         id="path34" /><path
         d="m 2870.86,181.719 c 32.27,0 57.89,27.113 57.89,67.34 0,29.441 -17.03,62.113 -57.89,62.113 -33.83,0 -51.48,-29.84 -51.48,-65.563 0,-40.769 24.06,-63.89 51.48,-63.89 z m 145.7,-38.828 C 3016.56,34.75 2964.38,0 2858.36,0 c -43.59,0 -79.14,9.14063 -100.63,16.4805 l 4.85,71.7187 c 27.34,-13.6679 50.55,-21.6406 88.67,-21.6406 52.34,0 80.47,24.6914 80.47,76.3324 v 14.058 h -0.63 c -22.18,-30.949 -52.34,-44.918 -88.43,-44.918 -72.35,0 -117.03,54.449 -117.03,132.028 0,78.191 36.95,136.8 118.51,136.8 39.06,0 69.92,-21.109 89.22,-53.519 h 1.09 v 47.41 h 82.11 V 142.891"
         style="fill:#231f20;fill-opacity:1;fill-rule:nonzero;stroke:none"
         id="path36" /><path
         d="m 3051.95,374.75 h 97.11 l 54.77,-187.02 h 1.09 L 3260,374.75 h 90 l -97.19,-262.719 h -103.75 l -97.11,262.719"
         style="fill:#231f20;fill-opacity:1;fill-rule:nonzero;stroke:none"
         id="path38" /><path
         d="m 3562.66,268.359 c 0,30.391 -14.22,55 -50.71,55 -32.97,0 -48.2,-24.609 -50.62,-55 z m -100.32,-51.5 c 5.16,-36.25 33.05,-50.379 77.58,-50.379 24.77,0 52.97,5.551 80,20.161 V 122.5 c -28.98,-11.5 -62.34,-16.559 -96.25,-16.559 -86.64,0 -153.04,51.008 -153.04,137.809 0,86.559 59.29,137.109 141.01,137.109 97.19,0 132.58,-69.14 132.58,-147.269 v -16.731 h -181.88"
         style="fill:#231f20;fill-opacity:1;fill-rule:nonzero;stroke:none"
         id="path40" /><path
         d="m 3686.72,184.531 c 21.01,-8.922 52.11,-18.051 85.23,-18.051 18.6,0 36.72,3.051 36.72,21.25 0,44.219 -129.14,13.051 -129.14,107.969 0,60.473 59.3,85.16 112.03,85.16 31.33,0 62.89,-3.519 92.35,-15.25 l -7.43,-62.968 c -19.06,11.718 -47.57,17.75 -70.39,17.75 -19.68,0 -42.11,-3.602 -42.11,-18.2 0,-40.711 135.32,-8.691 135.32,-108.519 0,-70 -62.89,-87.731 -122.5,-87.731 -40.94,0 -68.44,4.059 -95.32,12.649 l 5.24,65.941"
         style="fill:#231f20;fill-opacity:1;fill-rule:nonzero;stroke:none"
         id="path42" /><path
         d="m 4122.73,268.359 c 0,30.391 -14.21,55 -50.15,55 -33.05,0 -48.75,-24.609 -50.7,-55 z m -99.68,-51.5 c 5.08,-36.25 32.81,-50.379 76.87,-50.379 24.85,0 53.13,5.551 80.24,20.161 V 122.5 c -29.14,-11.5 -62.11,-16.559 -96.18,-16.559 -86.4,0 -152.81,51.008 -152.81,137.809 0,86.559 59.06,137.109 140.63,137.109 97.58,0 132.89,-69.14 132.89,-147.269 v -16.731 h -181.64"
         style="fill:#231f20;fill-opacity:1;fill-rule:nonzero;stroke:none"
         id="path44" /><path
         d="m 4251.88,374.75 h 82.89 v -48.422 h 1.01 c 18.13,37.891 54.38,54.531 95.94,54.531 71.56,0 100.08,-50.55 100.08,-104.918 v -163.91 h -90.71 v 127.11 c 0,49.359 -17.03,66.089 -41.71,66.089 -37.5,0 -56.33,-25.871 -56.33,-82.421 V 112.031 h -91.17 V 374.75"
         style="fill:#231f20;fill-opacity:1;fill-rule:nonzero;stroke:none"
         id="path46" /></g></g></svg>
