<?xml version="1.0" standalone="no"?>
<!DOCTYPE svg PUBLIC "-//W3C//DTD SVG 20010904//EN"
 "http://www.w3.org/TR/2001/REC-SVG-20010904/DTD/svg10.dtd">
<svg version="1.0" xmlns="http://www.w3.org/2000/svg"
 width="512.000000pt" height="512.000000pt" viewBox="0 0 512.000000 512.000000"
 preserveAspectRatio="xMidYMid meet">
<metadata>
Created by potrace 1.11, written by Peter Selinger 2001-2013
</metadata>
<g transform="translate(0.000000,512.000000) scale(0.100000,-0.100000)"
fill="#000000" stroke="none">
<path d="M435 4480 c-3 -5 -1 -10 4 -10 6 0 11 5 11 10 0 6 -2 10 -4 10 -3 0
-8 -4 -11 -10z"/>
<path d="M470 4480 c0 -5 5 -10 11 -10 5 0 7 5 4 10 -3 6 -8 10 -11 10 -2 0
-4 -4 -4 -10z"/>
<path d="M507 4479 c7 -7 15 -10 18 -7 3 3 -2 9 -12 12 -14 6 -15 5 -6 -5z"/>
<path d="M555 4480 c-3 -5 -1 -10 4 -10 6 0 11 5 11 10 0 6 -2 10 -4 10 -3 0
-8 -4 -11 -10z"/>
<path d="M627 4479 c7 -7 15 -10 18 -7 3 3 -2 9 -12 12 -14 6 -15 5 -6 -5z"/>
<path d="M793 4463 c1 -15 -4 -28 -12 -31 -10 -3 -11 0 -5 9 7 12 5 12 -9 0
-17 -13 -53 -8 -43 7 2 4 -4 8 -15 8 -18 0 -18 -2 -4 -12 12 -9 7 -12 -30 -12
-25 -1 -45 3 -45 8 0 6 -5 10 -11 10 -5 0 -7 -4 -4 -10 3 -5 -1 -10 -9 -10 -9
0 -16 5 -16 10 0 6 -5 10 -11 10 -5 0 -7 -4 -4 -10 3 -5 -1 -10 -9 -10 -9 0
-16 5 -16 10 0 6 -5 10 -11 10 -5 0 -7 -4 -4 -10 3 -5 -1 -10 -9 -10 -9 0 -16
5 -16 10 0 6 -5 10 -11 10 -5 0 -7 -4 -4 -10 3 -5 -1 -10 -9 -10 -9 0 -16 5
-16 10 0 6 -5 10 -11 10 -5 0 -7 -4 -4 -10 3 -5 -1 -10 -9 -10 -9 0 -16 5 -16
10 0 6 -5 10 -11 10 -5 0 -7 -4 -4 -10 3 -5 -1 -10 -9 -10 -9 0 -16 5 -16 10
0 6 -5 10 -11 10 -5 0 -8 -4 -5 -9 3 -5 -31 -8 -77 -7 -60 1 -84 -2 -84 -11 0
-7 3 -11 6 -9 8 4 41 -31 35 -36 -2 -3 7 -11 21 -18 14 -7 25 -16 25 -20 0 -4
9 -17 20 -30 11 -13 20 -19 20 -14 0 5 8 -3 17 -16 10 -14 17 -29 15 -33 -1
-5 1 -6 5 -4 5 3 17 -2 28 -10 20 -15 20 -15 -2 -10 -20 4 -21 3 -12 -14 5
-10 12 -19 15 -19 3 0 2 5 -1 10 -3 6 1 10 10 10 10 0 13 -5 9 -12 -4 -7 -3
-8 4 -4 7 4 22 -4 34 -17 52 -57 66 -76 60 -82 -4 -3 1 -3 11 1 19 7 23 -6 6
-23 -7 -7 -3 -9 15 -6 26 5 37 -12 14 -20 -7 -2 -3 -2 10 0 20 3 22 1 13 -15
-7 -14 -6 -19 4 -19 8 0 12 4 9 9 -3 4 0 8 5 8 10 0 15 -14 12 -33 -1 -5 3 -6
8 -3 5 4 14 -2 20 -11 6 -10 11 -14 11 -8 0 5 8 -2 17 -15 10 -14 17 -29 15
-33 -1 -5 1 -6 5 -4 5 3 17 -2 28 -10 20 -15 20 -15 -2 -10 -20 4 -21 3 -12
-14 5 -10 12 -19 15 -19 3 0 2 5 -1 10 -3 6 1 10 10 10 10 0 13 -5 9 -12 -4
-7 -3 -8 4 -4 7 4 22 -4 34 -17 52 -57 66 -76 60 -82 -4 -3 1 -3 11 1 19 7 23
-6 6 -23 -7 -7 -3 -9 15 -6 26 5 37 -12 14 -20 -7 -2 -3 -2 10 0 20 3 22 1 13
-15 -7 -14 -6 -19 4 -19 8 0 12 4 9 9 -3 4 0 8 5 8 10 0 15 -14 12 -32 0 -5 2
-7 6 -7 5 1 15 1 23 -1 11 -1 9 -4 -5 -10 -19 -8 -19 -9 3 -9 15 -1 21 -5 16
-13 -4 -7 -3 -8 4 -4 14 8 53 -29 48 -46 -1 -7 -1 -10 1 -6 3 4 13 2 23 -4 15
-10 17 -16 8 -32 -10 -19 -10 -20 6 -7 15 13 19 13 26 1 5 -8 6 -18 3 -24 -3
-5 -1 -6 5 -2 15 9 55 -31 46 -46 -4 -7 -3 -8 4 -4 7 4 12 1 12 -9 0 -9 -4
-13 -10 -10 -5 3 -10 4 -10 1 0 -3 9 -10 19 -15 16 -9 18 -8 14 10 -5 19 -3
18 21 -5 25 -26 35 -42 18 -32 -5 3 -9 -1 -9 -9 0 -10 5 -11 16 -6 11 7 22 -1
43 -26 15 -20 28 -32 28 -27 0 5 8 -3 17 -16 10 -14 17 -29 15 -33 -1 -5 1 -6
5 -4 5 3 17 -2 28 -10 20 -15 20 -15 -2 -10 -20 4 -21 3 -12 -14 5 -10 12 -19
15 -19 3 0 2 5 -1 10 -3 6 1 10 10 10 10 0 13 -5 9 -12 -4 -6 -3 -8 4 -4 16
10 91 -69 81 -86 -5 -10 -3 -15 6 -15 8 0 12 4 9 9 -10 16 6 7 31 -18 25 -25
25 -25 3 -20 -13 3 -17 3 -10 0 6 -3 10 -10 7 -14 -3 -5 0 -12 6 -16 8 -4 9
-3 5 4 -4 7 -1 12 9 12 10 0 13 -5 9 -12 -4 -7 -3 -8 4 -4 15 9 55 -31 46 -46
-4 -6 -3 -8 2 -5 6 3 16 2 24 -3 12 -7 12 -11 -1 -26 -13 -16 -12 -16 7 -6 16
9 22 7 32 -9 7 -10 8 -19 3 -19 -5 0 -12 5 -14 10 -3 6 -4 5 -3 -2 2 -7 11
-12 21 -11 22 2 58 -34 49 -49 -4 -7 -3 -8 4 -4 8 5 12 -1 13 -16 0 -22 1 -22
9 -3 6 14 9 16 10 5 2 -8 2 -19 1 -23 -1 -5 2 -6 7 -3 4 2 14 1 22 -4 12 -7
12 -11 -1 -26 -13 -16 -12 -16 7 -6 16 9 22 7 32 -9 7 -10 8 -19 3 -19 -5 0
-12 5 -14 10 -3 6 -4 5 -3 -2 2 -7 11 -12 21 -11 22 2 58 -34 49 -49 -4 -7 -3
-8 4 -4 7 4 12 1 12 -8 0 -8 4 -18 10 -21 6 -4 7 1 3 11 -6 15 -4 15 13 -2 17
-16 17 -20 5 -25 -10 -4 -4 -8 17 -12 18 -4 32 -11 32 -17 0 -6 -6 -8 -12 -4
-8 4 -10 3 -5 -2 5 -5 12 -9 17 -9 12 0 120 -108 120 -121 0 -6 -7 -11 -15
-11 -8 0 -12 4 -9 9 3 4 -2 10 -10 13 -9 3 -23 7 -31 10 -8 2 -12 11 -9 20 3
8 11 12 18 8 6 -3 8 -2 3 2 -12 13 -47 16 -47 4 0 -5 5 -7 10 -4 5 3 10 3 10
-1 0 -11 -34 -33 -52 -34 -9 0 -19 -4 -22 -8 -3 -5 5 -8 17 -8 12 1 26 7 30
13 4 7 13 13 19 13 6 0 5 -7 -3 -17 -13 -16 -12 -17 4 -4 10 8 17 9 17 3 0 -6
7 -9 15 -6 8 4 15 2 15 -3 0 -13 -115 -9 -133 5 -12 10 -17 10 -23 1 -4 -8 -3
-9 4 -5 7 4 12 3 12 -1 0 -5 -24 -9 -54 -9 -36 1 -51 4 -46 11 6 7 2 11 -9 11
-13 0 -17 -5 -13 -16 5 -13 4 -13 -13 0 -14 11 -17 11 -11 1 7 -10 4 -12 -12
-7 -11 4 -23 2 -27 -5 -6 -8 -10 -7 -16 2 -6 10 -9 8 -9 -7 0 -26 -22 -37 -41
-21 -10 10 -10 8 0 -6 12 -15 11 -21 -9 -42 -13 -14 -32 -27 -42 -31 -10 -3
-16 -10 -13 -15 6 -9 -8 -13 -32 -10 -7 1 -13 -3 -13 -9 0 -6 5 -8 10 -5 5 3
10 3 10 0 0 -10 -28 -35 -39 -35 -6 0 -10 -4 -9 -9 2 -4 -16 -27 -39 -49 -23
-23 -40 -33 -37 -24 2 9 -3 2 -11 -15 -14 -30 -25 -38 -48 -34 -5 1 -6 -3 -3
-8 4 -5 2 -12 -3 -16 -5 -3 -14 3 -20 12 -6 10 -11 13 -11 7 0 -5 5 -15 11
-21 7 -7 0 -21 -25 -47 -20 -20 -40 -36 -45 -36 -6 0 -13 -5 -17 -12 -5 -7 -3
-8 7 -3 8 5 6 -1 -5 -13 -15 -18 -22 -19 -40 -10 -18 10 -19 9 -8 -4 10 -12 8
-20 -9 -42 -11 -14 -25 -24 -30 -21 -5 4 -9 1 -9 -5 0 -12 -24 -40 -35 -40 -3
0 -3 5 0 10 3 6 1 10 -5 10 -7 0 -10 -6 -7 -14 3 -8 -1 -22 -9 -33 -9 -10 -13
-13 -10 -7 3 6 -1 11 -8 11 -8 0 -11 -8 -8 -19 3 -12 -1 -18 -14 -18 -9 0 -15
-3 -12 -6 3 -3 -13 -25 -36 -48 -36 -37 -42 -41 -53 -27 -9 13 -10 11 -6 -12
3 -17 1 -27 -6 -27 -7 0 -10 4 -7 9 3 5 -2 15 -11 22 -15 12 -16 12 -8 -1 16
-26 14 -39 -8 -64 -19 -22 -22 -23 -34 -7 -10 14 -11 13 -6 -8 7 -28 -15 -45
-36 -28 -12 10 -13 9 -6 -2 6 -11 4 -13 -9 -8 -11 4 -15 3 -11 -4 4 -6 14 -8
22 -5 9 4 13 1 10 -6 -2 -7 -15 -12 -28 -10 -17 1 -20 -1 -10 -7 10 -7 4 -18
-29 -51 -33 -33 -44 -39 -51 -29 -6 10 -8 7 -7 -10 2 -13 -3 -26 -10 -28 -7
-3 -10 1 -6 10 3 8 1 18 -5 22 -7 4 -8 0 -4 -11 5 -13 3 -15 -8 -9 -11 7 -12
6 -2 -6 17 -21 0 -43 -28 -36 -20 5 -21 4 -8 -6 14 -9 2 -26 -91 -119 -94 -95
-134 -130 -115 -98 3 5 1 10 -5 10 -6 0 -10 -6 -9 -12 3 -28 -2 -40 -15 -35
-9 4 -13 1 -10 -6 5 -15 -35 -53 -63 -60 -20 -5 27 -11 61 -7 10 1 16 -2 13
-8 -4 -5 0 -9 8 -9 8 0 12 4 9 9 -10 16 71 4 84 -12 10 -13 11 -13 7 0 -5 13
14 15 129 15 81 1 132 -3 129 -9 -4 -5 0 -6 8 0 8 4 35 9 61 9 47 1 47 0 42
-29 -3 -17 -2 -28 1 -24 5 5 11 23 14 48 1 3 82 6 180 6 107 -1 177 -4 174
-10 -4 -5 0 -6 8 0 19 11 129 13 129 2 0 -5 6 -6 13 -1 18 12 277 11 270 -1
-4 -5 4 -2 16 7 13 8 28 14 35 13 6 -2 8 -1 4 1 -5 3 -8 9 -8 14 0 6 5 7 10 4
6 -3 10 1 10 9 0 16 9 19 40 17 10 0 11 1 3 5 -19 8 -16 27 3 20 8 -3 13 -2
10 3 -10 16 35 53 58 47 20 -5 20 -4 3 9 -12 9 -14 15 -7 20 6 4 19 1 28 -7
15 -11 16 -11 4 3 -10 14 -8 19 12 34 14 11 23 22 20 27 -3 4 1 8 9 8 8 0 17
7 20 15 4 8 15 12 27 10 11 -2 18 0 15 6 -4 5 -11 7 -16 4 -5 -4 -9 -2 -9 3 0
6 7 12 15 16 17 6 31 4 28 -5 -1 -3 5 -6 13 -6 12 0 12 3 -2 18 -14 16 -12 20
25 56 32 33 43 38 58 30 16 -9 17 -9 4 6 -8 10 -11 20 -8 24 10 9 38 -18 30
-30 -4 -6 -1 -7 6 -3 9 6 8 12 -4 25 -14 17 -13 19 9 36 14 11 23 22 20 27 -3
4 1 8 9 8 8 0 17 6 20 14 4 10 15 13 34 10 20 -3 24 -2 13 5 -8 5 -18 7 -22 5
-4 -3 -8 -1 -8 5 0 15 39 33 58 27 14 -5 14 -4 -1 8 -12 9 -14 16 -7 21 6 4
17 1 25 -5 16 -13 35 -6 35 13 0 7 -4 6 -10 -3 -6 -10 -12 -12 -20 -4 -16 16
27 57 54 50 20 -5 20 -4 3 9 -12 9 -14 15 -7 20 6 4 19 1 28 -7 15 -12 16 -11
4 4 -11 14 -10 19 10 32 12 9 18 16 13 16 -6 1 1 7 15 15 14 8 22 14 18 15 -4
0 3 10 15 23 19 19 24 20 34 7 9 -12 10 -10 6 12 -3 14 0 29 6 32 7 5 9 0 5
-11 -3 -10 2 -5 11 10 9 15 20 25 25 22 6 -4 7 1 3 11 -4 11 -2 15 4 11 6 -4
14 0 17 9 5 14 9 14 24 3 15 -13 16 -12 3 4 -18 23 -7 34 16 16 15 -13 15 -12
6 5 -8 15 -2 26 35 62 24 24 48 44 54 44 5 0 7 4 3 9 -3 5 -1 12 5 16 5 3 10
1 10 -4 0 -6 4 -11 10 -11 5 0 7 7 4 15 -4 8 1 17 10 21 9 3 16 13 16 22 0 8
3 13 6 9 8 -7 34 17 34 32 0 6 3 10 8 9 4 -2 8 2 10 7 2 6 13 15 25 22 12 7
18 12 14 13 -4 0 -2 6 5 14 15 16 32 11 22 -6 -4 -6 -2 -8 4 -4 6 3 9 15 7 26
-2 13 2 20 11 20 8 0 14 8 14 17 0 9 3 14 6 10 8 -7 34 17 34 32 0 5 5 13 12
17 6 4 8 3 5 -2 -3 -5 3 -10 13 -10 13 0 16 4 9 12 -10 12 23 58 35 47 3 -3 6
1 6 10 0 9 5 17 10 17 6 0 10 9 10 21 0 13 4 18 12 13 7 -4 8 -3 4 4 -4 6 -13
9 -21 5 -10 -3 -15 1 -15 12 0 9 -4 13 -10 10 -9 -6 -14 8 -11 28 1 5 -3 6 -8
3 -14 -9 -124 101 -115 115 4 7 3 9 -3 6 -15 -10 -77 55 -65 69 4 4 1 4 -6 0
-8 -5 -20 2 -31 16 -17 20 -18 25 -5 40 13 13 13 17 2 24 -7 4 -10 4 -6 -1 9
-9 -9 -35 -24 -35 -6 0 -8 7 -4 15 3 8 2 14 -2 12 -15 -5 -64 42 -56 55 4 7 4
10 -1 6 -4 -4 -13 -2 -21 5 -7 7 -20 18 -29 25 -8 7 -12 18 -9 24 4 6 3 8 -2
5 -6 -3 -16 -2 -24 3 -12 7 -12 11 1 26 13 16 12 17 -4 7 -15 -8 -26 -3 -58
29 -22 22 -36 44 -33 50 4 7 2 8 -4 4 -7 -4 -12 -1 -12 9 0 9 5 13 10 10 6 -3
10 -4 10 -1 0 3 -9 10 -19 15 -17 9 -18 8 -14 -12 5 -22 5 -22 -10 -2 -8 11
-13 23 -10 28 2 4 1 6 -4 5 -4 -2 -19 5 -33 15 -13 9 -20 17 -15 17 6 0 2 5
-8 11 -9 6 -15 15 -11 20 3 5 2 9 -3 8 -19 -3 -33 2 -33 12 0 5 4 8 8 5 5 -3
9 1 9 9 0 10 -5 11 -19 4 -16 -9 -18 -7 -15 13 2 13 2 17 0 11 -8 -24 -25 -13
-20 13 3 18 1 22 -6 15 -17 -17 -30 -13 -23 6 4 10 4 15 1 11 -6 -6 -25 8 -82
60 -13 12 -21 27 -17 34 4 7 3 8 -4 4 -7 -4 -12 -1 -12 9 0 9 5 13 10 10 6 -3
10 -4 10 -1 0 3 -9 10 -19 15 -17 9 -18 8 -14 -12 5 -21 4 -21 -13 3 -10 14
-25 30 -33 36 -12 10 -12 13 5 22 10 6 14 12 9 12 -6 0 -16 -5 -23 -12 -8 -8
-16 -5 -31 13 -11 13 -20 28 -21 32 0 5 -4 6 -8 3 -5 -3 -15 5 -22 18 -7 13
-23 30 -36 37 -13 6 -26 20 -30 31 -3 10 -10 18 -15 18 -6 0 -7 5 -3 12 4 6 3
8 -4 4 -14 -8 -134 112 -125 127 3 7 3 9 -1 5 -9 -7 -18 -1 -73 50 -31 28 -33
35 -22 50 11 14 11 15 -1 5 -23 -21 -31 -15 -25 20 4 22 2 28 -4 17 -5 -8 -7
-18 -5 -22 3 -4 -2 -5 -10 -2 -19 7 -21 20 -3 28 6 3 2 3 -10 0 -22 -5 -50 26
-35 41 4 3 2 6 -3 5 -29 -6 -36 0 -24 23 9 18 9 20 -2 10 -19 -18 -32 -16 -25
4 4 10 4 14 0 11 -7 -7 -16 -1 -72 51 -34 32 -35 34 -17 47 10 8 14 14 8 14
-7 0 -15 -4 -18 -10 -12 -19 -25 -10 -21 15 3 15 1 23 -5 20 -5 -4 -6 -12 -2
-18 4 -7 -1 -6 -10 2 -14 11 -15 17 -5 30 12 14 11 14 -5 2 -9 -8 -21 -11 -24
-7 -4 4 -1 12 7 17 12 9 12 10 -3 5 -11 -3 -20 0 -23 9 -4 8 -11 15 -18 15 -6
0 -18 10 -26 21 -8 12 -20 27 -27 34 -7 7 -9 16 -5 19 3 4 -1 4 -11 0 -16 -6
-22 5 -18 29 1 5 -3 6 -8 3 -5 -4 -17 1 -26 11 -16 16 -16 17 1 30 10 7 13 13
8 13 -6 0 -15 -5 -22 -12 -16 -16 -28 -2 -13 16 11 13 9 14 -13 10 -18 -3 -26
0 -26 10 0 8 -5 18 -12 22 -7 4 -8 3 -4 -4 5 -9 0 -10 -16 -4 -13 4 -44 7 -70
6 -26 0 -45 3 -42 7 2 4 0 11 -6 14 -6 4 -9 1 -8 -6 2 -6 -3 -14 -11 -17 -10
-3 -11 0 -5 9 6 11 5 12 -7 3 -8 -7 -27 -12 -44 -12 -16 0 -36 5 -44 12 -10 7
-13 7 -8 0 4 -7 -6 -11 -29 -12 -23 -1 -33 2 -28 10 5 7 3 8 -7 2 -32 -20 -47
-14 -44 16 1 17 -1 30 -6 30 -4 0 -7 -12 -6 -27z"/>
<path d="M1030 4476 c7 -7 13 -7 20 0 6 6 3 10 -10 10 -13 0 -16 -4 -10 -10z"/>
<path d="M253 4455 c0 -8 4 -12 9 -9 5 3 6 10 3 15 -9 13 -12 11 -12 -6z"/>
<path d="M315 4461 c-3 -5 -2 -12 3 -15 5 -3 9 1 9 9 0 17 -3 19 -12 6z"/>
<path d="M825 4460 c-3 -6 1 -7 9 -4 18 7 21 14 7 14 -6 0 -13 -4 -16 -10z"/>
<path d="M879 4453 c-13 -17 -13 -17 6 -3 11 8 22 16 24 17 2 2 0 3 -6 3 -6 0
-17 -8 -24 -17z"/>
<path d="M1066 4462 c-2 -4 4 -8 14 -8 10 0 16 4 14 8 -3 4 -9 8 -14 8 -5 0
-11 -4 -14 -8z"/>
<path d="M650 4450 c-9 -6 -10 -10 -3 -10 6 0 15 5 18 10 8 12 4 12 -15 0z"/>
<path d="M940 4446 c7 -7 13 -7 20 0 6 6 3 10 -10 10 -13 0 -16 -4 -10 -10z"/>
<path d="M1230 4439 c0 -5 5 -7 10 -4 6 3 10 8 10 11 0 2 -4 4 -10 4 -5 0 -10
-5 -10 -11z"/>
<path d="M255 4351 c-3 -5 -2 -12 3 -15 5 -3 9 1 9 9 0 17 -3 19 -12 6z"/>
<path d="M1395 4251 c-3 -5 -2 -12 3 -15 5 -3 9 1 9 9 0 17 -3 19 -12 6z"/>
<path d="M310 4238 c0 -4 4 -8 9 -8 6 0 12 4 15 8 3 5 -1 9 -9 9 -8 0 -15 -4
-15 -9z"/>
<path d="M350 4241 c0 -6 4 -13 10 -16 6 -3 7 1 4 9 -7 18 -14 21 -14 7z"/>
<path d="M1486 4182 c-3 -5 1 -9 9 -9 8 0 12 4 9 9 -3 4 -7 8 -9 8 -2 0 -6 -4
-9 -8z"/>
<path d="M437 4165 c3 -8 9 -12 14 -9 12 7 11 11 -5 17 -10 4 -13 1 -9 -8z"/>
<path d="M446 4118 c10 -14 21 -24 23 -22 3 3 -6 15 -18 27 l-24 22 19 -27z"/>
<path d="M1503 4116 c1 -11 9 -21 17 -23 10 -3 11 -2 4 4 -6 4 -14 15 -17 23
-5 11 -6 9 -4 -4z"/>
<path d="M490 4059 c0 -5 5 -7 10 -4 6 3 10 8 10 11 0 2 -4 4 -10 4 -5 0 -10
-5 -10 -11z"/>
<path d="M1651 3964 c0 -11 3 -14 6 -6 3 7 2 16 -1 19 -3 4 -6 -2 -5 -13z"/>
<path d="M1759 3938 c-5 -18 -6 -38 -1 -34 7 8 12 36 6 36 -2 0 -4 -1 -5 -2z"/>
<path d="M670 3921 c0 -6 4 -13 10 -16 6 -3 7 1 4 9 -7 18 -14 21 -14 7z"/>
<path d="M1744 3879 c-3 -6 -1 -16 5 -22 9 -9 10 -7 5 7 -6 16 -4 18 10 13 10
-4 15 -3 11 3 -8 13 -22 13 -31 -1z"/>
<path d="M757 3845 c3 -8 9 -12 14 -9 12 7 11 11 -5 17 -10 4 -13 1 -9 -8z"/>
<path d="M1771 3853 c-1 -17 16 -25 25 -12 4 7 3 9 -4 5 -5 -3 -13 0 -15 6 -4
9 -6 10 -6 1z"/>
<path d="M766 3798 c10 -14 21 -24 23 -22 3 3 -6 15 -18 27 l-24 22 19 -27z"/>
<path d="M1879 3753 c-12 -16 -12 -17 2 -6 9 7 20 9 24 5 5 -4 5 -1 1 6 -9 16
-11 15 -27 -5z"/>
<path d="M810 3739 c0 -5 5 -7 10 -4 6 3 10 8 10 11 0 2 -4 4 -10 4 -5 0 -10
-5 -10 -11z"/>
<path d="M1890 3730 c-9 -6 -10 -10 -3 -10 6 0 15 5 18 10 8 12 4 12 -15 0z"/>
<path d="M1921 3716 c-9 -11 -9 -16 1 -22 7 -4 10 -4 6 1 -4 4 -3 14 3 22 6 7
9 13 6 13 -2 0 -10 -6 -16 -14z"/>
<path d="M997 3605 c3 -8 9 -12 14 -9 12 7 11 11 -5 17 -10 4 -13 1 -9 -8z"/>
<path d="M2035 3611 c-3 -5 -2 -12 3 -15 5 -3 9 1 9 9 0 17 -3 19 -12 6z"/>
<path d="M1016 3547 c3 -10 9 -15 12 -12 3 3 0 11 -7 18 -10 9 -11 8 -5 -6z"/>
<path d="M2126 3542 c-3 -5 1 -9 9 -9 8 0 12 4 9 9 -3 4 -7 8 -9 8 -2 0 -6 -4
-9 -8z"/>
<path d="M1076 3513 c-6 -14 -5 -15 5 -6 7 7 10 15 7 18 -3 3 -9 -2 -12 -12z"/>
<path d="M2095 3520 c3 -5 8 -10 11 -10 2 0 4 5 4 10 0 6 -5 10 -11 10 -5 0
-7 -4 -4 -10z"/>
<path d="M1113 3487 c0 -8 6 -14 13 -14 7 0 10 6 7 14 -3 7 -8 13 -12 13 -4 0
-8 -6 -8 -13z"/>
<path d="M2150 3486 c0 -2 7 -7 16 -10 8 -3 12 -2 9 4 -6 10 -25 14 -25 6z"/>
<path d="M2227 3395 c3 -8 9 -12 14 -9 12 7 11 11 -5 17 -10 4 -13 1 -9 -8z"/>
<path d="M2277 3389 c12 -12 24 -21 27 -18 2 2 -8 13 -22 23 l-27 19 22 -24z"/>
<path d="M1241 3364 c0 -11 3 -14 6 -6 3 7 2 16 -1 19 -3 4 -6 -2 -5 -13z"/>
<path d="M2330 3339 c0 -5 5 -7 10 -4 6 3 10 8 10 11 0 2 -4 4 -10 4 -5 0 -10
-5 -10 -11z"/>
<path d="M1246 3318 c10 -14 21 -24 23 -22 3 3 -6 15 -18 27 l-24 22 19 -27z"/>
<path d="M1280 3280 c-9 -6 -10 -10 -3 -10 6 0 15 5 18 10 8 12 4 12 -15 0z"/>
<path d="M1310 3281 c0 -6 4 -13 10 -16 6 -3 7 1 4 9 -7 18 -14 21 -14 7z"/>
<path d="M1405 3200 c21 -24 26 -25 19 -6 -3 8 -13 17 -22 21 -13 5 -13 2 3
-15z"/>
<path d="M1371 3187 c2 -1 15 -11 29 -22 l25 -20 -19 23 c-11 12 -24 22 -29
22 -6 0 -8 -1 -6 -3z"/>
<path d="M1438 3163 c7 -3 16 -2 19 1 4 3 -2 6 -13 5 -11 0 -14 -3 -6 -6z"/>
<path d="M2470 3166 c0 -2 7 -7 16 -10 8 -3 12 -2 9 4 -6 10 -25 14 -25 6z"/>
<path d="M2570 3101 c0 -6 4 -13 10 -16 6 -3 7 1 4 9 -7 18 -14 21 -14 7z"/>
<path d="M2546 3076 c3 -8 13 -17 22 -21 13 -5 13 -2 -3 15 -21 24 -26 25 -19
6z"/>
<path d="M1553 3046 c0 -7 6 -13 14 -13 7 0 13 4 13 8 0 4 -6 9 -13 12 -8 3
-14 0 -14 -7z"/>
<path d="M2591 3034 c0 -11 3 -14 6 -6 3 7 2 16 -1 19 -3 4 -6 -2 -5 -13z"/>
<path d="M1585 3000 c-3 -6 1 -7 9 -4 18 7 21 14 7 14 -6 0 -13 -4 -16 -10z"/>
<path d="M2640 3000 c-9 -6 -10 -10 -3 -10 6 0 15 5 18 10 8 12 4 12 -15 0z"/>
<path d="M1610 2946 c0 -2 7 -7 16 -10 8 -3 12 -2 9 4 -6 10 -25 14 -25 6z"/>
<path d="M1676 2931 c-3 -5 1 -11 9 -14 9 -4 12 -1 8 9 -6 16 -10 17 -17 5z"/>
<path d="M2739 2913 c-13 -16 -12 -17 4 -4 16 13 21 21 13 21 -2 0 -10 -8 -17
-17z"/>
<path d="M2735 2880 c3 -5 8 -10 11 -10 2 0 4 5 4 10 0 6 -5 10 -11 10 -5 0
-7 -4 -4 -10z"/>
<path d="M1745 2840 c-3 -6 1 -7 9 -4 18 7 21 14 7 14 -6 0 -13 -4 -16 -10z"/>
<path d="M1770 2786 c0 -2 7 -7 16 -10 8 -3 12 -2 9 4 -6 10 -25 14 -25 6z"/>
<path d="M1836 2771 c-3 -5 1 -11 9 -14 9 -4 12 -1 8 9 -6 16 -10 17 -17 5z"/>
<path d="M2875 2751 c-6 -11 13 -26 22 -17 4 3 1 6 -6 6 -7 0 -9 5 -6 10 3 6
4 10 1 10 -3 0 -7 -4 -11 -9z"/>
<path d="M1836 2722 c-3 -5 1 -9 9 -9 8 0 12 4 9 9 -3 4 -7 8 -9 8 -2 0 -6 -4
-9 -8z"/>
<path d="M1870 2723 c0 -6 8 -17 18 -24 16 -13 16 -13 2 6 -8 11 -16 22 -17
24 -2 2 -3 0 -3 -6z"/>
<path d="M2925 2699 c-4 -6 -5 -12 -2 -15 2 -3 7 2 10 11 7 17 1 20 -8 4z"/>
<path d="M2946 2682 c-2 -4 4 -8 14 -8 10 0 16 4 14 8 -3 4 -9 8 -14 8 -5 0
-11 -4 -14 -8z"/>
<path d="M1910 2654 c6 -6 7 -13 4 -17 -3 -3 1 -4 10 -3 8 1 19 6 23 10 4 4 4
7 -2 6 -21 -5 -29 1 -15 10 12 7 10 9 -7 7 -15 -1 -19 -5 -13 -13z"/>
<path d="M2950 2653 c0 -1 8 -7 18 -12 13 -7 19 -6 19 2 0 7 -9 13 -19 13 -10
0 -18 -1 -18 -3z"/>
<path d="M1970 2631 c0 -5 5 -13 10 -16 6 -3 10 -2 10 4 0 5 -4 13 -10 16 -5
3 -10 2 -10 -4z"/>
<path d="M1840 2620 c-12 -7 -10 -9 7 -7 12 0 19 5 17 9 -6 10 -6 10 -24 -2z"/>
<path d="M1950 2623 c0 -6 8 -17 18 -24 16 -13 16 -13 2 6 -8 11 -16 22 -17
24 -2 2 -3 0 -3 -6z"/>
<path d="M1880 2606 c0 -2 8 -10 18 -17 15 -13 16 -12 3 4 -13 16 -21 21 -21
13z"/>
<path d="M3076 2593 c-6 -14 -5 -15 5 -6 7 7 10 15 7 18 -3 3 -9 -2 -12 -12z"/>
<path d="M1948 2573 c6 -2 18 -2 25 0 6 3 1 5 -13 5 -14 0 -19 -2 -12 -5z"/>
<path d="M1876 2553 c-6 -14 -5 -15 5 -6 7 7 10 15 7 18 -3 3 -9 -2 -12 -12z"/>
<path d="M1836 2538 c3 -5 10 -6 15 -3 13 9 11 12 -6 12 -8 0 -12 -4 -9 -9z"/>
<path d="M1631 2450 c-13 -11 -19 -20 -14 -20 6 0 18 9 28 20 23 25 17 25 -14
0z"/>
<path d="M3028 2443 c7 -3 16 -2 19 1 4 3 -2 6 -13 5 -11 0 -14 -3 -6 -6z"/>
<path d="M3010 2380 c0 -5 5 -10 11 -10 5 0 7 5 4 10 -3 6 -8 10 -11 10 -2 0
-4 -4 -4 -10z"/>
<path d="M2956 2338 c3 -4 11 -5 19 -1 21 7 19 12 -4 10 -11 0 -18 -5 -15 -9z"/>
<path d="M2933 2325 c0 -8 4 -12 9 -9 5 3 6 10 3 15 -9 13 -12 11 -12 -6z"/>
<path d="M1485 2319 c-4 -6 -4 -13 -1 -16 3 -4 6 -1 6 6 0 7 5 9 10 6 6 -3 10
-1 10 4 0 14 -17 14 -25 0z"/>
<path d="M2879 2253 c-12 -16 -12 -17 2 -6 9 7 20 9 24 5 5 -4 5 -1 1 6 -9 16
-11 15 -27 -5z"/>
<path d="M1313 2151 c0 -11 5 -18 9 -15 4 3 5 11 1 19 -7 21 -12 19 -10 -4z"/>
<path d="M2766 2142 c-3 -5 1 -9 9 -9 8 0 12 4 9 9 -3 4 -7 8 -9 8 -2 0 -6 -4
-9 -8z"/>
<path d="M2693 2116 c-3 -6 -3 -8 2 -4 4 4 13 3 20 -2 8 -7 12 -5 12 3 0 16
-25 18 -34 3z"/>
<path d="M3466 2100 c-8 -17 -10 -28 -5 -25 5 4 9 -8 9 -25 0 -22 -4 -29 -12
-24 -10 6 -10 5 -1 -7 10 -12 10 -18 0 -29 -9 -9 -9 -11 0 -6 9 5 12 -17 11
-84 0 -60 -4 -90 -12 -90 -7 0 -8 -3 -1 -8 16 -10 17 -152 2 -152 -8 0 -8 -3
-2 -8 16 -11 19 -46 3 -36 -10 6 -10 5 -2 -7 7 -8 12 -42 12 -75 0 -59 -1 -62
-24 -59 -14 1 -27 -1 -29 -5 -2 -4 8 -7 23 -6 25 1 27 -2 30 -47 2 -38 0 -47
-10 -41 -11 6 -11 5 0 -8 7 -8 12 -33 11 -54 -4 -100 1 -129 22 -142 12 -8 18
-9 14 -3 -3 6 0 11 9 11 8 0 17 -6 19 -12 4 -10 6 -10 6 0 1 16 38 16 44 0 4
-10 6 -10 6 0 1 18 19 15 24 -5 4 -15 5 -15 6 -2 2 24 121 25 122 1 0 -14 2
-13 9 3 6 13 9 15 9 5 1 -11 3 -12 9 -3 8 13 29 12 51 -1 9 -6 12 -5 8 1 -5 7
40 10 141 9 112 -2 146 -5 144 -15 -1 -7 2 -10 8 -6 6 3 8 11 5 16 -4 5 -2 9
4 9 5 0 12 -8 14 -17 4 -17 5 -17 6 0 0 9 8 17 16 17 9 0 12 -6 9 -17 -5 -15
-4 -16 5 -2 7 11 27 15 83 14 40 0 79 -5 87 -9 9 -6 12 -5 7 2 -4 7 7 10 34 9
25 -1 40 -6 40 -14 0 -7 3 -12 8 -10 4 1 17 -8 30 -21 19 -19 21 -26 12 -45
-11 -21 -11 -21 4 -3 16 19 17 19 46 -11 29 -29 30 -32 13 -42 -16 -9 -15 -10
7 -7 33 5 64 -22 48 -41 -8 -10 -8 -17 1 -26 10 -9 11 -8 6 6 -13 34 18 17 73
-38 36 -38 52 -61 48 -72 -5 -12 -4 -13 7 -4 11 8 18 7 31 -8 17 -18 17 -20
-1 -31 -16 -10 -15 -10 5 -5 19 5 33 -4 77 -49 29 -31 56 -56 58 -56 3 0 5 45
4 100 -1 55 0 100 3 100 10 0 5 175 -5 182 -6 5 -4 8 5 8 13 0 13 1 0 10 -8 5
-10 10 -5 10 6 0 9 19 7 45 -3 28 1 52 9 62 8 9 9 14 3 10 -7 -4 -14 0 -18 8
-3 8 0 15 6 15 7 0 6 5 -2 15 -15 18 0 20 20 3 8 -7 6 -3 -4 9 -13 16 -17 34
-15 72 3 30 0 51 -6 51 -5 0 -4 4 4 9 11 7 11 9 0 14 -8 3 -9 6 -4 6 11 1 11
113 -1 132 -5 9 -1 10 16 6 l22 -6 -21 21 c-21 19 -21 21 -4 35 10 8 12 12 6
8 -13 -6 -17 4 -14 40 1 14 -1 16 -7 7 -11 -16 -142 -13 -142 3 0 6 -4 5 -8
-2 -9 -15 -152 -14 -152 1 0 7 -3 7 -8 0 -10 -17 -207 -14 -207 3 0 6 -3 15
-7 19 -4 3 -6 -3 -3 -14 3 -19 -1 -20 -58 -20 -34 0 -68 6 -76 12 -11 8 -13 8
-7 -1 4 -8 1 -13 -9 -13 -9 0 -14 4 -11 8 3 5 -1 9 -9 9 -8 0 -12 -4 -9 -9 9
-14 -160 -7 -168 6 -5 8 -8 7 -8 -1 0 -7 -5 -13 -11 -13 -5 0 -7 6 -3 13 6 10
4 10 -7 0 -16 -16 -36 -17 -52 -3 -56 47 -66 60 -62 79 2 12 0 19 -6 16 -5 -4
-6 -12 -2 -18 4 -7 -7 -1 -24 13 -19 15 -30 31 -27 40 3 8 2 11 -2 8 -7 -7
-16 -1 -72 51 -34 32 -35 34 -17 47 10 8 14 14 8 14 -7 0 -15 -4 -18 -10 -12
-19 -26 -10 -21 13 3 12 3 17 0 10 -7 -16 -34 -5 -34 14 0 8 -5 11 -12 7 -6
-4 -8 -3 -4 4 3 6 -3 13 -14 17 -16 5 -19 12 -15 38 4 22 2 28 -4 17 -5 -8 -7
-18 -4 -23 3 -5 -4 -3 -16 5 -14 9 -19 19 -15 33 4 16 3 17 -5 5 -10 -14 -15
-7 -12 13 1 5 -3 6 -8 3 -11 -7 -82 59 -74 68 4 3 4 6 0 6 -3 0 -12 -14 -21
-30z"/>
<path d="M3530 2100 c0 -5 5 -10 11 -10 5 0 7 5 4 10 -3 6 -8 10 -11 10 -2 0
-4 -4 -4 -10z"/>
<path d="M2670 2090 c-11 -7 -11 -10 -2 -10 8 0 10 -5 6 -12 -4 -7 -3 -9 1 -5
7 6 17 37 12 37 -1 0 -9 -5 -17 -10z"/>
<path d="M2636 2062 c-3 -5 1 -9 9 -9 8 0 12 4 9 9 -3 4 -7 8 -9 8 -2 0 -6 -4
-9 -8z"/>
<path d="M1197 2033 c-10 -10 -8 -23 4 -23 5 0 8 4 5 9 -4 5 0 12 6 14 7 3 8
6 2 6 -6 1 -14 -2 -17 -6z"/>
<path d="M3451 1954 c0 -11 3 -14 6 -6 3 7 2 16 -1 19 -3 4 -6 -2 -5 -13z"/>
<path d="M3676 1958 c3 -5 10 -6 15 -3 13 9 11 12 -6 12 -8 0 -12 -4 -9 -9z"/>
<path d="M2566 1942 c-3 -5 1 -9 9 -9 8 0 12 4 9 9 -3 4 -7 8 -9 8 -2 0 -6 -4
-9 -8z"/>
<path d="M3423 1916 c-3 -6 -3 -8 2 -4 4 4 13 1 19 -8 10 -13 12 -13 12 4 0
20 -23 26 -33 8z"/>
<path d="M1039 1873 c-13 -16 -12 -17 4 -4 9 7 17 15 17 17 0 8 -8 3 -21 -13z"/>
<path d="M3743 1876 c1 -11 9 -21 17 -23 10 -3 11 -2 4 4 -6 4 -14 15 -17 23
-5 11 -6 9 -4 -4z"/>
<path d="M3416 1858 c3 -4 11 -5 19 -1 21 7 19 12 -4 10 -11 0 -18 -5 -15 -9z"/>
<path d="M994 1840 c0 -13 4 -16 10 -10 7 7 7 13 0 20 -6 6 -10 3 -10 -10z"/>
<path d="M2453 1825 c0 -8 4 -12 9 -9 5 3 6 10 3 15 -9 13 -12 11 -12 -6z"/>
<path d="M3415 1820 c-3 -5 -1 -10 4 -10 6 0 11 5 11 10 0 6 -2 10 -4 10 -3 0
-8 -4 -11 -10z"/>
<path d="M3854 1798 c-4 -7 -3 -10 1 -5 5 4 17 0 27 -10 10 -9 20 -14 22 -12
2 2 -6 12 -19 22 -18 13 -25 14 -31 5z"/>
<path d="M910 1796 c0 -2 8 -10 18 -17 15 -13 16 -12 3 4 -13 16 -21 21 -21
13z"/>
<path d="M2334 1758 c-4 -7 -4 -10 1 -6 4 4 15 2 24 -5 14 -11 14 -10 2 6 -16
20 -18 21 -27 5z"/>
<path d="M3910 1746 c0 -2 7 -7 16 -10 8 -3 12 -2 9 4 -6 10 -25 14 -25 6z"/>
<path d="M3420 1725 c0 -2 6 -8 13 -14 10 -8 14 -7 14 2 0 8 -6 14 -14 14 -7
0 -13 -1 -13 -2z"/>
<path d="M3907 1715 c3 -8 9 -12 14 -9 12 7 11 11 -5 17 -10 4 -13 1 -9 -8z"/>
<path d="M4250 1700 c0 -5 5 -10 11 -10 5 0 7 5 4 10 -3 6 -8 10 -11 10 -2 0
-4 -4 -4 -10z"/>
<path d="M4533 1689 c-2 -23 3 -25 10 -4 4 8 3 16 -1 19 -4 3 -9 -4 -9 -15z"/>
<path d="M4575 1700 c-3 -5 -1 -10 4 -10 6 0 11 5 11 10 0 6 -2 10 -4 10 -3 0
-8 -4 -11 -10z"/>
<path d="M4735 1701 c-3 -5 -2 -12 3 -15 5 -3 9 1 9 9 0 17 -3 19 -12 6z"/>
<path d="M2316 1687 c3 -10 9 -15 12 -12 3 3 0 11 -7 18 -10 9 -11 8 -5 -6z"/>
<path d="M3980 1689 c0 -5 -4 -7 -10 -4 -5 3 -10 2 -10 -3 0 -19 26 -20 27 -1
1 10 0 19 -3 19 -2 0 -4 -5 -4 -11z"/>
<path d="M4814 1689 c-3 -6 -2 -15 3 -20 5 -5 9 -1 9 11 0 23 -2 24 -12 9z"/>
<path d="M4476 1672 c-2 -4 4 -8 14 -8 10 0 16 4 14 8 -3 4 -9 8 -14 8 -5 0
-11 -4 -14 -8z"/>
<path d="M776 1653 c-6 -14 -5 -15 5 -6 7 7 10 15 7 18 -3 3 -9 -2 -12 -12z"/>
<path d="M3415 1660 c-3 -5 -1 -10 4 -10 6 0 11 5 11 10 0 6 -2 10 -4 10 -3 0
-8 -4 -11 -10z"/>
<path d="M4108 1663 c6 -2 18 -2 25 0 6 3 1 5 -13 5 -14 0 -19 -2 -12 -5z"/>
<path d="M4158 1663 c7 -3 16 -2 19 1 4 3 -2 6 -13 5 -11 0 -14 -3 -6 -6z"/>
<path d="M4428 1663 c6 -2 18 -2 25 0 6 3 1 5 -13 5 -14 0 -19 -2 -12 -5z"/>
<path d="M4949 1643 c-13 -16 -12 -17 4 -4 16 13 21 21 13 21 -2 0 -10 -8 -17
-17z"/>
<path d="M2253 1625 c0 -8 4 -12 9 -9 5 3 6 10 3 15 -9 13 -12 11 -12 -6z"/>
<path d="M726 1602 c-3 -5 1 -9 9 -9 8 0 12 4 9 9 -3 4 -7 8 -9 8 -2 0 -6 -4
-9 -8z"/>
<path d="M2214 1596 c1 -8 5 -18 8 -22 4 -3 5 1 4 10 -1 8 -5 18 -8 22 -4 3
-5 -1 -4 -10z"/>
<path d="M3433 1535 c0 -8 4 -12 9 -9 5 3 6 10 3 15 -9 13 -12 11 -12 -6z"/>
<path d="M2061 1478 c-13 -20 -12 -22 1 -11 8 7 17 11 20 8 3 -3 11 3 19 12
13 16 12 17 -3 5 -10 -8 -17 -9 -20 -2 -1 5 -9 0 -17 -12z"/>
<path d="M600 1486 c0 -2 8 -10 18 -17 15 -13 16 -12 3 4 -13 16 -21 21 -21
13z"/>
<path d="M596 1413 c-6 -14 -5 -15 5 -6 7 7 10 15 7 18 -3 3 -9 -2 -12 -12z"/>
<path d="M3452 1400 c0 -14 2 -19 5 -12 2 6 2 18 0 25 -3 6 -5 1 -5 -13z"/>
<path d="M559 1393 c-13 -16 -12 -17 4 -4 16 13 21 21 13 21 -2 0 -10 -8 -17
-17z"/>
<path d="M2015 1389 c-4 -6 -5 -12 -2 -15 2 -3 7 2 10 11 7 17 1 20 -8 4z"/>
<path d="M514 1360 c0 -13 4 -16 10 -10 7 7 7 13 0 20 -6 6 -10 3 -10 -10z"/>
<path d="M1974 1356 c1 -8 5 -18 8 -22 4 -3 5 1 4 10 -1 8 -5 18 -8 22 -4 3
-5 -1 -4 -10z"/>
<path d="M3430 1346 c0 -2 7 -7 16 -10 8 -3 12 -2 9 4 -6 10 -25 14 -25 6z"/>
<path d="M496 1327 c3 -10 9 -15 12 -12 3 3 0 11 -7 18 -10 9 -11 8 -5 -6z"/>
<path d="M471 1313 c7 -12 15 -20 18 -17 3 2 -3 12 -13 22 -17 16 -18 16 -5
-5z"/>
<path d="M4936 1293 c-6 -14 -5 -15 5 -6 7 7 10 15 7 18 -3 3 -9 -2 -12 -12z"/>
<path d="M1855 1281 c-3 -5 -2 -12 3 -15 5 -3 9 1 9 9 0 17 -3 19 -12 6z"/>
<path d="M3393 1235 c0 -8 4 -12 9 -9 5 3 6 10 3 15 -9 13 -12 11 -12 -6z"/>
<path d="M3436 1242 c-3 -5 1 -9 9 -9 8 0 12 4 9 9 -3 4 -7 8 -9 8 -2 0 -6 -4
-9 -8z"/>
<path d="M395 1231 c-3 -5 -2 -12 3 -15 5 -3 9 1 9 9 0 17 -3 19 -12 6z"/>
<path d="M1833 1215 c0 -8 4 -12 9 -9 5 3 6 10 3 15 -9 13 -12 11 -12 -6z"/>
<path d="M1790 1179 c0 -5 5 -7 10 -4 6 3 10 8 10 11 0 2 -4 4 -10 4 -5 0 -10
-5 -10 -11z"/>
<path d="M590 1145 c-11 -13 -10 -14 4 -9 9 3 16 10 16 15 0 13 -6 11 -20 -6z"/>
<path d="M626 1143 c-6 -14 -5 -15 5 -6 7 7 10 15 7 18 -3 3 -9 -2 -12 -12z"/>
<path d="M826 1145 c-11 -8 -15 -15 -9 -15 6 0 16 7 23 15 16 19 11 19 -14 0z"/>
<path d="M990 1145 c-11 -13 -10 -14 4 -9 9 3 16 10 16 15 0 13 -6 11 -20 -6z"/>
<path d="M1027 1146 c-4 -10 -1 -13 8 -9 8 3 12 9 9 14 -7 12 -11 11 -17 -5z"/>
<path d="M1070 1145 c-11 -13 -10 -14 4 -9 9 3 16 10 16 15 0 13 -6 11 -20 -6z"/>
<path d="M1106 1143 c-6 -14 -5 -15 5 -6 7 7 10 15 7 18 -3 3 -9 -2 -12 -12z"/>
<path d="M1309 1143 c-13 -16 -12 -17 4 -4 9 7 17 15 17 17 0 8 -8 3 -21 -13z"/>
<path d="M1470 1145 c-11 -13 -10 -14 4 -9 9 3 16 10 16 15 0 13 -6 11 -20 -6z"/>
<path d="M1507 1146 c-4 -10 -1 -13 8 -9 8 3 12 9 9 14 -7 12 -11 11 -17 -5z"/>
<path d="M1550 1145 c-11 -13 -10 -14 4 -9 9 3 16 10 16 15 0 13 -6 11 -20 -6z"/>
<path d="M1586 1143 c-6 -14 -5 -15 5 -6 7 7 10 15 7 18 -3 3 -9 -2 -12 -12z"/>
<path d="M3473 1145 c0 -8 4 -12 9 -9 5 3 6 10 3 15 -9 13 -12 11 -12 -6z"/>
<path d="M3789 1143 c-13 -16 -12 -17 4 -4 16 13 21 21 13 21 -2 0 -10 -8 -17
-17z"/>
<path d="M3870 1145 c-11 -13 -10 -14 4 -9 9 3 16 10 16 15 0 13 -6 11 -20 -6z"/>
<path d="M3907 1147 c-3 -8 0 -14 7 -14 7 0 13 6 13 14 0 7 -4 13 -8 13 -4 0
-9 -6 -12 -13z"/>
<path d="M3950 1145 c-11 -13 -10 -14 4 -9 9 3 16 10 16 15 0 13 -6 11 -20 -6z"/>
<path d="M3986 1143 c-6 -14 -5 -15 5 -6 7 7 10 15 7 18 -3 3 -9 -2 -12 -12z"/>
<path d="M4077 1149 c7 -7 15 -10 18 -7 3 3 -2 9 -12 12 -14 6 -15 5 -6 -5z"/>
<path d="M4310 1156 c0 -2 8 -10 18 -17 15 -13 16 -12 3 4 -13 16 -21 21 -21
13z"/>
<path d="M4390 1151 c0 -5 7 -11 14 -14 10 -4 13 -1 9 9 -6 15 -23 19 -23 5z"/>
<path d="M946 1138 c3 -5 10 -6 15 -3 13 9 11 12 -6 12 -8 0 -12 -4 -9 -9z"/>
<path d="M1360 1140 c-9 -6 -10 -10 -3 -10 6 0 15 5 18 10 8 12 4 12 -15 0z"/>
<path d="M3668 1143 c6 -2 18 -2 25 0 6 3 1 5 -13 5 -14 0 -19 -2 -12 -5z"/>
<path d="M1150 1116 c7 -7 13 -7 20 0 6 6 3 10 -10 10 -13 0 -16 -4 -10 -10z"/>
<path d="M1390 1126 c0 -2 7 -7 16 -10 8 -3 12 -2 9 4 -6 10 -25 14 -25 6z"/>
<path d="M1606 1122 c-3 -5 1 -9 9 -9 8 0 12 4 9 9 -3 4 -7 8 -9 8 -2 0 -6 -4
-9 -8z"/>
<path d="M3530 1126 c0 -2 7 -7 16 -10 8 -3 12 -2 9 4 -6 10 -25 14 -25 6z"/>
<path d="M3670 1120 c0 -5 5 -10 11 -10 5 0 7 5 4 10 -3 6 -8 10 -11 10 -2 0
-4 -4 -4 -10z"/>
<path d="M4030 1116 c7 -7 13 -7 20 0 6 6 3 10 -10 10 -13 0 -16 -4 -10 -10z"/>
<path d="M4279 1113 c-13 -16 -12 -17 4 -4 9 7 17 15 17 17 0 8 -8 3 -21 -13z"/>
<path d="M4364 1118 c-4 -7 -3 -8 5 -4 6 4 20 2 29 -6 15 -12 16 -11 3 5 -16
20 -27 22 -37 5z"/>
<path d="M1310 1099 c0 -5 5 -7 10 -4 6 3 10 8 10 11 0 2 -4 4 -10 4 -5 0 -10
-5 -10 -11z"/>
<path d="M4235 1100 c-3 -5 -1 -10 4 -10 6 0 11 5 11 10 0 6 -2 10 -4 10 -3 0
-8 -4 -11 -10z"/>
<path d="M4433 1090 c19 -25 20 -26 13 -6 -5 14 -2 17 9 12 9 -3 13 -2 10 3
-3 6 -14 9 -25 8 -15 -1 -17 -4 -7 -17z"/>
<path d="M4347 1079 c7 -7 15 -10 18 -7 3 3 -2 9 -12 12 -14 6 -15 5 -6 -5z"/>
<path d="M4936 973 c-6 -14 -5 -15 5 -6 7 7 10 15 7 18 -3 3 -9 -2 -12 -12z"/>
<path d="M4615 900 c3 -5 8 -10 11 -10 2 0 4 5 4 10 0 6 -5 10 -11 10 -5 0 -7
-4 -4 -10z"/>
<path d="M4936 893 c-6 -14 -5 -15 5 -6 7 7 10 15 7 18 -3 3 -9 -2 -12 -12z"/>
<path d="M4664 882 c4 -3 14 -7 22 -8 9 -1 13 0 10 4 -4 3 -14 7 -22 8 -9 1
-13 0 -10 -4z"/>
<path d="M4690 819 c0 -5 5 -7 10 -4 6 3 10 8 10 11 0 2 -4 4 -10 4 -5 0 -10
-5 -10 -11z"/>
<path d="M4776 747 c3 -10 9 -15 12 -12 3 3 0 11 -7 18 -10 9 -11 8 -5 -6z"/>
<path d="M4936 738 c3 -5 10 -6 15 -3 13 9 11 12 -6 12 -8 0 -12 -4 -9 -9z"/>
</g>
</svg>
