<?xml version="1.0" encoding="UTF-8"?>
<svg width="883px" height="247px" viewBox="0 0 883 247" version="1.1" xmlns="http://www.w3.org/2000/svg" xmlns:xlink="http://www.w3.org/1999/xlink">
    <!-- Generator: Sketch 58 (84663) - https://sketch.com -->
    <title>Agens logo - dark</title>
    <desc>Created with Sketch.</desc>
    <g id="01-Logo" stroke="none" stroke-width="1" fill="none" fill-rule="evenodd">
        <g id="Agens-logo" transform="translate(-456.000000, -1242.000000)" fill="#000000">
            <path d="M1272.1404,1242 C1298.49294,1242 1320.19574,1250.24819 1334.82128,1262.62049 C1330.64255,1266.74458 1313.92765,1283.24097 1307.65956,1289.42712 C1295.11794,1279.11688 1282.58721,1279.11688 1272.1404,1279.11688 C1257.51486,1279.11688 1251.24678,1287.36507 1251.24678,1291.48917 C1251.24678,1301.79941 1268.40531,1304.9693 1286.76594,1310.04761 C1307.53353,1315.79165 1339,1324.48221 1339,1353.35063 C1339,1382.21931 1309.74893,1406.9639 1272.1404,1406.9639 C1245.00458,1406.9639 1215.72761,1394.59161 1205.2808,1382.21931 C1211.54889,1376.03317 1228.26379,1359.53678 1234.53188,1353.35063 C1247.06805,1365.72292 1261.69359,1367.78497 1272.1404,1367.78497 C1286.63018,1367.78497 1297.21275,1363.66088 1297.21275,1355.41268 C1297.21275,1345.10244 1276.47786,1341.50948 1259.60423,1336.85424 C1232.84737,1329.47234 1209.45953,1317.99212 1209.45953,1289.42712 C1209.45953,1260.55844 1241.03076,1242 1272.1404,1242 Z M1108.73101,1242 C1154.46818,1242 1183.97639,1275.16649 1183.97639,1316.07942 L1183.97639,1402.50542 L1142.1734,1402.50542 L1142.1734,1314.02166 C1142.1734,1295.83813 1127.20073,1281.09747 1108.73101,1281.09747 C1090.26128,1281.09747 1075.28862,1295.83813 1075.28862,1314.02166 L1075.28862,1402.50542 L1033.48563,1402.50542 L1033.48563,1262.57762 L1057.63488,1260.20011 C1070.47438,1248.86456 1087.92322,1242 1108.73101,1242 Z M924.697125,1242 C971.010511,1242 1008.55493,1278.92843 1008.55493,1324.48195 C1008.55493,1330.1314 1007.97748,1335.64819 1006.87747,1340.97834 L885.917988,1340.97834 C892.199498,1356.71131 907.196151,1367.78497 924.697125,1367.78497 C935.207165,1367.78497 944.814024,1363.79127 952.172539,1357.19311 L988.141205,1378.42023 C972.764518,1395.90275 950.044103,1406.9639 924.697125,1406.9639 C878.38374,1406.9639 840.839322,1370.03547 840.839322,1324.48195 C840.839322,1278.92843 878.38374,1242 924.697125,1242 Z M924.697125,1280.78881 C907.308921,1280.78881 892.408899,1291.83945 886.167864,1307.53971 L963.226386,1307.53971 C956.985351,1291.83945 942.08533,1280.78881 924.697125,1280.78881 Z M732.050821,1242 C751.502658,1242 769.407615,1248.50258 783.633706,1259.41451 L815.908624,1262.58333 L815.908624,1407.00942 L815.908624,1407.00942 C815.908624,1452.29157 778.520507,1489 732.399926,1489 C709.339636,1489 688.462461,1479.82289 673.350359,1464.98552 L702.875143,1435.99747 C710.431194,1443.41616 720.869781,1448.00471 732.399926,1448.00471 C755.460216,1448.00471 774.154275,1429.6505 774.154275,1407.00942 C774.154275,1406.89506 774.153798,1406.78081 774.152846,1406.66667 L773.979723,1406.66667 L773.979723,1403.23565 C773.76042,1400.87648 773.337538,1398.5751 772.728472,1396.34857 C760.680984,1402.92243 746.811255,1406.66667 732.050821,1406.66667 C685.737436,1406.66667 648.193018,1369.80478 648.193018,1324.33333 C648.193018,1278.86189 685.737436,1242 732.050821,1242 Z M732.050821,1280.78881 C709.0193,1280.78881 690.348563,1300.15128 690.348563,1324.0361 C690.348563,1347.92092 709.0193,1367.28339 732.050821,1367.28339 C755.082343,1367.28339 773.75308,1347.92092 773.75308,1324.0361 C773.75308,1300.15128 755.082343,1280.78881 732.050821,1280.78881 Z M539.857803,1242 C559.30964,1242 577.214597,1248.51432 591.440687,1259.44595 L623.715606,1262.62049 L623.715606,1402.8398 L581.786704,1402.8398 L581.786704,1395.92928 C569.452356,1402.94726 555.131972,1406.9639 539.857803,1406.9639 C493.544417,1406.9639 456,1370.03547 456,1324.48195 C456,1278.92843 493.544417,1242 539.857803,1242 Z M539.404517,1280.78881 C516.372996,1280.78881 497.702259,1300.15128 497.702259,1324.0361 C497.702259,1347.92092 516.372996,1367.28339 539.404517,1367.28339 C562.436039,1367.28339 581.106776,1347.92092 581.106776,1324.0361 C581.106776,1300.15128 562.436039,1280.78881 539.404517,1280.78881 Z" id="Agens-logo---dark"></path>
        </g>
    </g>
</svg>