<?xml version="1.0" encoding="UTF-8"?>
<!-- Generator: Adobe Illustrator 21.1.0, SVG Export Plug-In . SVG Version: 6.00 Build 0)  -->
<svg version="1.1" id="Layer_1" xmlns="http://www.w3.org/2000/svg" xmlns:xlink="http://www.w3.org/1999/xlink" x="0px" y="0px" viewBox="0 0 204.1 125.1" enable-background="new 0 0 204.1 125.1" xml:space="preserve">
<g>
	<g>
		<path fill="#143C6E" d="M115.1,83.5c1.5,0,2.8,1.2,2.8,2.8c0,1.5-1.2,2.7-2.8,2.7c-1.5,0-2.7-1.2-2.7-2.7    C112.4,84.7,113.6,83.5,115.1,83.5z"/>
		<path fill="#143C6E" d="M113,94.3c0-0.4,0.3-0.8,0.8-0.8h2.6c0.4,0,0.8,0.4,0.8,0.8v19.8h-3.4c-0.4,0-0.8-0.4-0.8-0.8V94.3z"/>
		<path fill="#143C6E" d="M151.5,83.5c1.5,0,2.8,1.2,2.8,2.8c0,1.5-1.2,2.7-2.8,2.7c-1.5,0-2.7-1.2-2.7-2.7    C148.8,84.7,149.9,83.5,151.5,83.5z"/>
		<path fill="#143C6E" d="M149.4,94.3c0-0.4,0.4-0.8,0.8-0.8h2.6c0.4,0,0.8,0.4,0.8,0.8v19.8h-3.4c-0.4,0-0.8-0.4-0.8-0.8V94.3z"/>
		<path fill="#143C6E" d="M142.2,83h-2.6c-0.4,0-0.8,0.3-0.8,0.8v11.6c-1.8-1.5-4.1-2.2-6.3-2.2c-1.9,0-3.6,0.5-5,1.3    c-3.1,1.8-5.3,5.3-5.3,9.4c0,4.1,2.1,7.5,5.3,9.4c1.4,0.8,3.3,1.4,5.2,1.4c2.5,0,4.7-0.8,6.4-2.3v1.1c0,0.4,0.3,0.8,0.8,0.8h3.3    V83.8C143,83.4,142.6,83,142.2,83z M138.8,107.7c-1.4,1.9-3.6,2.9-5.7,2.9c-4,0-6.8-3.1-6.8-6.8c0-3.6,2.6-6.8,6.6-6.8    c2.5,0,4.6,1.3,5.9,2.9V107.7z"/>
		<path fill="#143C6E" d="M178.5,93.5h-2.5c-0.4,0-0.8,0.3-0.8,0.8v1.1c-1.9-1.6-4.1-2.3-6.5-2.3c-1.9,0-3.6,0.5-5,1.3    c-3.1,1.8-5.3,5.3-5.3,9.4c0,4.1,2.2,7.5,5.3,9.4c1.4,0.8,3.3,1.4,5.2,1.4c2.5,0,4.6-0.8,6.2-2.2v1.1c0,2.6-0.4,4.2-1.1,5.3    c-1,1.5-2.8,2.4-5,2.4c-3.1,0-4.9-1.4-6.4-3.2c0,0,0,0,0,0c-0.3-0.2-0.7-0.2-1,0c0,0-0.1,0.1-0.1,0.1l-2.4,2.2    c1.3,2.1,4.7,4.8,10,4.8c4.1,0,7.2-1.9,8.9-5.1c0.8-1.6,1.2-3.7,1.2-6.8v-19C179.3,93.9,179,93.5,178.5,93.5z M175.1,107.7    c-1.4,1.9-3.6,2.9-5.7,2.9c-4,0-6.8-3.1-6.8-6.8c0-3.6,2.6-6.8,6.6-6.8c2.5,0,4.6,1.3,5.9,2.9V107.7z"/>
		<path fill="#143C6E" d="M63.2,103.9c0-6.1-4.2-10.8-9.9-10.8c-5.8,0-10.1,4.6-10.1,10.8c0,6.2,4.7,10.8,10.7,10.8    c4.2,0,7.2-1.9,8.7-3.9c0,0-2.3-2.2-2.3-2.2c-0.3-0.2-0.6-0.1-0.8,0c-0.1,0.1-0.3,0.2-0.3,0.2c-1.1,1.1-2.7,2.2-5.3,2.2    c-3.6,0-6.4-2.8-6.7-6.2h15.1c0.4,0,0.8-0.3,0.8-0.7C63.2,104,63.2,103.9,63.2,103.9L63.2,103.9z M47.6,101.2    c0.7-2.7,3.1-4.5,5.8-4.5c2.5,0,4.8,1.8,5.4,4.5H47.6z"/>
		<path fill="#143C6E" d="M204.1,103.9c0-6.1-4.2-10.8-9.9-10.8c-5.8,0-10.1,4.6-10.1,10.8c0,6.2,4.7,10.8,10.7,10.8    c4.2,0,7.2-1.9,8.7-3.9c0,0-2.3-2.2-2.3-2.2c-0.3-0.2-0.6-0.1-0.8,0c-0.1,0.1-0.3,0.2-0.3,0.2c-1.1,1.1-2.7,2.2-5.3,2.2    c-3.6,0-6.5-2.8-6.7-6.2h15.1c0.4,0,0.8-0.3,0.8-0.7c0,0,0,0,0,0l0,0C204.1,104,204.1,103.9,204.1,103.9L204.1,103.9z     M188.5,101.2c0.7-2.7,3.1-4.5,5.8-4.5c2.5,0,4.8,1.8,5.4,4.5H188.5z"/>
		<path fill="#143C6E" d="M36.2,83.5c1.5,0,2.8,1.2,2.8,2.8c0,1.5-1.2,2.7-2.8,2.7c-1.5,0-2.7-1.2-2.7-2.7    C33.5,84.7,34.7,83.5,36.2,83.5z"/>
		<path fill="#143C6E" d="M38.3,115.9c0,2.8-0.4,4.5-1.3,5.8c-1.5,2.2-4,3.4-6.8,3.4c-0.9,0-1.9-0.1-2.5-0.3l0.7-3.1    c0.1-0.4,0.5-0.7,0.9-0.6l0.8,0c1.2,0,2.5-0.5,3.2-1.5c0.6-0.7,0.8-1.8,0.8-3.7v-0.8v-21c0-0.4,0.3-0.8,0.8-0.8h2.6    c0.4,0,0.8,0.4,0.8,0.8v20.8V115.9z"/>
		<path fill="#143C6E" d="M85.9,96.8c-1.8-2.2-4.5-3.6-7.5-3.6c-3,0-5.1,1.4-6.2,2.4v-1.2c0-0.4-0.3-0.8-0.8-0.8H69    c-0.4,0-0.8,0.4-0.8,0.8v19.1c0,0.4,0.4,0.8,0.8,0.8h2.6c0.4,0,0.8-0.4,0.8-0.8V100c1.2-1.5,3.2-2.9,5.9-2.9c1.7,0,3.3,0.8,4.3,2    c0.7,0.9,1.2,2.2,1.2,4.8l0,0.8v8.8c0,0.4,0.3,0.8,0.8,0.8h2.6h0.8v-10.1C87.9,100.5,87.2,98.4,85.9,96.8z"/>
		<path fill="#143C6E" d="M104.6,98C104.6,98,104.6,98,104.6,98C104.6,98,104.6,98,104.6,98L104.6,98z"/>
		<path fill="#143C6E" d="M93.9,109.3L93.9,109.3L93.9,109.3C94,109.3,94,109.3,93.9,109.3z"/>
		<path fill="#143C6E" d="M92.2,111.8c2.3,1.8,5,2.9,8.3,2.9c4,0,7.7-2.4,7.7-6.3c0-4.3-4.3-5.7-7.5-6.5c-2.1-0.5-3.7-1-3.7-2.4    c0-1.6,1.7-2.6,3.7-2.6c1.4,0,2.7,0.5,3.8,1.2c0,0,0,0,0,0c0.4,0.2,0.9,0.1,1.1-0.2l1.1-1.5l0.1-0.1c0.3-0.4,0.3-0.8,0-1.1    l-0.1-0.1c-1.6-1.1-3.6-1.8-6.2-1.8c-3.7,0-7.6,2-7.6,6.4c0,2.9,2.2,4.5,4.7,5.3c3,1,6.5,1.1,6.5,3.5c0,1.6-1.8,2.6-3.6,2.6    c-1.8,0-3.7-0.6-5.4-1.8l0,0c-0.3-0.3-0.8-0.2-1.1,0.1L92.2,111.8z"/>
		<path fill="#143C6E" d="M27.9,96.3c0-0.4-0.3-0.8-0.8-0.8l-12.4,0V99c0,0.4,0.4,0.7,0.8,0.7l8,0v7.9c-1.6,1.6-4.3,2.9-7.5,2.9    c-6.5,0-11.5-4.7-11.5-11.6c0-6.6,4.9-11.6,11.1-11.6c3,0,5.9,1.2,7.7,2.9h0c0,0,0,0,0,0c0.3,0.3,0.7,0.3,1,0c0,0,0,0,0,0h0    l1.9-1.8l0,0v0c0,0,0,0,0,0c0.3-0.3,0.3-0.7,0.1-1c0,0,0-0.1-0.1-0.1l0,0l0,0c0,0,0,0,0,0v0c-2.7-2.6-6.6-4.2-10.7-4.2    C6.7,83,0,90,0,98.8c0,9.1,6.8,15.8,15.9,15.8c4.7,0,9.3-2.4,11.9-5.7V96.3z"/>
	</g>
	<g>
		<g>
			<g>
				<path fill="#23509B" d="M84,34.1L84,34.1c0,1,0,2.6,0,2.6l0.8,1.4C85,38.5,87,48.2,87,48.2l2.5-1.3c-0.2-0.3-0.4-0.7-0.4-1.2      c0-0.2,0-0.4,0.1-0.5c-0.1,0-0.7-0.1-0.8-0.3c-0.1-0.2-0.2-2.2,0.1-2.7c0-0.1-0.1-0.2-0.2-0.3c-0.4-0.5-1.8-2.1-1.8-2.4      c0-0.2,0.3-0.6,0.3-0.6L84,34.1z M70.9,63c0-0.2-0.3-2.5-0.4-3c-2.7-0.2-4-0.5-4.3-0.9c-0.4-0.5,3.1-21.6,3.4-22      c0.2-0.2,1-0.9,1.1-1.1c0.1-0.2,0-4.6,0-5.7h-0.1c-0.2,0-4.8,4.5-6.3,4.3c-1.1-0.1-2.2-0.7-2.8-1.1L63.8,71      c2.6,0.8,5.3,1.3,8.1,1.5l0.8-1.3l0-2l-1.1-5.9C71.6,63.4,70.9,63.2,70.9,63z M91,55.5L91,55.5l-1.2-1.9h0l-1,1.7l0,0L91,55.5z       M74.6,0c-5.4,0-10.5,1.2-15.1,3.3l1.3,21.1c0.6-0.1,1-0.1,1.1,0c0.2,0.2,0.8,1.9,0.9,2.2c0,0.2,0,0.4-0.2,0.6      c0.6,0.2,1.8,0.5,1.8,0.5c0,0,3.3-4.4,4.2-5c0.2-0.1,2.8-1.3,3.9-1.8c0.1-0.1,0.2-0.2,0.2-0.4c0-0.4,0.3-2.3,0.3-2.8      c0-0.3,0.8-1,0.9-1.5c0.1-0.5,0.1-3,0.2-3.3c0.1-0.4,2.2-1.8,2.7-2.1c0.3-0.2,2.7-0.1,3,0c1,0.2,1.9,1.1,1.9,1.5      c0,0.3-0.1,3.7-0.1,3.7c0,0.3,1.2,2.2,1.2,2.8c0,0.6-0.1,1.9-0.1,2.2c0,0.1,0.1,0.3,0.2,0.5c0.7,0.4,3.4,2.1,3.9,2.4      c0.5,0.3,2.3,8.1,2.3,8.1l2.2,4.4c0,0,0.6-0.2,0.8-0.1c0.2,0.1,0.4,5.2,0.4,5.2v0c0.3,0.6,1,2,1,2.5c0,0.5-0.5,1-1.1,1.4      c0,0.1,0,0.2,0,0.3c0,0.5-0.2,0.9-0.4,1.2c0.8,0.4,2.2,1.1,2.2,1.2c0,0.3,0,0.6,0,7.9c0,0-0.9,0.7-1,0.7c-0.1,0-3.1-0.2-5-0.3      c0.1,1.4,0.2,2.6,0.1,2.9c-0.9,0.4-3.1,0.7-4.6,0.8c-0.3,1.1-1.3,4.6-1.6,4.6c-0.3,0-0.6,0-0.6,0s-1.9,2.7-1.9,3      c0,0.3,0.7,2.6,0.7,2.6l1.8,1.5C98.7,68.4,111,53.8,111,36.3C111,16.3,94.7,0,74.6,0z M87.5,49.5L87.5,49.5l0.1,5.5l0,0l1.5-2.5      l0-0.1L87.5,49.5z M88.5,49L88.5,49l1.3,2.4h0.1l1.2-2.3l0-0.1L88.5,49z M92.3,55.2l0-5.9l0,0l-1.7,3.2l0,0.1L92.3,55.2      L92.3,55.2z"/>
			</g>
		</g>
		<path fill="#143C6E" d="M58.2,31.1c-0.5-0.4-1.3-2.3-1.2-3.4c0-1,0.7-2.2,0.9-2.6c0.1-0.1,0.3-0.2,0.6-0.3L57.2,4.4    c-11.3,6.2-18.9,18.1-18.9,31.9c0,15.4,9.6,28.5,23.1,33.8l-2.5-38.7C58.7,31.3,58.4,31.2,58.2,31.1z"/>
	</g>
</g>
</svg>