<svg id="Lager_1" data-name="Lager 1" xmlns="http://www.w3.org/2000/svg" viewBox="0 0 271.38 61.55"><path d="M324.32,283.16h-6.47c-2,0-2.27.25-4.62,2.62l-20.65,20.8V273.84a1.53,1.53,0,0,0-1.71-1.7H281a1.53,1.53,0,0,0-1.7,1.7v4.4A1.54,1.54,0,0,0,281,280h3.62v40.37H281a1.53,1.53,0,0,0-1.7,1.7v4.41a1.54,1.54,0,0,0,1.7,1.72h15.15a1.54,1.54,0,0,0,1.71-1.7v-4.41a1.55,1.55,0,0,0-1.71-1.72h-3.56v-3.26l7.75-7.88L314,325.88c1.79,2.28,1.79,2.28,4.42,2.28h5.9a1.53,1.53,0,0,0,1.7-1.7v-4.41a1.53,1.53,0,0,0-1.7-1.7h-4.86l-13.59-16.77L318.28,291h6a1.49,1.49,0,0,0,1.71-1.64v-4.49A1.54,1.54,0,0,0,324.32,283.16Z" transform="translate(-279.27 -267.5)"/><path d="M377.66,320.35h-3.59V301.09c0-11.46-7.22-18.87-18.38-18.87a18.27,18.27,0,0,0-12.85,4.71v-2a1.54,1.54,0,0,0-1.71-1.71h-9.77a1.53,1.53,0,0,0-1.71,1.7v4.4a1.55,1.55,0,0,0,1.71,1.72h3.58v29.35h-3.58a1.54,1.54,0,0,0-1.71,1.7v4.41a1.54,1.54,0,0,0,1.71,1.7h15.06a1.54,1.54,0,0,0,1.71-1.7v-4.41a1.53,1.53,0,0,0-1.71-1.7h-3.58V302.46c0-7.34,5.16-12.67,12.27-12.67,6.92,0,11.06,4.49,11.06,12v18.53h-3.58a1.53,1.53,0,0,0-1.71,1.7v4.41a1.54,1.54,0,0,0,1.71,1.7h15.07a1.54,1.54,0,0,0,1.71-1.7v-4.41A1.54,1.54,0,0,0,377.66,320.35Z" transform="translate(-279.27 -267.5)"/><path d="M402.13,282.29c-12.9,0-23,10.32-23,23.5s10,23.26,22.86,23.26,23.1-10.32,23.1-23.5A22.86,22.86,0,0,0,402.13,282.29Zm0,39.11c-8.29,0-14.79-7-14.79-15.85S393.63,290,402,290s14.88,7,14.88,15.84S410.53,321.4,402.13,321.4Z" transform="translate(-279.27 -267.5)"/><path d="M492,283.18H476.53a1.54,1.54,0,0,0-1.7,1.71v4.4a1.54,1.54,0,0,0,1.7,1.71H480l-7.37,23.83L462.2,284.46a2,2,0,0,0-1.9-1.35h-3.08a2,2,0,0,0-1.9,1.35L445,314.82,437.6,291h3.49a1.54,1.54,0,0,0,1.7-1.71v-4.4a1.54,1.54,0,0,0-1.7-1.71H425.44a1.55,1.55,0,0,0-1.72,1.71v4.4a1.55,1.55,0,0,0,1.72,1.71h3.67l12.27,36a2,2,0,0,0,1.88,1.32h3.33a2,2,0,0,0,1.89-1.36l10.27-29.51L469,327a2,2,0,0,0,1.9,1.36h3.33a2,2,0,0,0,1.88-1.32l12.27-36H492a1.55,1.55,0,0,0,1.72-1.71v-4.4A1.55,1.55,0,0,0,492,283.18Z" transform="translate(-279.27 -267.5)"/><path d="M513.92,320.35h-3.59V284.89a1.54,1.54,0,0,0-1.71-1.71h-9.86a1.54,1.54,0,0,0-1.7,1.71v4.4a1.54,1.54,0,0,0,1.7,1.71h3.59v29.35h-6.51a1.54,1.54,0,0,0-1.71,1.7v4.41a1.54,1.54,0,0,0,1.71,1.7h18.08a1.54,1.54,0,0,0,1.71-1.7v-4.41A1.54,1.54,0,0,0,513.92,320.35Z" transform="translate(-279.27 -267.5)"/><path d="M548.94,305.29H544.6a1.54,1.54,0,0,0-1.71,1.7v8.34a5.61,5.61,0,0,1-5.46,5.83c-4.29,0-6.12-1.78-6.12-6V291h10.47a1.54,1.54,0,0,0,1.71-1.71v-4.4a1.54,1.54,0,0,0-1.71-1.71H531.31v-9.35a1.54,1.54,0,0,0-1.7-1.71h-4.56a1.55,1.55,0,0,0-1.72,1.71v9.35h-4.76a1.54,1.54,0,0,0-1.71,1.71v4.4a1.54,1.54,0,0,0,1.71,1.71h4.76v24.61c0,8.06,5.28,13.28,13.44,13.28,8.43,0,13.88-5.05,13.88-12.86v-9A1.54,1.54,0,0,0,548.94,305.29Z" transform="translate(-279.27 -267.5)"/><circle cx="226.98" cy="5" r="5"/></svg>