<?xml version="1.0" encoding="utf-8"?>
<!-- Generator: Adobe Illustrator 25.1.0, SVG Export Plug-In . SVG Version: 6.00 Build 0)  -->
<svg version="1.1" id="Layer_1" xmlns="http://www.w3.org/2000/svg" xmlns:xlink="http://www.w3.org/1999/xlink" x="0px" y="0px"
	 viewBox="0 0 164.3 77.9" style="enable-background:new 0 0 164.3 77.9;" xml:space="preserve">
<style type="text/css">
	.st0{fill:#B72926;}
</style>
<g>
	<rect x="81.3" y="2.2" class="st0" width="9.3" height="50.8"/>
	<path class="st0" d="M141,42.5c2.4,2.1,6,3.4,9.5,3.4c2.5,0,4.4-1.2,4.4-2.9c0-5.2-16.8-3.4-16.8-14.5c0-6.7,6.4-10.8,13.3-10.8
		c4.5,0,9.4,1.7,11.7,3.5l-4.4,6.7c-1.8-1.3-4.2-2.4-6.7-2.4c-2.6,0-4.7,1-4.7,2.8c0,4.5,16.8,2.7,16.8,14.7
		c0,6.7-6.5,10.7-13.8,10.7c-4.8,0-9.9-1.6-14-4.7L141,42.5z"/>
	<path class="st0" d="M25.1,18.6c-8.7,0-15.4-7.1-15.4-15.7H0V53h9.7V21.8c0.1,0.4,0.6,0.7,0.8,0.9c3.9,3.1,8.9,4.9,14.6,4.9
		c5.7,0,10.7-1.8,14.6-4.9c0.2-0.2,0.6-0.5,0.8-0.9V53h9.7V2.9h-9.7C40.5,11.5,33.8,18.6,25.1,18.6"/>
	<path class="st0" d="M130.9,47.5c-3.4,4-8.9,6.2-14.2,6.2c-10.4,0-18.2-7.2-18.2-18c0-9.7,6.6-18.1,16.9-18.1
		c9.6,0,16.4,8.1,16.4,17.8c0,0.9-0.1,1.9-0.2,2.6h-24.1c0.5,4.9,4.4,8.2,9.4,8.2c3.9,0,7.1-2.2,8.7-4L130.9,47.5z M122.2,31.2
		c-0.3-3.1-3.1-6.1-6.9-6.1c-3.9,0-7,2.9-7.4,6.1H122.2z"/>
	<path class="st0" d="M65.9,0.1C69.2,0.1,72,2.7,72,6c0,3.4-2.7,5.9-6.1,5.9c-3.4,0-6.1-2.6-6.1-5.9C59.8,2.7,62.5,0.1,65.9,0.1z
		 M70.5,53h-9.3V18.3h9.3V53z"/>
</g>
<g>
	<path class="st0" d="M0.3,77.7v-7.8h4.9v1.2H1.7v2.2h3.2v1.2H1.7v3.1H0.3z"/>
	<path class="st0" d="M10.5,75.7H7.2l-0.7,2H5.1l3-7.8h1.5l3,7.8h-1.4L10.5,75.7z M7.7,74.5H10l-1.2-3.2L7.7,74.5z"/>
	<path class="st0" d="M19.3,77.7l-0.1-1c-0.3,0.6-1.1,1.2-2.4,1.2c-2,0-3.8-1.5-3.8-4.1c0-2.6,1.9-4.1,3.9-4.1
		c1.9,0,3.1,1.1,3.5,2.4l-1.2,0.5c-0.3-0.9-1-1.6-2.3-1.6c-1.3,0-2.6,0.9-2.6,2.8c0,1.9,1.2,2.9,2.6,2.9c1.6,0,2.2-1.1,2.2-1.8h-2.6
		v-1.2h3.8v4H19.3z"/>
	<path class="st0" d="M21.9,77.7v-7.8h1.3v6.5h3.6v1.3H21.9z"/>
	<path class="st0" d="M28,77.7v-7.8h1.3v7.8H28z"/>
	<path class="st0" d="M37.1,77.7l-0.1-1c-0.3,0.6-1.1,1.2-2.4,1.2c-2,0-3.8-1.5-3.8-4.1c0-2.6,1.9-4.1,3.9-4.1
		c1.9,0,3.1,1.1,3.5,2.4L37,72.6c-0.3-0.9-1-1.6-2.3-1.6c-1.3,0-2.6,0.9-2.6,2.8c0,1.9,1.2,2.9,2.6,2.9c1.6,0,2.2-1.1,2.2-1.8h-2.6
		v-1.2h3.8v4H37.1z"/>
	<path class="st0" d="M47.1,75.7h-3.3l-0.7,2h-1.4l3-7.8h1.5l3,7.8h-1.4L47.1,75.7z M44.2,74.5h2.4l-1.2-3.2L44.2,74.5z"/>
	<path class="st0" d="M50,75v-5.1h1.3v5c0,1.1,0.6,1.7,1.6,1.7c1,0,1.6-0.6,1.6-1.7v-5h1.3V75c0,1.9-1.3,2.9-2.9,2.9
		C51.3,77.8,50,76.8,50,75z"/>
	<path class="st0" d="M60.7,71.1v6.6h-1.3v-6.6h-2.5v-1.2h6.4v1.2H60.7z"/>
	<path class="st0" d="M67.6,69.7c2,0,4,1.5,4,4.1c0,2.6-1.9,4.1-4,4.1c-2,0-4-1.5-4-4.1C63.6,71.2,65.5,69.7,67.6,69.7z M67.6,76.6
		c1.3,0,2.6-0.9,2.6-2.8c0-1.9-1.3-2.8-2.6-2.8c-1.3,0-2.6,0.9-2.6,2.8C64.9,75.7,66.2,76.6,67.6,76.6z"/>
	<path class="st0" d="M75.2,74.6h-1v3.1h-1.3v-7.8h3c1.5,0,2.4,1,2.4,2.4c0,1.1-0.7,2-1.8,2.2l1.8,3.2h-1.5L75.2,74.6z M75.7,73.4
		c0.8,0,1.3-0.5,1.3-1.2c0-0.7-0.5-1.2-1.3-1.2h-1.4v2.4H75.7z"/>
	<path class="st0" d="M79.8,77.7v-7.8h1.3v7.8H79.8z"/>
	<path class="st0" d="M86,71.1v6.6h-1.3v-6.6h-2.5v-1.2h6.4v1.2H86z"/>
	<path class="st0" d="M89.7,77.7v-7.8h4.8v1.2H91v2.1h3.2v1.2H91v2.1h3.5v1.2H89.7z"/>
	<path class="st0" d="M99.2,71.1v6.6h-1.3v-6.6h-2.5v-1.2h6.4v1.2H99.2z"/>
	<path class="st0" d="M109,69.7c2,0,4,1.5,4,4.1c0,2.6-1.9,4.1-4,4.1c-2,0-4-1.5-4-4.1C105.1,71.2,107,69.7,109,69.7z M109,76.6
		c1.3,0,2.6-0.9,2.6-2.8c0-1.9-1.3-2.8-2.6-2.8c-1.3,0-2.6,0.9-2.6,2.8C106.4,75.7,107.7,76.6,109,76.6z"/>
	<path class="st0" d="M120.2,77.7l-0.1-1c-0.3,0.6-1.1,1.2-2.4,1.2c-2,0-3.8-1.5-3.8-4.1c0-2.6,1.9-4.1,3.9-4.1
		c1.9,0,3.1,1.1,3.5,2.4l-1.2,0.5c-0.3-0.9-1-1.6-2.3-1.6c-1.3,0-2.6,0.9-2.6,2.8c0,1.9,1.2,2.9,2.6,2.9c1.6,0,2.2-1.1,2.2-1.8h-2.6
		v-1.2h3.8v4H120.2z"/>
	<path class="st0" d="M130.6,69.9h1.4l-2.9,7.8h-1.3l-2.9-7.8h1.4l2.2,6.1L130.6,69.9z"/>
	<path class="st0" d="M137,75.7h-3.3l-0.7,2h-1.4l3-7.8h1.5l3,7.8h-1.4L137,75.7z M134.2,74.5h2.4l-1.2-3.2L134.2,74.5z"/>
	<path class="st0" d="M142.5,74.6h-1v3.1h-1.3v-7.8h3c1.5,0,2.4,1,2.4,2.4c0,1.1-0.7,2-1.8,2.2l1.8,3.2h-1.5L142.5,74.6z M143,73.4
		c0.8,0,1.3-0.5,1.3-1.2c0-0.7-0.5-1.2-1.3-1.2h-1.4v2.4H143z"/>
	<path class="st0" d="M154.3,77.7v-5.7l-2.4,5.7h-1.1l-2.4-5.7v5.7h-1.3v-7.8h1.8l2.5,6l2.5-6h1.8v7.8H154.3z"/>
	<path class="st0" d="M157.5,77.7v-7.8h4.8v1.2h-3.5v2.1h3.2v1.2h-3.2v2.1h3.5v1.2H157.5z"/>
</g>
</svg>
