<?xml version="1.0" encoding="utf-8"?>
<!-- Generator: Adobe Illustrator 16.0.0, SVG Export Plug-In . SVG Version: 6.00 Build 0)  -->
<!DOCTYPE svg PUBLIC "-//W3C//DTD SVG 1.1//EN" "http://www.w3.org/Graphics/SVG/1.1/DTD/svg11.dtd">
<svg version="1.1" id="Layer_1" xmlns="http://www.w3.org/2000/svg" xmlns:xlink="http://www.w3.org/1999/xlink" x="0px" y="0px"
	 width="566.93px" height="566.93px" viewBox="0 0 566.93 566.93" enable-background="new 0 0 566.93 566.93" xml:space="preserve">
<g>
	<polygon fill="#003552" points="173.434,277.962 153.376,253.75 142.795,253.75 142.795,299.189 155.389,299.189 155.389,274.976 
		175.446,299.189 186.027,299.189 186.027,253.75 173.434,253.75 	"/>
	<path fill="#003552" d="M221.209,265.598c-2.856-1.45-6.037-2.175-9.542-2.175c-3.679,0-6.989,0.779-9.932,2.337
		c-2.943,1.558-5.248,3.711-6.913,6.459c-1.667,2.749-2.499,5.853-2.499,9.315c0,3.506,0.854,6.644,2.564,9.413
		c1.709,2.77,4.122,4.933,7.238,6.49c3.115,1.558,6.729,2.336,10.84,2.336c6.577,0,11.576-1.902,14.995-5.713l-6.491-6.75
		c-1.256,1.082-2.5,1.86-3.733,2.338c-1.233,0.476-2.693,0.713-4.381,0.713c-2.251,0-4.122-0.486-5.615-1.459
		c-1.493-0.976-2.5-2.37-3.018-4.188h25.575c0.13-1.948,0.195-2.964,0.195-3.051c0-3.765-0.833-7.021-2.499-9.77
		C226.326,269.146,224.065,267.048,221.209,265.598z M204.526,278.223c0.346-1.86,1.157-3.332,2.435-4.415
		c1.276-1.082,2.866-1.623,4.771-1.623c1.904,0,3.494,0.541,4.771,1.623c1.276,1.083,2.087,2.555,2.434,4.415H204.526z"/>
	<path fill="#003552" d="M253.665,290.232c-1.126,0-2.024-0.358-2.694-1.072c-0.672-0.715-1.006-1.698-1.006-2.953v-11.685h8.048
		v-9.218h-8.048v-9.153h-12.333v9.153h-5.128v9.218h5.128v11.813c0,4.458,1.233,7.812,3.7,10.062
		c2.466,2.252,5.993,3.377,10.581,3.377c1.687,0,3.278-0.174,4.77-0.521c1.494-0.344,2.759-0.843,3.798-1.49l-3.051-8.635
		C256.347,289.864,255.093,290.232,253.665,290.232z"/>
	<path fill="#003552" d="M288.327,278.872c-1.904-0.562-4.306-1.06-7.205-1.493c-2.295-0.346-3.938-0.682-4.934-1.006
		c-0.996-0.326-1.493-0.898-1.493-1.721c0-0.735,0.455-1.331,1.364-1.785c0.908-0.454,2.336-0.681,4.284-0.681
		c3.634,0,7.011,0.867,10.126,2.597l3.699-8.374c-1.688-0.951-3.786-1.688-6.295-2.208c-2.512-0.519-5.043-0.779-7.596-0.779
		c-3.592,0-6.676,0.51-9.25,1.525c-2.576,1.018-4.534,2.402-5.875,4.154c-1.342,1.753-2.013,3.754-2.013,6.004
		c0,2.726,0.714,4.847,2.142,6.362c1.428,1.516,3.126,2.555,5.096,3.116c1.969,0.562,4.36,1.017,7.173,1.362
		c2.207,0.304,3.818,0.617,4.835,0.941c1.017,0.324,1.525,0.877,1.525,1.655s-0.421,1.374-1.265,1.785s-2.262,0.616-4.252,0.616
		c-2.165,0-4.35-0.293-6.556-0.877c-2.207-0.584-4.111-1.373-5.712-2.369l-3.701,8.438c1.731,1.082,4.025,1.96,6.881,2.628
		c2.856,0.672,5.755,1.008,8.699,1.008c3.677,0,6.827-0.498,9.445-1.494c2.617-0.993,4.598-2.367,5.939-4.121
		c1.34-1.754,2.012-3.732,2.012-5.939c0-2.683-0.703-4.771-2.109-6.264C291.885,280.46,290.23,279.434,288.327,278.872z"/>
	<path fill="#003552" d="M327.405,265.598c-2.857-1.45-6.038-2.175-9.544-2.175c-3.68,0-6.989,0.779-9.932,2.337
		c-2.942,1.558-5.248,3.711-6.914,6.459c-1.666,2.749-2.499,5.853-2.499,9.315c0,3.506,0.855,6.644,2.564,9.413
		c1.71,2.77,4.121,4.933,7.237,6.49c3.115,1.557,6.729,2.336,10.841,2.336c6.577,0,11.575-1.902,14.995-5.713l-6.492-6.75
		c-1.254,1.082-2.498,1.86-3.731,2.338c-1.233,0.476-2.692,0.713-4.381,0.713c-2.252,0-4.123-0.486-5.617-1.459
		c-1.491-0.976-2.498-2.37-3.018-4.188h25.575c0.13-1.948,0.193-2.964,0.193-3.051c0-3.765-0.832-7.021-2.498-9.77
		C332.521,269.146,330.26,267.048,327.405,265.598z M310.722,278.223c0.348-1.86,1.157-3.332,2.436-4.415
		c1.274-1.082,2.866-1.623,4.771-1.623c1.903,0,3.493,0.541,4.771,1.623c1.276,1.083,2.088,2.555,2.435,4.415H310.722z"/>
	<path fill="#003552" d="M360.314,273.224c3.071,0,5.408,1.581,7.01,4.738l9.543-4.869c-1.212-3.028-3.269-5.397-6.166-7.107
		c-2.9-1.709-6.341-2.564-10.32-2.564c-3.896,0-7.38,0.769-10.452,2.305c-3.072,1.537-5.464,3.679-7.173,6.426
		c-1.71,2.749-2.563,5.875-2.563,9.38c0,3.506,0.854,6.643,2.563,9.412c1.709,2.771,4.101,4.934,7.173,6.49
		c3.072,1.559,6.557,2.338,10.452,2.338c3.979,0,7.42-0.854,10.32-2.564c2.897-1.708,4.954-4.077,6.166-7.107l-9.543-4.867
		c-1.602,3.158-3.938,4.738-7.01,4.738c-2.208,0-4.035-0.748-5.485-2.24c-1.45-1.493-2.175-3.56-2.175-6.198
		c0-2.596,0.725-4.63,2.175-6.102C356.279,273.96,358.106,273.224,360.314,273.224z"/>
	<path fill="#003552" d="M406.206,280.949c0,2.813-0.616,4.9-1.85,6.264c-1.234,1.363-2.824,2.045-4.771,2.045
		c-1.904,0-3.354-0.605-4.35-1.818c-0.996-1.209-1.492-3.135-1.492-5.775v-17.657H381.41v19.669c0,5.367,1.353,9.391,4.057,12.073
		c2.705,2.685,6.33,4.024,10.874,4.024c2.033,0,3.959-0.367,5.777-1.104c1.815-0.734,3.374-1.816,4.672-3.244v3.764h11.75v-35.183
		h-12.334V280.949z"/>
	<path fill="#003552" d="M438.208,268.226v-4.22H426.46v35.184h12.331v-16.165c0-2.942,0.748-5.127,2.241-6.556
		c1.493-1.428,3.559-2.142,6.199-2.142c0.732,0,1.665,0.064,2.79,0.194v-11.1c-2.597,0-4.9,0.401-6.913,1.201
		C441.097,265.424,439.461,266.625,438.208,268.226z"/>
	<path fill="#003552" d="M466.704,248.785c-1.387-1.19-3.203-1.785-5.454-1.785c-2.25,0-4.067,0.627-5.452,1.882
		c-1.386,1.255-2.076,2.813-2.076,4.673c0,1.861,0.69,3.419,2.076,4.674c1.385,1.256,3.202,1.882,5.452,1.882
		c2.251,0,4.067-0.638,5.454-1.915c1.384-1.275,2.076-2.889,2.076-4.836C468.78,251.501,468.088,249.976,466.704,248.785z"/>
	<rect x="455.084" y="264.006" fill="#003552" width="12.334" height="35.184"/>
	<path fill="#003552" d="M496.627,289.128c-1.081,0.735-2.337,1.104-3.765,1.104c-1.125,0-2.023-0.358-2.693-1.072
		c-0.671-0.715-1.006-1.698-1.006-2.953v-11.685h8.049v-9.218h-8.049v-9.153h-12.334v9.153h-5.128v9.218h5.128v11.813
		c0,4.458,1.233,7.812,3.7,10.062c2.467,2.252,5.993,3.377,10.581,3.377c1.688,0,3.276-0.174,4.771-0.521
		c1.493-0.344,2.76-0.843,3.798-1.49L496.627,289.128z"/>
	<path fill="#003552" d="M529.083,264.006l-8.697,21.488l-8.634-21.488h-12.657l15.06,35.639c-0.521,1.037-1.158,1.793-1.915,2.271
		c-0.757,0.476-1.721,0.715-2.891,0.715c-0.054,0-0.108-0.008-0.164-0.009v9.721c0.205,0.008,0.413,0.024,0.62,0.024
		c3.679,0,6.793-0.876,9.348-2.63c2.553-1.752,4.717-4.793,6.491-9.119l15.189-36.611H529.083z"/>
</g>
<path fill="#DA1F43" d="M122.509,237.533H40.381c-0.708,0-1.281,0.569-1.281,1.271v32.847v33.729c0,0.161,0.033,0.312,0.087,0.455
	l0.735,0.729l40.635,21.646c0.489,0.482,1.273,0.482,1.762,0l40.629-21.645l0.756-0.75c0.052-0.139,0.083-0.283,0.083-0.438v-33.718
	v-32.858C123.79,238.102,123.216,237.533,122.509,237.533z"/>
<path fill="#FFFFFF" d="M89.288,285.682H60.954c-1.462,0-2.647-1.185-2.647-2.646v-26.227c0-1.461,1.185-2.646,2.647-2.646h40.285
	c1.461,0,2.646,1.185,2.646,2.646c0,1.462-1.185,2.646-2.646,2.646H63.601v20.934h25.687c1.461,0,2.646,1.185,2.646,2.646
	S90.75,285.682,89.288,285.682z"/>
<path fill="#FFFFFF" d="M101.495,299.126H60.463c-1.461,0-2.646-1.185-2.646-2.646s1.185-2.646,2.646-2.646h38.385V272.9H73.161
	c-1.462,0-2.646-1.185-2.646-2.646c0-1.462,1.185-2.646,2.646-2.646h28.333c1.462,0,2.647,1.185,2.647,2.646v26.227
	C104.142,297.941,102.957,299.126,101.495,299.126z"/>
</svg>
