<svg width="290" height="74" viewBox="0 0 290 74" xmlns="http://www.w3.org/2000/svg" xmlns:xlink="http://www.w3.org/1999/xlink"><defs><path id="a" d="M44.413.054V56.09H.12V.054h44.294z"/></defs><g fill="none" fill-rule="evenodd"><path fill="#ff5b24" d="M39.04 1.861l-12.281 35.91L14.38 1.862H-.043L21.36 55.127h10.7L53.463 1.861zm63.187 15.233c0 4.246-3.35 7.2-7.259 7.2-3.908 0-7.257-2.954-7.257-7.2 0-4.247 3.349-7.2 7.257-7.2 3.909 0 7.26 2.953 7.26 7.2M85.475 46.542c9.027 0 14.145-4.339 18.985-10.615 2.604-3.415 6.047-4.064 8.374-2.216 2.512 1.939 2.605 5.447 0 8.862-6.978 9.232-15.912 14.77-27.359 14.77-12.469 0-23.17-6.83-30.893-18.554-2.139-3.047-1.582-6.555.744-8.217 2.513-1.754 5.956-1.016 8.19 2.308 5.583 8.123 12.75 13.662 21.96 13.662m51.092-18.186c0 10.894 6.328 16.618 13.401 16.618 6.699 0 13.586-5.355 13.586-16.618 0-11.079-6.887-16.432-13.494-16.432-7.165 0-13.493 5.077-13.493 16.432zm0-26.403v7.295c3.63-4.986 9.305-8.77 17.587-8.77 10.423 0 22.613 8.676 22.613 27.233 0 19.386-11.724 28.803-23.73 28.803-6.42 0-12.096-2.494-16.47-8.403v25.48h-13.12V1.953h13.12zm63.002 26.403c0 10.894 6.327 16.618 13.4 16.618 6.699 0 13.585-5.355 13.585-16.618 0-11.079-6.886-16.432-13.493-16.432-7.165 0-13.493 5.077-13.493 16.432zm0-26.403v7.295c3.629-4.986 9.304-8.77 17.586-8.77 10.423 0 22.613 8.676 22.613 27.233 0 19.386-11.725 28.803-23.73 28.803-6.42 0-12.096-2.494-16.47-8.403v25.48h-13.12V1.953h13.12z"/><g transform="translate(245.051 .423)"><mask id="b" fill="#fff"><use xlink:href="#a"/></mask><path d="M22.45.054c10.796 0 18.705 4.984 21.963 17.54L32.594 19.44c-.186-6.37-4.187-8.307-9.864-8.307-4.467 0-7.723 1.937-7.723 4.984 0 2.4 1.674 4.893 6.7 5.816l9.025 1.66c8.84 1.664 13.587 7.386 13.587 15.234 0 11.539-10.515 17.264-20.38 17.264-10.422 0-21.96-5.356-23.82-18.372l11.817-1.847c.652 6.74 4.84 9.14 11.539 9.14 5.118 0 8.561-1.846 8.561-5.077 0-2.862-1.582-4.986-7.166-6.001l-8.189-1.476C8.028 30.888 2.725 24.794 2.725 17.04 2.725 5.038 13.703.054 22.45.054" fill="#ff5b24" mask="url(#b)"/></g></g><script xmlns=""/></svg>