<?xml version="1.0" encoding="UTF-8" standalone="no"?>
<svg xmlns:dc="http://purl.org/dc/elements/1.1/" xmlns:cc="http://creativecommons.org/ns#" xmlns:rdf="http://www.w3.org/1999/02/22-rdf-syntax-ns#" xmlns:svg="http://www.w3.org/2000/svg" xmlns="http://www.w3.org/2000/svg" xmlns:xlink="http://www.w3.org/1999/xlink" width="136.76042" height="36.551636" viewBox="0 0 36.184527 9.6709537" version="1.1" id="svg8">
  <path id="path16514" style="fill:#737d85;fill-opacity:1;fill-rule:nonzero;stroke:none;stroke-width:1.33333" d="M 82.166016 0.5 C 72.363924 0.5 64.412109 8.4576901 64.412109 18.275391 L 64.408203 18.275391 C 64.408203 28.093092 72.360056 36.050781 82.162109 36.050781 C 87.026702 36.050781 91.850264 33.79033 95.246094 30.097656 L 95.230469 30.109375 C 95.589751 29.713546 95.808594 29.183623 95.808594 28.605469 C 95.808594 27.360681 94.799471 26.355469 93.554688 26.355469 C 92.90888 26.355469 92.32554 26.624982 91.914062 27.0625 L 91.898438 27.066406 C 89.33074 29.842469 85.701172 31.535156 82.169922 31.535156 C 74.847012 31.52994 68.929688 25.598302 68.929688 18.275391 C 68.929687 10.952481 74.847012 5.015625 82.169922 5.015625 C 85.701172 5.015625 89.331383 6.7083498 91.904297 9.484375 L 91.914062 9.484375 C 92.32554 9.9269577 92.908842 10.197266 93.554688 10.197266 C 94.799475 10.197266 95.810547 9.1868751 95.810547 7.9472656 C 95.810547 7.3639333 95.591855 6.8385457 95.232422 6.4375 L 95.255859 6.4472656 C 91.854814 2.7597697 87.03057 0.5 82.166016 0.5 z M 64.357422 0.59179688 L 39.166016 0.59375 L 39.166016 4.9628906 L 49.578125 4.9667969 L 49.566406 35.925781 L 53.947266 35.925781 L 53.962891 4.9726562 L 64.369141 4.9609375 L 64.357422 0.59179688 z M 25.900391 0.609375 C 16.233724 0.609375 11.400391 11.936849 11.025391 12.853516 C 11.009781 12.895181 2.6354134 31.219401 0.5 35.880859 L 5.328125 35.880859 L 12.34375 20.478516 L 29.728516 20.478516 L 29.728516 35.880859 L 34.115234 35.880859 L 34.115234 0.609375 L 25.900391 0.609375 z M 103.05664 0.609375 L 103.05664 35.884766 L 107.44336 35.884766 L 107.44336 20.484375 L 124.82812 20.484375 L 131.84375 35.884766 L 136.67188 35.884766 C 134.53646 31.223307 126.1569 12.906249 126.14648 12.859375 C 125.77148 11.942708 120.93815 0.609375 111.27148 0.609375 L 103.05664 0.609375 z M 107.22852 4.7753906 L 111.05664 4.78125 C 117.93164 4.78125 121.89063 14.34375 121.89062 14.34375 L 122.52148 15.724609 L 121.36523 15.728516 L 121.36523 15.734375 L 107.22852 15.728516 L 107.22852 4.7753906 z M 29.728516 4.9902344 L 29.728516 15.943359 L 15.587891 15.943359 L 15.587891 15.9375 L 14.4375 15.9375 L 15.0625 14.552734 C 15.0625 14.552734 19.025391 4.9941406 25.900391 4.9941406 L 29.728516 4.9902344 z M 75.978516 15.8125 C 74.639958 15.816317 73.5625 16.879534 73.5625 18.197266 C 73.5625 19.514961 74.645855 20.583984 75.984375 20.583984 L 76.025391 20.583984 L 93.5625 20.583984 C 94.906235 20.583984 95.994141 19.514961 95.994141 18.197266 C 95.994141 16.879534 94.906235 15.8125 93.5625 15.8125 L 75.978516 15.8125 z" transform="scale(0.26458333)"/>
 <script xmlns=""/></svg>