<svg id="Layer_1" data-name="Layer 1" xmlns="http://www.w3.org/2000/svg" viewBox="0 0 632.67 263.39"><defs><style>.cls-1{fill:#27003d;}</style></defs><path class="cls-1" d="M184.12,194.43c-1.62,0-3.6,1.44-12.24,1.44-56,0-43.08-63-86.47-74.39,40-9,76.56-49.51,76.56-60.84,0-9.55-7.2-16.57-14-16.57-2.43,0-36.12,65.16-80.46,70.24C76.13,92,84.54,73.44,84.54,64.78c0-14.05-12.06-21.43-19.26-21.43-.72,0-1.08.18-1.08.72,0,41.24-34.76,99.4-34.76,123.17,0,16.2,11.17,24.49,18,24.49,1.08,0,1.44-.36,1.44-1.44,0-21,6.82-44.19,14.5-65.19,43.5,8,29.73,84.63,90.84,84.63,20.89,0,31.15-11.34,31.15-14.22C185.38,194.79,184.84,194.43,184.12,194.43Z"/><path class="cls-1" d="M606.38,135.37C594.72,146.74,580.5,155,571,157.91c9.59-27.21,22.2-57.55,22.2-58.56,0-2.7-12.42-9.36-14.22-9.36-.44,0-1.8,2.38-3.68,6.21-4.25-3.52-10.5-7.11-17-7.11-22,0-47.72,29.53-47.72,56.72,0,20,10.63,27.91,21.43,27.91,7.94,0,15-5.37,20.63-12.08,1.55,7,6.78,12.08,11.78,12.08,11,0,43.76-27.19,43.76-36.55A1.7,1.7,0,0,0,606.38,135.37Zm-68.61,25.57c-4,0-8.1-4.51-8.1-13.87,0-22,18.91-44.3,33.13-47.9,4.33,0,6.8,3,8.3,6.15-5.47,12.28-12.37,29.29-16.14,40.84C549.08,155.92,542.37,160.94,537.77,160.94Z"/><path class="cls-1" d="M498.52,90c-.19,0-1.54,2.76-3.58,7.23-4.22-3.81-11-8.13-18.21-8.13-19.47,0-42.22,23.14-46.85,47.84-24.24,20-37.25,24-46.61,24-5.84,0-14.44-2.81-14.73-16.59A25.09,25.09,0,0,0,382,147.79c17.65,0,41.06-13,41.06-39.25,0-8.11-18-19.45-26.11-19.45-16.44,0-42.48,23.72-46.88,49.36-9.92,8.18-21.11,16.3-27.66,19.38,6.47-20.82,21.62-57.08,31.4-81,42.31-2.69,85.82-5.88,90.68-7.22,2-.54,3.78-2.34,3.78-3.6,0-.9-.36-1.26-1.8-1.26-2,0-45,.78-88.17,1,2.73-6.83,4.44-11.4,4.44-12.36,0-2.35-12.07-9.37-14.23-9.37-.46,0-4.32,8.87-9.66,21.79-12.09,0-23.72,0-33.91-.18-40.52,0-51.32-3.24-54.75-3.24-.72,0-1.26.54-1.26,1.62,0,9.9,11.17,17.11,22.87,17.11,6.27.07,32.14-1.27,62.05-3.07-8.12,20-17.91,44.87-24.76,63-8.49,6.54-17.75,12.92-24.44,16,8.79-24.84,18.12-50.26,18.12-52.59,0-6.12-10.08-15.48-14.22-15.48-4.31,0-18.72,8-31.87,17.22,1.45-4.13,2.34-6.76,2.34-7C259,97,246.6,90,244.8,90c-1.55,0-9.09,19.07-20.18,48.41-10,8.68-20.66,16-28.24,19.14,8.58-27,22.31-57.18,22.31-58.19,0-2.34-12.42-9.36-14.22-9.36-.41,0-1.71,2.43-3.52,6.34-4.25-3.56-10.57-7.24-17.19-7.24-21.79,0-47.72,29-47.72,56.72,0,20,10.63,27.91,21.43,27.91,8.49,0,16-6.14,21.77-13.49.86,7.69,5.31,13.49,10.64,13.49,8,0,19.49-9.86,29.11-20.36l-4.26,11.36c0,3.78,9.73,9,15,9,2,.12,14.35-32.35,22.37-54.42,6.75-5.59,19.32-14.91,26.43-14.91,1.44,0,3.78,1.09,3.78,3.25,0,6.3-14.23,42.13-17.47,49.69,0,10.45,7.92,16.39,12.79,16.39,6.07,0,16.54-8.77,26.26-18.34l-.7,2c0,10.45,7.93,16.39,12.79,16.39,8.07,0,22.26-14.14,33.56-26.57.7,15.5,13.46,26.57,26.76,26.57,21.92,0,41.19-16.55,52.78-28.7,0,.27,0,.53,0,.79,0,20,10.81,27.91,21.43,27.91,5.46,0,10.53-2.55,15-6.32-11,31.2-26.7,52.42-47.21,52.42-13.33,0-18.91-8.29-18.91-14.23,0-9.54,9.72-15.84,20.53-15.84.9,0,1.62-.36,1.62-.9,0-2.34-18.37-7.93-52-7.93-42.14,0-79.41,6.49-114.34,18.73-3.6,1.26-11.53,8.64-11.53,18.19,0,4.14,2.52,9,3.6,9s18.73-14.22,51.86-24.67a274.86,274.86,0,0,1,100.1-13.08c-5.46,2.49-12.4,8.16-12.4,19.56,0,11.17,9.18,24.31,31.33,24.31,37.63,0,52.4-25.57,63.2-54,5.22-13.68,31.51-78.69,31.51-79.59C512.74,97,500.68,90,498.52,90Zm-335.29,71c-4,0-8.1-4.51-8.1-13.87,0-22,18.91-44.3,33.13-47.9,4.56,0,7.06,3.29,8.54,6.66-4.26,10.14-9.39,23.34-13,34C177.26,153.79,168.74,160.94,163.23,160.94ZM401.28,99.17c17.47,3.06-5,40-22.69,40-2.85,0-6.55-.94-8.58-4.16C374.35,121.32,387.57,105.66,401.28,99.17Zm46.82,47.9c0-22,18.91-44.3,33.13-47.9,5.25,0,7.78,4.36,9.16,8.19-4.69,10.62-10.61,24.38-15.57,36.29-6.2,11.42-13.64,17.29-18.62,17.29C452.24,160.94,448.1,156.43,448.1,147.07Z"/></svg>