<svg xmlns="http://www.w3.org/2000/svg" viewBox="0 0 543.48 230.57"><defs><style>.cls-1{fill:#445cea;}</style></defs><title>MainLogo_Blaa</title><g id="Layer_2" data-name="Layer 2"><g id="Layer_1-2" data-name="Layer 1"><path class="cls-1" d="M235.48,103.22l3.11-3.66a14.56,14.56,0,0,0,9.88,4.1c4.38,0,6.81-2,6.81-4.79,0-3.38-2.53-4.32-5.95-5.77L244.45,91c-3.53-1.39-7.41-3.95-7.41-9,0-5.39,4.85-9.46,11.68-9.46a15.52,15.52,0,0,1,10.86,4.33l-2.73,3.39a12.21,12.21,0,0,0-8.36-3.09c-3.64,0-6.08,1.69-6.08,4.52,0,3,3,4.09,6,5.27L253.13,89c4.33,1.69,7.57,4.22,7.57,9.27,0,5.55-4.68,10.08-12.52,10.08A18.18,18.18,0,0,1,235.48,103.22Z"/><path class="cls-1" d="M280,86.07H268.43v-4.2h16.79v25.8H280Zm-1.71-13a3.92,3.92,0,1,1,3.92,3.74A3.69,3.69,0,0,1,278.25,73.08Z"/><path class="cls-1" d="M298.26,81.87h4.09l.42,3.34h.13c1.23-2.31,2.83-4,5.81-4,2.46,0,4.07,1.47,4.78,4.39,1.34-2.65,3-4.39,6-4.39,3.62,0,5.74,2.9,5.74,8.05v18.38h-5.12v-18c0-2.61-.73-4-2.4-4s-2.47,1.19-3.68,3.6v18.35h-4.54v-18c0-2.61-.67-4-2.35-4s-2.61,1.19-3.73,3.6v18.35h-5.11Z"/><path class="cls-1" d="M331,97.87v-16h5.26V97.18c0,4.46,1.49,6.59,5.37,6.59,2.69,0,4.65-1.2,7.22-4.26V81.87h5.26v25.8h-4.34l-.42-4.3h-.21c-2.52,2.92-5.46,4.93-9.37,4.93C333.77,108.3,331,104.59,331,97.87Z"/><path class="cls-1" d="M371.29,98.64V74.43h-8.86v-4.2h14.12V99c0,3.58,2,5,4.86,5a11.43,11.43,0,0,0,4.62-1.09l1.26,3.91a17,17,0,0,1-7.11,1.5C374.41,108.3,371.29,104.86,371.29,98.64Z"/><path class="cls-1" d="M394.49,100.85c0-5.78,5.25-8.63,18.27-9.6-.18-3.19-1.89-5.75-6.48-5.75-3.12,0-6.2,1.42-8.72,2.9l-2-3.51a23.19,23.19,0,0,1,11.67-3.65c7.11,0,10.8,4.08,10.8,10.89v15.54h-4.34l-.42-3.35h-.16c-2.76,2.16-6.35,4-9.88,4C398.29,108.3,394.49,105.4,394.49,100.85Zm18.27-.19v-6c-10.13.73-13.13,2.77-13.13,5.85,0,2.59,2.32,3.66,5.08,3.66S410.09,102.83,412.76,100.66Z"/><path class="cls-1" d="M236.13,144.39V123h5.35v21.72c0,6.35,2.7,8.85,6.59,8.85s6.69-2.5,6.69-8.85V123h5.12v21.44c0,9.67-4.64,13.76-11.81,13.76S236.13,154.06,236.13,144.39Z"/><path class="cls-1" d="M280,135.92H268.43v-4.2h16.79v25.8H280Zm-1.71-13a3.92,3.92,0,0,1,7.84,0,3.92,3.92,0,0,1-7.84,0Z"/><path class="cls-1" d="M300.39,123h10.27c7.1,0,12.07,2.26,12.07,8.46a7.52,7.52,0,0,1-6,7.52v.21c5,.83,7.89,3.53,7.89,8.24,0,6.86-5.4,10.14-13.09,10.14H300.39ZM310,137.32c5.37,0,7.53-1.82,7.53-5.35s-2.46-4.72-7.35-4.72h-4.55v10.07Zm.85,15.89c5.48,0,8.55-1.84,8.55-6.14,0-3.95-2.94-5.56-8.55-5.56h-5.22v11.7Z"/><path class="cls-1" d="M543.48,230.57H0V0H543.48ZM5.92,224.65H537.56V5.92H5.92Z"/><path class="cls-1" d="M169.3,79.19l-41.64-24a14,14,0,0,0-13.92,0l-41.63,24a14,14,0,0,0-7,12.06v48.08a13.94,13.94,0,0,0,7,12l41.63,24a14,14,0,0,0,13.92,0l41.64-24a14,14,0,0,0,7-12V91.25A14,14,0,0,0,169.3,79.19ZM151,151.38l3.24,1.87L147,157.43l-19.34-11.16a8,8,0,0,1-4-6.94V91.25a8,8,0,0,1,4-6.94L147,73.14l7.25,4.18L151,79.19a14,14,0,0,0-7,12.06v48.08A14,14,0,0,0,151,151.38Zm-26.3,0,16.39,9.46L133.85,165l-32.49-18.76a8.05,8.05,0,0,1-4-6.94V91.25a8.05,8.05,0,0,1,4-6.94l32.49-18.76,7.25,4.18-16.39,9.46a14,14,0,0,0-7,12.06v48.08A13.93,13.93,0,0,0,124.71,151.38Zm0,18.92a8.06,8.06,0,0,1-8,0l-41.63-24a8.05,8.05,0,0,1-4-6.94V91.25a8.05,8.05,0,0,1,4-6.94l41.63-24a8,8,0,0,1,8,0L128,62.14l-29.54,17a14,14,0,0,0-7,12.06v48.08a14,14,0,0,0,7,12L128,168.44Zm45.64-31a8.05,8.05,0,0,1-4,6.94l-6.19,3.57L154,146.27a8,8,0,0,1-4-6.94V91.25a8,8,0,0,1,4-6.94l6.19-3.58,6.19,3.58a8.05,8.05,0,0,1,4,6.94Z"/></g></g></svg>